<svg
   xmlns="http://www.w3.org/2000/svg"
   width="688.35663"
   height="181.08238"
   viewBox="0 0 512 256">
  <g id="g2507" transform="translate(-253.76528,391.3412)">
    <path
       style="fill:#008020;stroke:#000000;stroke-width:0"
       id="path2451"
       d="M 25.79556,-256.5024 C 154.94025,-309.33432 197.98848,-305.42084 223.26953,-291.56714 C 241.03671,-279.98325 248.86366,-262.37261 272.48148,-255.21095 C 327.13317,-244.76197 364.31118,-270.19956 408.82696,-289.00381 C 426.92679,-295.63715 446.49417,-301.50737 470.01415,-302.36833 C 516.93672,-299.55063 565.85517,-281.93999 610.19484,-272.89986 C 626.51403,-268.24283 644.12467,-266.28609 661.75488,-267.06878 C 706.74028,-264.32935 755.65872,-295.63715 806.39693,-312.44553 C 822.1878,-317.16127 839.79844,-321.07474 859.36582,-321.52479 C 931.76512,-321.07474 931.76512,-307.37758 996.33746,-266.28609 C 929.80838,-305.42084 929.80838,-319.11801 859.36582,-320.62469 C 839.79844,-319.11801 822.1878,-315.20453 806.72958,-311.38889 C 755.65872,-293.68042 708.69702,-262.37261 661.71575,-265.50339 C 644.12467,-264.32935 626.51403,-266.28609 609.84263,-271.27577 C 565.85517,-279.98325 516.93672,-297.59389 469.93588,-300.6464 C 446.49417,-299.55063 426.92679,-293.68042 409.45312,-287.45799 C 366.26792,-270.19956 327.13317,-242.80524 272.20754,-253.88037 C 246.90692,-260.41588 239.07997,-278.02652 222.66294,-290.60834 C 197.98848,-305.42084 154.94025,-309.33432 25.79556,-256.5024" />
    <path
       style="fill:#008020;stroke:#000000;stroke-width:0"
       id="path2453"
       d="M 88.23506,-280.15936 C 86.454429,-281.93999 86.454429,-283.89673 87.726308,-286.02957 C 78.627478,-291.72368 82.540953,-299.55063 85.182549,-309.7061 C 86.454429,-299.55063 92.324642,-293.68042 87.393663,-285.99044 C 86.454429,-283.89673 86.454429,-281.93999 88.23506,-280.15936" />
    <path
       style="fill:#008020;stroke:#000000;stroke-width:0"
       id="path2455"
       d="M 153.02265,-297.86784 C 154.94025,-293.68042 154.94025,-287.8102 161.57359,-285.32515 C 176.46436,-281.93999 178.4211,-270.19956 184.54569,-258.38087 C 186.24805,-250.63219 188.20479,-244.76197 191.58995,-236.50454 C 184.29131,-240.8485 178.4211,-244.76197 173.70536,-251.25834 C 162.7672,-260.41588 152.98351,-268.24283 159.59728,-284.17067 C 158.85372,-289.76694 154.94025,-291.72368 153.02265,-297.86784" />
    <path
       style="fill:#008020;stroke:#000000;stroke-width:0"
       id="path2457"
       d="M 219.02341,-293.38691 C 223.42607,-295.63715 231.25302,-299.55063 237.41674,-306.1057 C 233.20976,-324.98822 242.99344,-326.94496 252.81627,-334.38056 C 264.51756,-340.64212 280.17146,-346.51233 303.28053,-349.56485 C 305.60905,-348.46907 309.52253,-350.42581 313.08379,-351.11067 C 309.52253,-346.51233 307.56579,-344.5556 306.35261,-343.8316 C 291.91189,-326.94496 278.21472,-315.20453 268.82238,-308.51249 C 258.64735,-303.46411 252.77713,-295.63715 237.27977,-306.30137 C 229.29628,-301.50737 223.42607,-297.59389 219.02341,-293.38691" />
    <path
       style="fill:#008020;stroke:#000000;stroke-width:0"
       id="path2459"
       d="M 273.53812,-254.34999 C 276.25799,-244.76197 280.17146,-236.93502 284.35888,-229.20591 C 301.69558,-229.10807 305.60905,-223.23786 312.4185,-217.9938 C 319.30621,-205.62722 325.17643,-189.97332 330.9488,-171.26691 C 333.00338,-158.66552 334.96012,-148.88183 339.1671,-135.3412 C 327.13317,-143.01161 317.34948,-150.83856 310.20738,-158.62638 C 293.86862,-172.36268 282.1282,-186.05984 278.39083,-199.99182 C 276.25799,-207.58396 272.34451,-215.41091 285.68946,-229.85163 C 280.17146,-236.93502 276.25799,-244.76197 273.53812,-254.34999" />
    <path
       style="fill:#008020;stroke:#000000;stroke-width:0"
       id="path2461"
       d="M 340.10634,-259.67232 C 342.78707,-266.28609 346.70054,-276.06978 352.82513,-286.71443 C 338.87359,-297.59389 340.83033,-305.42084 342.33702,-314.75448 C 344.74381,-328.9017 354.52749,-342.59886 370.57274,-358.44843 C 379.96508,-368.03645 391.70551,-379.77688 409.59009,-391.3412 C 405.40267,-369.99319 401.4892,-354.33929 399.25852,-341.93357 C 393.66225,-321.07474 387.79203,-305.42084 379.35849,-296.34158 C 372.13813,-289.76694 368.22466,-285.85347 351.22061,-287.45799 C 346.70054,-276.06978 342.78707,-268.24283 340.10634,-259.67232" />
    <path
       style="fill:#008020;stroke:#000000;stroke-width:0"
       id="path2463"
       d="M 403.62204,-285.97087 C 411.27289,-281.93999 421.05658,-276.06978 432.09258,-275.24795 C 442.58069,-287.8102 448.4509,-285.85347 457.29536,-289.14079 C 469.97502,-287.8102 485.62892,-281.93999 504.10052,-272.43025 C 514.97998,-264.32935 530.63389,-256.5024 547.93145,-244.99678 C 526.72041,-238.89176 511.06651,-238.89176 495.96049,-239.18527 C 473.88849,-236.93502 456.27785,-240.8485 444.92878,-249.37988 C 438.66721,-254.54566 432.797,-258.45914 432.24912,-275.67843 C 421.05658,-279.98325 411.27289,-281.93999 403.62204,-285.97087" />
    <path
       style="fill:#008020;stroke:#000000;stroke-width:0"
       id="path2465"
       d="M 471.52084,-301.40953 C 477.80197,-305.42084 485.62892,-309.33432 495.78439,-316.10463 C 491.49913,-332.81517 497.36935,-336.72865 503.98312,-345.59267 C 514.97998,-354.33929 530.63389,-360.2095 552.33411,-365.02307 C 563.89843,-366.07971 577.59559,-368.03645 594.89315,-370.11059 C 583.4658,-356.29602 573.68212,-348.46907 564.97463,-339.9964 C 548.24453,-324.98822 536.5041,-315.20453 524.05925,-311.21279 C 514.97998,-309.33432 509.10977,-305.42084 494.66905,-317.86569 C 485.62892,-311.29106 477.80197,-305.42084 471.52084,-301.40953" />
    <path
       style="fill:#008020;stroke:#000000;stroke-width:0"
       id="path2467"
       d="M 541.80686,-289.25819 C 546.28779,-281.93999 552.158,-276.06978 558.65437,-271.68668 C 575.63885,-278.02652 579.55233,-270.19956 589.27732,-266.75571 C 599.11971,-256.5024 608.90339,-244.76197 620.87863,-226.72085 C 622.60056,-221.28112 626.51403,-215.41091 632.16901,-209.16892 C 624.5573,-209.5407 616.73035,-213.45417 612.36682,-216.05663 C 591.29276,-221.28112 575.63885,-231.06481 566.48132,-241.53336 C 559.98495,-248.67545 552.158,-254.54566 559.22182,-272.25414 C 552.158,-278.02652 546.28779,-283.89673 541.80686,-289.25819" />
    <path
       style="fill:#008020;stroke:#000000;stroke-width:0"
       id="path2469"
       d="M 612.7973,-271.51058 C 616.73035,-272.1563 622.60056,-272.1563 629.39044,-275.40449 C 634.34098,-293.68042 646.08141,-289.76694 659.93511,-292.50637 C 669.56226,-291.72368 681.30269,-289.76694 695.97822,-288.90598 C 683.25943,-281.93999 671.519,-276.06978 663.67248,-273.56515 C 649.99489,-270.19956 642.16794,-262.37261 629.19476,-276.12848 C 622.60056,-274.11304 616.73035,-272.1563 612.7973,-271.51058" />
    <path
       style="fill:#008020;stroke:#000000;stroke-width:0"
       id="path2471"
       d="M 688.15127,-268.59504 C 691.08638,-268.24283 694.99985,-264.32935 699.61775,-267.94932 C 712.61049,-274.11304 722.39418,-266.28609 737.96981,-261.35511 C 738.04808,-260.41588 738.04808,-258.45914 740.86579,-260.23977 C 738.04808,-258.45914 738.04808,-258.45914 737.77414,-259.82885 C 722.39418,-256.5024 708.69702,-252.58892 699.109,-265.09248 C 694.99985,-268.24283 691.08638,-266.28609 688.15127,-268.59504" />
    <path
       style="fill:#008020;stroke:#000000;stroke-width:0"
       id="path2473"
       d="M 762.54644,-295.03057 C 763.48567,-295.63715 767.39915,-297.59389 769.66896,-302.83795 C 771.31262,-317.16127 785.00979,-319.11801 800.62455,-325.84918 C 790.88,-313.24779 785.00979,-299.55063 771.37133,-300.78337 C 765.44241,-299.55063 763.48567,-295.63715 762.54644,-295.03057" />
    <path
       style="fill:#008020;stroke:#000000;stroke-width:0"
       id="path2475"
       d="M 840.4833,-319.7833 C 841.75518,-319.11801 843.71192,-317.16127 848.13415,-318.92233 C 857.40908,-324.98822 867.19277,-317.16127 878.79623,-315.88939 C 867.19277,-313.24779 855.45234,-307.37758 848.13415,-318.8245 C 843.71192,-319.11801 841.75518,-319.11801 840.4833,-319.7833" />
    <path
       style="fill:#008020;stroke:#000000;stroke-width:0"
       id="path2477"
       d="M 925.07307,-311.72154 C 925.8949,-311.29106 925.8949,-309.33432 929.18222,-311.6237 C 933.72185,-313.24779 937.63533,-309.33432 943.66208,-308.35595 C 937.63533,-307.37758 931.76512,-305.42084 928.96698,-310.43009 C 927.85164,-311.29106 925.8949,-311.29106 925.07307,-311.72154" />
    <path
       style="fill:#804010;stroke:#000000;stroke-width:0"
       id="path2479"
       d="M 23.193099,-262.84223 C 152.98351,-313.24779 197.98848,-311.29106 225.73502,-295.44148 C 242.99344,-281.93999 250.8204,-264.32935 273.34245,-259.24183 C 325.17643,-248.67545 364.31118,-274.11304 407.67249,-291.89979 C 424.97005,-297.59389 446.49417,-303.46411 470.11199,-305.10776 C 518.89346,-301.50737 565.85517,-283.89673 610.58619,-274.75876 C 628.47077,-270.19956 644.12467,-266.28609 661.77445,-268.69288 C 706.74028,-266.28609 753.70198,-295.63715 806.14255,-313.24779 C 822.1878,-317.16127 839.79844,-321.07474 859.36582,-322.07268 C 925.8949,-321.07474 929.80838,-309.33432 983.26645,-274.7979 C 929.80838,-307.37758 925.8949,-319.11801 859.36582,-320.07681 C 839.79844,-319.11801 822.1878,-315.20453 806.98395,-310.6062 C 755.65872,-293.68042 708.69702,-262.37261 661.69618,-263.8793 C 644.12467,-262.37261 626.51403,-264.32935 609.45128,-269.41687 C 563.89843,-278.02652 516.93672,-293.68042 469.83805,-297.90697 C 448.4509,-297.59389 428.88353,-291.72368 410.6076,-284.54245 C 368.22466,-266.28609 329.0899,-238.89176 271.34657,-249.84949 C 242.99344,-256.5024 235.16649,-276.06978 220.17788,-286.71443 C 197.98848,-299.55063 156.89699,-303.46411 28.398021,-250.16257" />
    <path
       style="fill:#804010;stroke:#000000;stroke-width:0"
       id="path2481"
       d="M 87.745876,-280.12022 C 86.454429,-285.85347 84.497691,-293.68042 85.886975,-301.91828 C 86.454429,-293.68042 86.454429,-285.85347 88.724244,-280.21806" />
    <path
       style="fill:#804010;stroke:#000000;stroke-width:0"
       id="path2483"
       d="M 154.17712,-298.53313 C 160.81046,-283.89673 168.63741,-270.19956 179.24293,-254.89788 C 178.4211,-252.58892 178.4211,-252.58892 180.78875,-252.29541 C 178.4211,-252.58892 178.4211,-252.58892 179.02769,-254.74134 C 166.68067,-270.19956 158.85372,-283.89673 151.86817,-297.22211" />
    <path
       style="fill:#804010;stroke:#000000;stroke-width:0"
       id="path2485"
       d="M 217.75153,-295.16754 C 229.29628,-303.46411 241.03671,-311.29106 260.03663,-322.7184 C 266.4743,-326.94496 276.25799,-330.85843 286.98091,-336.88519 C 276.25799,-328.9017 268.43103,-324.98822 261.60202,-320.17465 C 244.95018,-307.37758 231.25302,-299.55063 220.29529,-291.60627" />
    <path
       style="fill:#804010;stroke:#000000;stroke-width:0"
       id="path2487"
       d="M 276.16015,-255.52403 C 282.1282,-240.8485 287.99841,-227.15133 297.52772,-210.10815 C 301.69558,-195.84353 309.52253,-182.14637 319.95194,-165.98371 C 307.56579,-180.18963 299.73884,-193.88679 293.2816,-207.87747 C 282.1282,-223.23786 276.25799,-238.89176 270.93566,-253.17595" />
    <path
       style="fill:#804010;stroke:#000000;stroke-width:0"
       id="path2489"
       d="M 337.11253,-260.92463 C 340.83033,-274.11304 348.65728,-287.8102 358.26486,-306.82969 C 364.31118,-319.11801 372.13813,-332.81517 384.50472,-350.42581 C 385.8353,-352.38255 385.8353,-354.33929 389.16175,-357.5092 C 387.79203,-354.33929 385.8353,-352.38255 385.32654,-349.95619 C 376.05161,-330.85843 368.22466,-315.20453 363.41108,-304.26637 C 354.52749,-285.85347 348.65728,-270.19956 343.10015,-258.40044" />
    <path
       style="fill:#804010;stroke:#000000;stroke-width:0"
       id="path2491"
       d="M 404.79609,-289.04295 C 417.1431,-283.89673 432.797,-278.02652 451.9926,-272.05847 C 464.1048,-266.28609 479.75871,-262.37261 500.16748,-256.32629 C 501.28282,-254.54566 505.1963,-252.58892 509.14891,-253.60643 C 505.1963,-252.58892 501.28282,-254.54566 499.89354,-255.28922 C 479.75871,-258.45914 462.14807,-262.37261 450.2511,-266.4622 C 430.84026,-270.19956 415.18636,-276.06978 402.448,-282.89879" />
    <path
       style="fill:#804010;stroke:#000000;stroke-width:0"
       id="path2493"
       d="M 469.81848,-303.93372 C 481.71544,-311.29106 493.45587,-321.07474 512.71017,-330.64319 C 524.76367,-336.72865 538.46084,-344.5556 558.59567,-352.63692 C 558.02821,-352.38255 559.98495,-352.38255 561.3938,-353.88924 C 559.98495,-352.38255 558.02821,-352.38255 558.71307,-352.38255 C 540.41758,-340.64212 526.72041,-332.81517 515.3322,-326.1427 C 497.36935,-315.20453 485.62892,-305.42084 473.20364,-298.90491" />
    <path
       style="fill:#804010;stroke:#000000;stroke-width:0"
       id="path2495"
       d="M 543.54836,-290.96055 C 554.11474,-279.98325 563.89843,-268.24283 579.12185,-255.50446 C 585.42254,-246.71871 595.20623,-238.89176 606.71185,-229.40158 C 593.24949,-236.93502 583.4658,-244.76197 576.63679,-252.76503 C 559.98495,-264.32935 550.20126,-276.06978 540.04579,-287.53626" />
    <path
       style="fill:#804010;stroke:#000000;stroke-width:0"
       id="path2497"
       d="M 612.38639,-273.0564 C 626.51403,-276.06978 640.2112,-279.98325 661.69618,-283.60322 C 663.69205,-283.89673 667.60553,-283.89673 673.61271,-285.24688 C 667.60553,-283.89673 663.69205,-281.93999 661.91142,-282.46831 C 642.16794,-276.06978 626.51403,-272.1563 613.18865,-269.96476" />
    <path
       style="fill:#804010;stroke:#000000;stroke-width:0"
       id="path2499"
       d="M 688.32738,-269.51471 C 698.91333,-266.28609 710.65375,-264.32935 726.54247,-262.09867 C 710.65375,-262.37261 698.91333,-264.32935 687.99473,-267.67537" />
    <path
       style="fill:#804010;stroke:#000000;stroke-width:0"
       id="path2501"
       d="M 761.97898,-295.67629 C 769.35589,-301.50737 779.13957,-309.33432 790.05817,-317.74829 C 779.13957,-307.37758 771.31262,-299.55063 763.09433,-294.38484" />
    <path
       style="fill:#804010;stroke:#000000;stroke-width:0"
       id="path2503"
       d="M 840.56157,-320.42902 C 847.62539,-319.11801 857.40908,-317.16127 868.17114,-316.76992 C 857.40908,-315.20453 847.62539,-317.16127 840.40503,-319.13757" />
    <path
       style="fill:#804010;stroke:#000000;stroke-width:0"
       id="path2505"
       d="M 925.13177,-312.03462 C 927.85164,-311.29106 933.72185,-309.33432 939.06375,-309.23648 C 933.72185,-309.33432 927.85164,-309.33432 925.03394,-311.42803" />
  </g>
</svg>
