<svg
   xmlns="http://www.w3.org/2000/svg"
   width="829.21875"
   height="207.08464"
   style="display:inline">
  <g transform="translate(97.492621,-864.57937)">
    <path
       d="m -97.260866,946.12088 c 2.687839,-0.32916 10.586491,-1.83666 22.22916,-3.9669 6.175953,-1.13001 14.392935,-2.62168 22.806458,-3.96189 6.685209,-1.06492 15.07136,-2.44021 23.063431,-3.44641 6.920799,-0.87136 15.502224,-2.04068 23.3338565,-2.70225 7.0643305,-0.59674 15.8471045,-1.44315 23.5935865,-1.71586 7.157545,-0.25196 16.123419,-0.63392 23.803706,-0.46593 7.210699,0.15771 16.307706,0.39467 23.913336,1.05331 7.222558,0.62548 16.594711,1.54597 24.088399,2.8059 7.177983,1.20689 16.243203,2.98261 23.592923,4.80196 7.08778,1.75448 16.36176,4.45444 23.47736,6.97705 6.89994,2.44615 15.37509,5.79437 22.25728,8.85367 6.70421,2.9802 15.06993,7.13295 21.62742,10.80619 6.41304,3.59232 13.77129,8.04914 20.08693,12.09954 6.19748,3.97462 13.20363,8.95145 19.24622,13.3793 5.94764,4.35818 12.5186,9.60144 18.30027,14.34884 5.70611,4.6854 10.94628,9.5817 16.80495,14.2181 5.79664,4.5873 8.50683,6.1873 15.41905,9.0002 6.85495,2.7896 11.05884,4.0837 18.40082,5.3742 7.29718,1.2827 12.46989,1.7544 19.91649,1.8004 7.41693,0.046 13.5526,-0.38 20.95722,-1.0954 7.39002,-0.7141 13.70514,-1.8872 21.01181,-3.2453 7.30693,-1.3581 13.8255,-3.0065 21.01775,-4.8488 7.20712,-1.846 13.86508,-3.8269 20.94776,-6.0289 7.11178,-2.2112 13.83782,-4.3959 20.81312,-6.8946 7.01891,-2.5142 13.89389,-4.9717 20.81648,-7.5908 6.98115,-2.6413 13.82568,-5.3008 20.70472,-8.00948 6.95351,-2.73798 13.75827,-5.54584 20.59573,-8.33432 6.92884,-2.82579 13.80071,-5.62003 20.61982,-8.42817 6.92893,-2.85339 13.80202,-5.68412 20.61098,-8.4887 6.93981,-2.85848 13.85496,-5.64401 20.67287,-8.39508 6.97277,-2.81355 13.94816,-5.51845 20.8217,-8.0885 7.05741,-2.63882 14.06328,-5.17635 20.97343,-7.59856 7.12781,-2.49847 14.19929,-4.7801 21.20815,-6.83379 7.26995,-2.13025 14.40307,-3.97028 21.50975,-5.55211 7.42209,-1.65207 14.49942,-2.86282 21.72386,-3.49015 7.61118,-0.66089 14.49269,-0.8013 21.66726,-0.0423 7.6468,0.80892 13.85957,2.85934 20.56771,5.37452 7.26688,2.72471 13.45854,5.46353 19.69129,8.84515 6.92003,3.75458 11.47043,7.24917 16.30537,12.27665 5.59874,5.82173 7.34859,9.38289 8.72903,16.00447 1.74938,8.39076 0.51945,11.68622 -1.76381,17.50317 -5.2525,13.3813 -9.87338,16.3579 -9.87338,16.3579 0,0 4.10176,-3.1499 8.40966,-16.84678 1.87269,-5.95422 2.56507,-7.98922 0.24085,-16.22901 -1.83415,-6.50235 -2.93067,-7.99626 -8.91296,-13.40916 -5.16622,-4.67449 -8.64348,-6.81698 -15.79935,-10.07818 -6.44517,-2.9373 -11.93457,-4.84388 -19.36474,-7.05446 -6.85909,-2.04064 -11.054,-3.20129 -18.73006,-3.47612 -7.20199,-0.25788 -12.13807,0.31588 -19.67645,1.50361 -7.15527,1.12732 -12.62485,2.5332 -19.90574,4.69577 -6.97167,2.07074 -13.12103,4.14559 -20.21716,6.77451 -6.84138,2.53452 -13.01226,5.0288 -19.94099,8.01517 -6.71716,2.89517 -13.21126,5.7802 -20.05992,8.90188 -6.67028,3.04033 -13.01419,6.03107 -19.76621,9.32135 -6.602,3.21716 -13.16945,6.41358 -19.8853,9.74676 -6.58935,3.27035 -13.24069,6.57146 -19.94613,9.89926 -6.59899,3.275 -13.31748,6.5722 -20.02442,9.8728 -6.61859,3.2571 -13.46877,6.6596 -20.20632,9.875 -6.6655,3.181 -13.61034,6.4559 -20.382,9.5773 -6.71508,3.0953 -13.8268,6.2214 -20.64501,9.2193 -6.77592,2.9795 -14.44811,6.0967 -21.38003,8.7997 -6.90359,2.6919 -14.84703,5.661 -21.89954,8.0074 -7.03798,2.3416 -15.47462,5.0598 -22.66081,6.9277 -7.18592,1.8678 -16.27133,4.1099 -23.58555,5.3423 -7.32883,1.2349 -16.98437,2.5281 -24.37902,3.0058 -7.42458,0.4798 -18.74675,0.2922 -26.10972,-0.4703 -7.40829,-0.7672 -19.6154,-3.3903 -26.64453,-5.6853 -7.08787,-2.314 -19.11078,-8.3169 -25.36063,-12.2524 -6.31684,-3.9777 -13.05838,-9.6118 -19.07802,-13.8761 -6.09944,-4.3206 -11.0265,-7.7741 -17.26416,-11.6942 -6.33774,-3.9829 -11.25677,-7.0592 -17.71704,-10.5783 -6.58356,-3.5864 -11.75637,-6.2769 -18.40477,-9.3985 -6.79863,-3.1922 -11.33555,-5.0863 -18.23119,-7.5758 -7.07901,-2.55568 -12.0927,-4.16242 -19.1458,-6.10406 -7.27406,-2.00249 -11.81404,-2.99279 -19.00528,-4.22976 -7.457466,-1.28276 -12.637196,-1.91607 -19.879198,-2.59845 -7.56142,-0.71253 -12.621584,-0.7717 -19.86642,-0.86875 -7.629956,-0.10216 -13.100572,0.2113 -20.299625,0.58294 -7.669416,0.39597 -13.293649,1.12799 -20.409842,1.90833 -7.703707,0.84474 -13.4880741,1.90729 -20.4855345,3.03003 -7.7609799,1.24522 -13.7124855,2.56026 -20.5455345,3.95397 -7.897067,1.61076 -14.022401,3.11669 -20.603077,4.69805 -8.299213,1.9943 -14.608175,3.6512 -20.666305,5.2823 -11.796915,3.1763 -18.825641,5.1835 -21.101157,5.7706 -1.013336,-3.9277 -1.955252,-7.5148 -2.834013,-10.8141 -1.061846,-3.98622 -2.031572,-7.55217 -2.924071,-10.79047 -1.113249,-4.03924 -2.106353,-7.56878 -3.007958,-10.76851 -1.123288,-3.98632 -2.104579,-7.46064 -2.999448,-10.77072 -0.989014,-3.65807 -1.872438,-7.11553 -2.725214,-10.8418 -0.761445,-3.32674 -1.498517,-6.86773 -2.264529,-10.95691 0,0 0,0 0,0"
       id="path3361"
       style="fill:#000000;fill-opacity:1;fill-rule:evenodd;stroke:#000000;stroke-width:0.46351087px;stroke-linecap:butt;stroke-linejoin:miter;stroke-opacity:1" />
    <path
       d="m 127.51053,988.40889 c 0.34045,-0.22463 1.21331,-0.59215 2.53606,-1.07956 0.70168,-0.25856 2.07011,-0.59552 3.00752,-0.9259 0.7448,-0.26248 2.08091,-0.58951 2.95865,-0.89706 0.76011,-0.26633 2.06878,-0.59122 2.91853,-0.8912 0.76651,-0.27062 2.04949,-0.59642 2.88166,-0.89434 0.76888,-0.27525 2.02699,-0.60347 2.84618,-0.90189 0.76907,-0.28025 2.00277,-0.6118 2.81142,-0.91221 0.76789,-0.28531 1.55491,-0.57665 2.35946,-0.87355 0.7706,-0.28436 1.96506,-0.63667 2.76146,-0.93709 0.76801,-0.2897 1.93794,-0.6463 2.72674,-0.9506 0.76488,-0.29509 1.91029,-0.65599 2.69185,-0.96447 0.76135,-0.30049 1.88214,-0.66585 2.6567,-0.97862 0.75745,-0.30585 1.85364,-0.67567 2.62128,-0.99282 0.75328,-0.31121 1.82475,-0.68545 2.58556,-1.00703 0.74881,-0.31653 1.79556,-0.69521 2.54954,-1.02119 0.74414,-0.32177 1.90023,-0.7352 2.64439,-1.06833 0.73629,-0.32967 1.47652,-0.6607 2.21987,-0.99281 0.7372,-0.32936 1.94742,-0.77628 2.67775,-1.11804 0.72587,-0.3397 1.88698,-0.76375 2.6039,-1.11472 0.71405,-0.34956 1.42961,-0.69954 2.14593,-1.04962 0.71489,-0.3494 1.79064,-0.78122 2.49325,-1.14007 0.70264,-0.35888 1.40534,-0.71747 2.10736,-1.07552 0.70348,-0.35879 1.69451,-0.79774 2.38257,-1.16409 0.6909,-0.36782 1.38044,-0.73473 2.06791,-1.10029 0.69177,-0.36784 1.59895,-0.81332 2.2722,-1.18667 0.67895,-0.3765 1.54485,-0.80407 2.20365,-1.18469 0.66593,-0.38471 1.32834,-0.76719 1.98648,-1.14705 0.66696,-0.38488 1.45177,-0.81922 2.09528,-1.20576 0.65388,-0.39276 1.40109,-0.81235 2.02979,-1.20507 0.64079,-0.40025 1.27553,-0.79653 1.90337,-1.18835 0.64211,-0.40069 1.31097,-0.82732 1.9238,-1.22466 0.62924,-0.40798 1.26352,-0.82282 1.86121,-1.22511 0.61649,-0.41502 1.21741,-0.8201 1.79978,-1.2268 0.60409,-0.42183 1.17257,-0.81908 1.73951,-1.22949 0.59211,-0.42863 1.17123,-0.84764 1.73614,-1.25623 0.59515,-0.43041 1.09013,-0.83626 1.63874,-1.24735 0.58477,-0.43806 1.04886,-0.8385 1.58055,-1.25085 0.57595,-0.44669 0.91429,-0.79361 1.41489,-1.20926 0.55578,-0.4615 0.96813,-0.84407 1.44836,-1.25612 0.55609,-0.47712 0.93734,-0.86103 1.39143,-1.2634 0.57548,-0.50981 0.85981,-0.87129 1.26417,-1.24634 0.93016,-0.86278 0.87075,-1.09328 0.87075,-1.09328 0,0 -0.2315,0.0136 -1.69104,0.48191 -0.6345,0.20352 -1.13144,0.32952 -2.00793,0.59669 -0.6917,0.21078 -1.26013,0.3488 -2.08989,0.59224 -0.71657,0.21021 -1.27338,0.3285 -2.08566,0.55732 -0.73161,0.20609 -1.01875,0.20636 -1.82572,0.414 -0.74495,0.19168 -1.24027,0.28504 -2.04247,0.48135 -0.75265,0.18418 -1.2245,0.26402 -2.02381,0.44929 -0.75867,0.17587 -1.53652,0.35624 -2.33197,0.54067 -0.76166,0.17662 -1.2126,0.21491 -2.00697,0.38859 -0.76584,0.16746 -1.18636,0.19511 -1.9798,0.35782 -0.76922,0.15769 -1.15669,0.17721 -1.94916,0.32862 -0.77181,0.14746 -1.12401,0.16163 -1.91528,0.30146 -0.77368,0.13675 -1.55592,0.27504 -2.34573,0.41467 -0.77491,0.13705 -1.08973,0.11425 -1.87819,0.24206 -0.77594,0.12579 -1.05056,0.10308 -1.83718,0.21873 -0.77627,0.1141 -1.55761,0.22899 -2.3432,0.34454 -0.77715,0.11436 -1.00678,0.0585 -1.79006,0.16155 -0.77673,0.1022 -0.96316,0.0534 -1.74355,0.14362 -0.77554,0.0897 -1.55347,0.17961 -2.33299,0.2698 -0.77632,0.0899 -0.91192,0.0133 -1.68788,0.0904 -0.77435,0.0769 -1.54949,0.15391 -2.32462,0.23105 -0.77511,0.0771 -0.85671,-0.0244 -1.62757,0.0392 -0.77237,0.0638 -1.54398,0.12759 -2.31402,0.19134 -0.77315,0.064 -0.79827,-0.0592 -1.56321,-0.009 -0.76968,0.0504 -0.75181,-0.0488 -1.51083,-0.0126 -0.76538,0.0364 -1.52756,0.0728 -2.2857,0.10904 -0.76629,0.0366 -0.90412,-0.0397 -1.65702,-0.0139 -0.7629,0.0261 -1.08953,-0.0213 -1.83828,-0.003 -0.76076,0.0191 -1.07166,-0.0337 -1.81598,-0.022 -0.75851,0.012 -1.05369,-0.0456 -1.79322,-0.0409 -0.75625,0.005 -1.03583,-0.057 -1.77023,-0.0592 -0.75395,-0.002 -1.0181,-0.0677 -1.74698,-0.0769 -0.75172,-0.009 -1.00071,-0.0778 -1.72362,-0.0939 -0.74965,-0.0166 -0.98379,-0.0871 -1.70014,-0.11003 -0.74794,-0.0239 -1.4795,-0.047 -2.19312,-0.0692 -0.75159,-0.0235 -0.95755,-0.11729 -1.66318,-0.14597 -0.75172,-0.0306 -0.94331,-0.12504 -1.63955,-0.1599 -0.75376,-0.0377 -0.93162,-0.13197 -1.6164,-0.17249 -0.75944,-0.0449 -0.92455,-0.13787 -1.59394,-0.18312 -0.77363,-0.0523 -0.92728,-0.14264 -1.57286,-0.19073 -0.81418,-0.0607 -0.9591,-0.14617 -1.5548,-0.19169 -1.15998,-0.0886 -1.89713,-0.13018 -2.1313,-0.11592 -0.83888,2.39624 -1.60747,4.5873 -2.31621,6.60441 -0.85634,2.43715 -1.62533,4.6204 -2.32543,6.60481 -0.87323,2.47528 -1.6393,4.64131 -2.33397,6.60515 -0.86545,2.44661 -1.62011,4.57935 -2.33315,6.60514 -0.78798,2.23871 -1.52517,4.34683 -2.30496,6.60355 -0.6962,2.01479 -1.42631,4.14807 -2.25687,6.59857 0,0 0,0 0,0"
       id="path5057"
       style="fill:#000000;fill-opacity:1;fill-rule:evenodd;stroke:#000000;stroke-width:0.37725076px;stroke-linecap:butt;stroke-linejoin:miter;stroke-opacity:1;display:inline" />
    <path
       d="m 379.35831,910.40437 c -3.22478,1.17057 -8.18247,4.43975 -10.70552,6.81093 -2.53878,2.38598 -5.74821,6.53804 -7.51605,9.55746 -1.78277,3.0448 -3.85727,7.44178 -4.92351,10.79557 -1.07781,3.38994 -2.14357,8.00014 -2.53025,11.50589 -0.39186,3.55255 -0.51053,8.10426 -0.28686,11.62074 0.22729,3.57322 0.88368,7.9691 1.65195,11.39587 0.78307,3.49259 2.17038,7.83251 3.56771,11.02943 1.42906,3.26956 3.48794,7.22046 5.43399,10.08114 1.99814,2.9372 5.44946,6.8596 8.22812,8.8231 2.86621,2.0254 8.96622,4.4228 12.30228,4.1302 3.46026,-0.3036 8.68427,-3.2664 11.31563,-5.4072 2.748,-2.2358 5.25583,-3.7428 8.11966,-5.5031 3.01716,-1.8546 5.88653,-3.30845 8.82854,-4.88456 3.13565,-1.67989 6.50569,-3.44107 9.26815,-5.29296 2.99249,-2.00605 7.79835,-8.60283 7.13889,-11.91969 -0.73216,-3.68268 -4.90052,-8.17217 -7.40572,-10.24406 -2.90092,-2.39909 -5.79615,-4.63356 -8.33834,-6.48487 -3.22144,-2.34596 -6.55679,-4.3152 -9.10314,-5.68429 -5.85752,-3.14936 -10.34537,-4.01184 -10.34537,-4.01185 0,0 4.4069,1.01745 10.12805,4.44003 2.48705,1.48786 5.67205,3.55013 8.79196,6.04641 2.46203,1.96994 5.22268,4.29005 8.01973,6.82465 2.41546,2.18876 5.88576,5.7702 6.45896,9.4865 0.51628,3.34717 -3.50646,7.68086 -6.58495,9.54622 -2.84179,1.72199 -6.08125,3.19349 -9.28874,4.72581 -3.00941,1.43775 -6.10077,2.85533 -9.19738,4.56789 -2.93929,1.62547 -5.90045,3.24777 -8.74455,5.35387 -2.72323,2.0166 -5.91594,3.9963 -9.38839,4.1372 -3.34778,0.1357 -6.71023,-1.4856 -9.38297,-3.7846 -2.59117,-2.2289 -4.82162,-4.848 -6.69186,-7.87844 -1.82151,-2.95151 -3.23744,-6.0991 -4.52425,-9.43503 -1.25824,-3.26189 -2.1379,-6.53991 -2.76908,-10.06843 -0.61925,-3.46192 -0.98143,-6.8049 -1.05338,-10.38764 -0.0708,-3.52598 0.163,-6.81636 0.70923,-10.34915 0.53902,-3.48628 1.43047,-6.56434 2.65545,-9.90217 1.21185,-3.30215 2.70668,-6.00329 4.62146,-8.96269 1.89872,-2.93457 3.71597,-5.15084 6.35779,-7.41571 2.62545,-2.25071 4.73315,-3.59621 8.00776,-4.61328 3.26119,-1.01301 5.67307,-1.35182 9.07814,-1.10219 3.39806,0.24911 6.04901,0.78563 9.29728,1.86676 3.24809,1.08094 5.98296,2.26657 9.06764,3.77335 3.09072,1.50965 5.78084,3.11267 8.72192,4.89744 2.9528,1.79173 5.57621,3.58168 8.39264,5.56589 2.83372,1.99642 5.54718,3.98948 8.31198,6.04467 2.78784,2.07224 5.41021,4.17115 8.12839,6.28578 2.74724,2.13725 5.15411,3.6817 7.59657,6.12799 2.47475,2.47853 3.31981,3.19035 4.42039,6.52448 1.11816,3.38742 0.77068,3.42863 -0.31914,6.7607 -1.11058,3.39569 -2.06075,4.79159 -4.09215,7.59752 -2.07722,2.86899 -3.92592,5.01763 -6.23431,7.57095 -2.36962,2.62121 -4.5943,4.76433 -7.04113,7.16258 -2.52331,2.4732 -4.9213,4.5611 -7.46019,6.83902 -2.63271,2.3623 -5.09754,4.555 -7.67588,6.7671 -2.69181,2.3093 -5.32199,4.5673 -7.89077,6.7697 -2.70502,2.3191 -5.35577,4.5873 -7.91214,6.7774 -1.60001,1.3705 -3.09639,2.6363 -4.63404,3.9455 4.89101,2.5215 10.51674,5.5315 16.22126,8.7121 2.32023,-2.1881 4.69183,-4.4149 7.13911,-6.7233 2.46595,-2.3261 5.00808,-4.7236 7.5927,-7.1618 2.47543,-2.3353 5.09556,-4.8837 7.61907,-7.3711 2.43338,-2.3986 5.19878,-5.0997 7.60833,-7.692 2.33634,-2.5137 5.03101,-5.4411 7.28066,-8.17341 2.19141,-2.66139 4.8718,-6.16583 6.81875,-9.131 1.9039,-2.89966 4.59057,-8.42649 5.54919,-11.87063 0.9406,-3.37976 0.78481,-12.33686 -0.48144,-15.66566 -1.24625,-3.27621 -5.63307,-9.02045 -8.21341,-11.3767 -2.54661,-2.32555 -6.23477,-4.74222 -9.0719,-6.74486 -2.80703,-1.98136 -5.73791,-4.07528 -8.61246,-6.01117 -2.85075,-1.91993 -5.88657,-3.93419 -8.80347,-5.79243 -2.89902,-1.84679 -6.21805,-3.88484 -9.24471,-5.5332 -3.01448,-1.64181 -6.60829,-3.48741 -9.76007,-4.84766 -3.14551,-1.35756 -7.15988,-2.82428 -10.44991,-3.74923 -3.29018,-0.92513 -8.18509,-1.67703 -11.58841,-1.76452 -3.41041,-0.0879 -8.9719,0.90693 -12.18349,2.07274 z"
       id="path8614"
       style="fill:#000000;fill-opacity:1;fill-rule:evenodd;stroke:#000000;stroke-width:0.21551684px;stroke-linecap:butt;stroke-linejoin:miter;stroke-opacity:1" />
    <path
       d="m 500.73231,1002.9245 c 0.0407,-0.2084 0.23223,-0.6687 0.55142,-1.3419 0.16936,-0.3569 0.5695,-0.9939 0.80197,-1.4655 0.18478,-0.37474 0.57629,-0.99594 0.79475,-1.43698 0.18919,-0.38191 0.57075,-0.99206 0.78129,-1.41968 0.18996,-0.38585 0.56099,-0.98653 0.76546,-1.40694 0.18894,-0.38828 0.5491,-0.98044 0.74823,-1.39606 0.18689,-0.39027 0.53604,-0.97433 0.73021,-1.38664 0.18436,-0.3915 0.37368,-0.79248 0.56768,-1.20195 0.1858,-0.3923 0.51074,-0.96886 0.70008,-1.3765 0.18253,-0.39316 0.49595,-0.96203 0.68067,-1.36826 0.17905,-0.39386 0.48103,-0.95499 0.66105,-1.35985 0.17542,-0.3945 0.46583,-0.94783 0.64132,-1.35165 0.17163,-0.3949 0.45045,-0.94052 0.6214,-1.34326 0.16773,-0.39522 0.43495,-0.93303 0.60128,-1.33476 0.16379,-0.39541 0.41933,-0.92547 0.58117,-1.32615 0.15974,-0.39549 0.44396,-0.97932 0.59897,-1.37875 0.15328,-0.39533 0.30756,-0.79264 0.46272,-1.19142 0.15375,-0.39559 0.44547,-1.01164 0.59138,-1.40901 0.14498,-0.39486 0.42679,-0.98432 0.56354,-1.37985 0.13627,-0.3939 0.27289,-0.78857 0.40976,-1.18359 0.13661,-0.39419 0.38142,-0.95409 0.50929,-1.34692 0.12777,-0.39294 0.25575,-0.78582 0.38369,-1.1782 0.12818,-0.39319 0.33655,-0.92357 0.45544,-1.31367 0.11949,-0.39161 0.23871,-0.7824 0.35776,-1.172 0.11976,-0.39196 0.29225,-0.89296 0.40239,-1.27987 0.11114,-0.39015 0.27475,-0.86918 0.37616,-1.25324 0.10249,-0.38818 0.20459,-0.77425 0.30606,-1.15777 0.10286,-0.38858 0.23162,-0.83934 0.32447,-1.21972 0.0944,-0.38645 0.21446,-0.81771 0.29896,-1.19472 0.0861,-0.38414 0.1714,-0.76466 0.25587,-1.14095 0.0865,-0.38485 0.17259,-0.78901 0.24888,-1.16153 0.0783,-0.38261 0.15571,-0.76945 0.22391,-1.13802 0.0703,-0.38025 0.13861,-0.75108 0.19891,-1.11543 0.0626,-0.37787 0.12132,-0.73369 0.17406,-1.09349 0.0549,-0.37582 0.10883,-0.74338 0.16142,-1.10186 0.0555,-0.37752 0.0815,-0.70863 0.12664,-1.06171 0.0482,-0.37643 0.0644,-0.69375 0.10227,-1.04099 0.041,-0.37614 0.0299,-0.62698 0.0542,-0.96358 0.0268,-0.37378 0.03,-0.66528 0.0477,-0.99286 0.0205,-0.37944 0.0108,-0.65967 0.0222,-0.97398 0.0145,-0.39822 -0.0241,-0.63382 -0.0209,-0.9197 0.007,-0.65747 -0.11251,-0.71666 -0.11251,-0.71666 0,0 -0.0858,0.0924 -0.46705,0.81045 -0.16582,0.31211 -0.30958,0.54467 -0.54441,0.97086 -0.1854,0.3363 -0.35242,0.60018 -0.5787,1.00034 -0.19541,0.34553 -0.36607,0.59807 -0.59155,0.98641 -0.20308,0.34973 -0.31647,0.45836 -0.54873,0.83723 -0.21431,0.34978 -0.3711,0.57013 -0.6062,0.94312 -0.22054,0.35 -0.37373,0.55674 -0.61224,0.92473 -0.22644,0.34929 -0.45857,0.70739 -0.6959,1.07365 -0.22726,0.35063 -0.38954,0.53476 -0.63098,0.89676 -0.23271,0.34905 -0.38737,0.51789 -0.63307,0.87568 -0.23815,0.34682 -0.38317,0.50031 -0.63312,0.85373 -0.24344,0.34421 -0.37678,0.48241 -0.6311,0.83128 -0.24869,0.34112 -0.50009,0.686 -0.75401,1.03417 -0.24899,0.3417 -0.38296,0.4527 -0.64122,0.79621 -0.25414,0.33811 -0.37222,0.4339 -0.63483,0.77246 -0.25915,0.33403 -0.51997,0.67031 -0.78223,1.00841 -0.25935,0.33451 -0.37351,0.40157 -0.64002,0.73436 -0.26433,0.33003 -0.3584,0.38325 -0.62919,0.71042 -0.26911,0.3251 -0.53896,0.65126 -0.80941,0.97806 -0.26929,0.3254 -0.3549,0.3496 -0.62938,0.67045 -0.27397,0.32017 -0.5482,0.64068 -0.82234,0.96116 -0.2742,0.32049 -0.34881,0.31539 -0.62692,0.62957 -0.27861,0.31478 -0.55701,0.62922 -0.83469,0.94315 -0.27887,0.31511 -0.34031,0.28097 -0.62173,0.58804 -0.28319,0.30894 -0.31755,0.26705 -0.60243,0.56706 -0.28731,0.3024 -0.57339,0.60352 -0.85794,0.90316 -0.28757,0.30289 -0.37395,0.32795 -0.66076,0.6219 -0.29065,0.29783 -0.43954,0.4046 -0.72764,0.69445 -0.29272,0.29452 -0.43767,0.3934 -0.72697,0.67912 -0.29482,0.29114 -0.43551,0.38239 -0.72586,0.66384 -0.29688,0.28774 -0.43323,0.37158 -0.72439,0.64867 -0.299,0.28437 -0.43072,0.36108 -0.72266,0.63356 -0.30107,0.28097 -0.42802,0.35098 -0.72046,0.61873 -0.30323,0.27771 -0.42525,0.34125 -0.718,0.60413 -0.30556,0.2744 -0.60436,0.54298 -0.89573,0.80509 -0.30691,0.27596 -0.42748,0.32062 -0.71836,0.57745 -0.30992,0.27349 -0.42511,0.31246 -0.71482,0.56345 -0.3137,0.27181 -0.4234,0.30569 -0.71097,0.55036 -0.31897,0.27133 -0.42301,0.30086 -0.70651,0.53806 -0.32762,0.27409 -0.42612,0.30025 -0.70135,0.52739 -0.34718,0.28643 -0.44013,0.31105 -0.69463,0.52023 -0.49554,0.40736 -0.80424,0.67148 -0.8908,0.76516 0.66934,1.16613 1.28081,2.2331 1.84325,3.21578 0.67958,1.18735 1.28758,2.25162 1.83982,3.21949 0.68877,1.20715 1.29078,2.26426 1.83647,3.22273 0.67997,1.19409 1.27256,2.23508 1.83696,3.22246 0.62371,1.09124 1.21292,2.11683 1.84732,3.21128 0.56646,0.97702 1.16895,2.00902 1.86431,3.19132 0,0 0,0 0,0"
       id="path5894"
       style="fill:#000000;fill-opacity:1;fill-rule:evenodd;stroke:#000000;stroke-width:0.43359211px;stroke-linecap:butt;stroke-linejoin:miter;stroke-opacity:1;display:inline" />
    <path
       d="m 294.63556,1062.7829 c 0.13726,-0.243 0.56268,-0.7434 1.23189,-1.4609 0.35499,-0.3806 1.10629,-1.0245 1.58584,-1.5241 0.38101,-0.397 1.11525,-1.0246 1.5649,-1.4913 0.38941,-0.4043 1.10694,-1.0216 1.54147,-1.4748 0.39197,-0.4088 1.09286,-1.0183 1.51695,-1.4646 0.39185,-0.4123 1.07604,-1.0152 1.4917,-1.4575 0.39022,-0.4153 1.05772,-1.0122 1.46597,-1.4522 0.38767,-0.4179 0.78538,-0.8456 1.19226,-1.2822 0.38971,-0.4183 1.02497,-1.0146 1.42544,-1.4506 0.38618,-0.4205 1.00434,-1.0113 1.3986,-1.4472 0.38229,-0.4226 0.98334,-1.008 1.37152,-1.444 0.37814,-0.4247 0.96198,-1.0046 1.34419,-1.4408 0.3738,-0.4266 0.94038,-1.0011 1.31668,-1.4376 0.36924,-0.4284 0.91855,-0.9975 1.28896,-1.4344 0.3645,-0.43 0.89657,-0.9937 1.26104,-1.431 0.35971,-0.4315 0.94904,-1.0512 1.30473,-1.4895 0.35196,-0.4337 0.70589,-0.8695 1.06145,-1.3069 0.35265,-0.4337 0.96458,-1.0907 1.30845,-1.5296 0.34177,-0.4362 0.93052,-1.0638 1.26266,-1.5036 0.33077,-0.4382 0.66235,-0.877 0.99442,-1.3161 0.33137,-0.4383 0.86311,-1.0428 1.18336,-1.4825 0.32023,-0.4399 0.64061,-0.8797 0.96077,-1.3188 0.32081,-0.4401 0.79616,-1.0211 1.10452,-1.4606 0.30964,-0.4413 0.61869,-0.8817 0.92696,-1.3205 0.31015,-0.4417 0.72994,-0.999 1.02638,-1.4378 0.29897,-0.4426 0.69879,-0.976 0.9835,-1.4144 0.2878,-0.4431 0.57414,-0.8837 0.85872,-1.3214 0.28838,-0.4436 0.63429,-0.9545 0.90716,-1.3915 0.27732,-0.4438 0.6045,-0.9339 0.86578,-1.3696 0.26635,-0.444 0.53024,-0.8838 0.79132,-1.3187 0.26701,-0.4447 0.54191,-0.9134 0.79148,-1.3466 0.25629,-0.4448 0.51333,-0.8953 0.75154,-1.3265 0.24569,-0.4448 0.48497,-0.8787 0.71189,-1.3075 0.23539,-0.4448 0.45681,-0.8635 0.67262,-1.2895 0.22538,-0.4448 0.44589,-0.8798 0.66104,-1.304 0.22669,-0.4469 0.39835,-0.8467 0.60226,-1.2671 0.21739,-0.448 0.37132,-0.8346 0.56402,-1.2502 0.20874,-0.4502 0.30157,-0.7644 0.47336,-1.1717 0.19069,-0.4524 0.31802,-0.8116 0.47811,-1.2103 0.18539,-0.4616 0.29247,-0.8114 0.43935,-1.1959 0.1862,-0.4872 0.23957,-0.7923 0.36446,-1.1445 0.28729,-0.8101 0.16827,-0.9263 0.16827,-0.9263 0,0 -0.14237,0.083 -0.9053,0.8343 -0.33168,0.3264 -0.60322,0.5623 -1.06632,1.005 -0.36549,0.3492 -0.67825,0.6156 -1.12,1.029 -0.38151,0.3571 -0.69383,0.608 -1.12963,1.0072 -0.39252,0.3595 -0.57499,0.4532 -1.01487,0.8381 -0.40607,0.3554 -0.68809,0.5717 -1.12894,0.9485 -0.41361,0.3535 -0.68547,0.5541 -1.12837,0.9235 -0.42037,0.3506 -0.85135,0.71 -1.2921,1.0776 -0.42201,0.352 -0.69522,0.5214 -1.13906,0.8823 -0.4279,0.348 -0.68551,0.5013 -1.13263,0.8555 -0.43349,0.3433 -0.67296,0.481 -1.12345,0.8282 -0.43874,0.3382 -0.65768,0.4613 -1.11148,0.8013 -0.4437,0.3324 -0.89231,0.6686 -1.34526,1.008 -0.44438,0.3331 -0.65257,0.4222 -1.10882,0.7543 -0.44901,0.3267 -0.63162,0.4029 -1.09099,0.7272 -0.45334,0.32 -0.90962,0.6421 -1.36836,0.966 -0.45381,0.3204 -0.6195,0.3624 -1.08118,0.6782 -0.45782,0.3131 -0.59355,0.3452 -1.05792,0.6525 -0.46149,0.3054 -0.9244,0.6118 -1.38823,0.9188 -0.46191,0.3057 -0.57509,0.305 -1.04129,0.6031 -0.46523,0.2975 -0.93092,0.5953 -1.39656,0.8932 -0.46564,0.2979 -0.5533,0.2648 -1.02098,0.5534 -0.46858,0.2892 -0.93669,0.5781 -1.40381,0.8665 -0.469,0.2895 -0.52842,0.2253 -0.99712,0.5039 -0.47161,0.2804 -0.4952,0.2163 -0.96504,0.4849 -0.47379,0.2708 -0.94557,0.5405 -1.41482,0.8088 -0.47429,0.2713 -0.58884,0.2713 -1.05844,0.5318 -0.47586,0.2639 -0.70023,0.3425 -1.16967,0.5974 -0.47697,0.2592 -0.69326,0.3294 -1.16235,0.5788 -0.47803,0.2543 -0.68603,0.3166 -1.15454,0.5603 -0.4791,0.2493 -0.67866,0.304 -1.14637,0.5421 -0.48018,0.2443 -0.67117,0.2919 -1.13783,0.524 -0.48128,0.2393 -0.66367,0.2803 -1.12896,0.5065 -0.4825,0.2344 -0.65622,0.2693 -1.11974,0.4892 -0.48395,0.2297 -0.95722,0.4545 -1.41876,0.674 -0.48613,0.2311 -0.65016,0.2431 -1.1089,0.4561 -0.48873,0.227 -0.64383,0.2339 -1.09879,0.4402 -0.49254,0.2235 -0.63884,0.226 -1.08851,0.4254 -0.49868,0.221 -0.63642,0.2202 -1.07797,0.4117 -0.51031,0.2213 -0.63984,0.2183 -1.06725,0.4004 -0.53906,0.2296 -0.66132,0.2266 -1.05611,0.394 -0.76875,0.3258 -1.25208,0.5416 -1.39594,0.6263 0.31125,1.6817 0.59487,3.22 0.85524,4.6365 0.31456,1.7114 0.59519,3.2452 0.84951,4.6397 0.31729,1.7394 0.59367,3.2621 0.84419,4.6426 0.31215,1.7201 0.58405,3.2195 0.84474,4.6425 0.28809,1.5725 0.56244,3.0518 0.86208,4.6323 0.26751,1.4111 0.55525,2.9028 0.89091,4.6137 0,0 0,0 0,0"
       id="path5896"
       style="fill:#000000;fill-opacity:1;fill-rule:evenodd;stroke:#000000;stroke-width:0.26368272px;stroke-linecap:butt;stroke-linejoin:miter;stroke-opacity:1;display:inline" />
    <path
       d="m 269.5,932.0625 c -2.12683,0.0503 -4.82237,0.18959 -6.875,0.4375 -2.11729,0.25572 -4.97167,0.73559 -6.96875,1.25 -2.07143,0.53358 -4.59393,1.2498 -6.53125,1.9375 -2.02323,0.71818 -4.73456,1.98698 -6.53125,2.96875 -1.89288,1.03435 -5.44274,3.84146 -6.625,5.5 -1.26007,1.76773 -2.71615,7.19968 -2.59375,9.21875 0.13259,2.18716 1.06131,5.92074 1.875,7.75 0.90341,2.03104 2.20471,4.56937 3.28125,6.21875 1.24657,1.9098 2.69555,3.9353 3.875,5.4375 1.49461,1.9036 3.03721,3.72058 4.21875,5.03125 2.71797,3.015 4.59375,4.68753 4.59375,4.6875 0,0 -1.68736,-1.81575 -4.09375,-5.09375 -1.04608,-1.4249 -2.42033,-3.3275 -3.71875,-5.375 -1.02461,-1.6158 -2.1996,-3.65859 -3.25,-5.6875 -0.9071,-1.7522 -1.86649,-4.04103 -2.5625,-6.15625 -0.62691,-1.90508 -1.15062,-4.713 -1.0625,-6.90625 0.0813,-2.0246 1.03477,-5.1777 2.46875,-6.8125 1.34544,-1.53382 3.60292,-3.03507 5.59375,-3.875 1.88967,-0.79727 3.97359,-1.55094 6.0625,-2.0625 2.00014,-0.48981 4.13172,-0.89618 6.25,-1.21875 2.0422,-0.31095 4.14532,-0.4592 6.28125,-0.5 2.07069,-0.0396 4.12537,0.0538 6.25,0.21875 2.06929,0.16068 4.0338,0.50357 6.09375,1.03125 2.01422,0.51593 3.83827,1.05097 5.78125,1.90625 1.90633,0.83912 3.45861,1.73118 5.15625,3 1.67073,1.2487 2.77157,2.41672 4.0625,4.09375 1.27387,1.65496 1.87462,2.96154 2.625,4.9375 0.74235,1.95476 1.01372,3.47261 1.3125,5.5625 0.29627,2.07236 0.19821,3.58122 0.0937,5.6875 -0.10379,2.0931 -0.42302,3.76784 -0.78125,5.84375 -0.35679,2.0675 -0.84927,3.72048 -1.40625,5.75 -0.55583,2.0252 -1.05066,3.81918 -1.71875,5.8125 -0.66807,1.9932 -1.31583,3.7871 -2.0625,5.75 -0.74817,1.9667 -1.31945,3.12431 -2.375,4.9375 -1.05977,1.8204 -1.55036,2.58222 -2.96875,4.125 -1.42708,1.5523 -1.98297,2.01718 -3.71875,3.18755 -1.75027,1.18 -2.75006,1.5157 -4.65625,2.375 -1.92656,0.8684 -3.33238,1.242 -5.3125,1.9062 -2.00633,0.6729 -3.67544,1.0438 -5.6875,1.5938 -2.04421,0.5587 -3.94881,0.9919 -5.96875,1.5 -2.05845,0.5176 -4.07542,0.9997 -6.09375,1.5 -2.06381,0.5116 -4.11024,1.0326 -6.125,1.5312 -1.26532,0.3132 -2.50582,0.5987 -3.75,0.9063 l 0,21.5937 c 1.28522,-0.4918 2.54232,-0.9651 3.9375,-1.4687 1.945,-0.7023 3.90528,-1.4024 5.90625,-2.125 1.94913,-0.704 3.94072,-1.4349 5.9375,-2.1563 1.95265,-0.7055 3.94656,-1.4298 5.9375,-2.1562 1.95365,-0.7128 4.15227,-1.4535 6.125,-2.2188 1.94158,-0.7533 4.45153,-1.6881 6.375,-2.5625 1.89832,-0.8629 4.73813,-2.1588 6.5625,-3.2187 1.805,-1.0488 5.00747,-3.0864 6.625,-4.4375 1.60414,-1.3399 4.61624,-4.5002 5.875,-6.1875 1.25104,-1.6773 3.28944,-5.3026 4.15625,-7.2188 0.86334,-1.9084 2.08236,-5.28293 2.625,-7.3125 0.54158,-2.0255 1.1331,-4.42122 1.59375,-6.46875 0.46068,-2.0477 0.90385,-4.58834 1.25,-6.65625 0.34689,-2.0723 0.82431,-4.97291 0.96875,-7.0625 0.14502,-2.0981 0.29671,-5.19176 0.1875,-7.28125 -0.10989,-2.1024 -0.46452,-5.72177 -0.96875,-7.75 -0.50851,-2.04532 -1.68981,-5.66491 -2.625,-7.53125 -0.94528,-1.88648 -3.31741,-5.48519 -4.75,-7 -1.45172,-1.53506 -4.58947,-4.17866 -6.375,-5.25 -1.81434,-1.08865 -5.17815,-2.64033 -7.15625,-3.28125 -2.01609,-0.65322 -5.16621,-1.34702 -7.21875,-1.65625 -2.09917,-0.31625 -5.33482,-0.54897 -7.40625,-0.5 z"
       id="path4936"
       style="fill:#000000;fill-opacity:1;fill-rule:evenodd;stroke:#000000;stroke-width:0.29124096px;stroke-linecap:butt;stroke-linejoin:miter;stroke-opacity:1" />
    <path
       d="m 42.8377,930.30002 c 0.547075,-0.0843 2.054064,-0.4617 4.372533,-1.08724 1.229842,-0.33182 2.8704,-0.75185 4.542399,-1.186 1.328523,-0.34497 2.959703,-0.74163 4.545405,-1.12988 1.373144,-0.33623 2.997815,-0.70423 4.549912,-1.05971 1.400035,-0.32066 3.087673,-0.65487 4.625189,-0.97043 1.420628,-0.29157 3.124438,-0.67597 4.655576,-0.94583 1.437535,-0.25336 2.918724,-0.51519 4.440015,-0.78481 1.444672,-0.25605 3.101722,-0.52998 4.620894,-0.7648 1.455168,-0.22491 3.034632,-0.48158 4.550849,-0.6963 1.462179,-0.20708 2.945186,-0.41597 4.456703,-0.63209 1.465709,-0.20956 2.953511,-0.42267 4.461299,-0.63898 1.4688,-0.21073 2.81049,-0.45046 4.310535,-0.69961 1.46698,-0.24365 2.22568,-0.38488 3.685041,-0.814 1.43209,-0.42108 1.4641,-0.18018 2.75723,-0.99273 1.27278,-0.79982 0.66463,0.13491 1.44707,-1.18718 0.77221,-1.3048 0.59752,-0.74554 0.80182,-2.26646 0.20215,-1.50483 0.28616,-2.15767 0.22322,-3.68612 -0.0624,-1.51582 -0.005,-2.25887 -0.32809,-3.74795 -0.32085,-1.48 -0.4921,-2.1308 -1.0987,-3.52035 -0.60419,-1.38404 -1.08554,-2.31176 -1.84868,-3.61596 -0.76163,-1.30161 -1.42072,-2.18477 -2.32105,-3.39215 -0.900361,-1.20743 -1.632911,-2.12133 -2.648861,-3.22743 -1.01807,-1.10838 -1.96696,-2.09984 -3.028565,-3.15856 -1.06598,-1.06307 -2.02291,-1.93768 -3.16043,-2.90938 -1.144637,-0.97776 -2.23892,-1.87978 -3.407802,-2.80984 -1.178767,-0.93793 -2.274347,-1.75603 -3.498661,-2.60686 -1.237558,-0.86006 -2.433987,-1.66932 -3.68228,-2.48042 -1.264982,-0.82193 -2.465231,-1.56121 -3.758974,-2.29214 -1.314589,-0.74271 -2.596664,-1.44275 -3.910928,-2.13076 -1.339529,-0.70123 -2.640248,-1.31502 -3.996209,-1.90951 -1.386758,-0.608 -2.721791,-1.19183 -4.119074,-1.67223 -1.434652,-0.49326 -2.824072,-1.00819 -4.2617,-1.3363 -1.482894,-0.33846 -2.958003,-0.66357 -4.423729,-0.80136 -1.520336,-0.14289 -3.200299,-0.13598 -4.608234,0.30717 -1.470418,0.46284 -2.934951,1.86144 -3.701259,3.13809 -0.807332,1.34501 -1.402592,3.01243 -1.839338,4.42941 -0.465475,1.51024 -0.734208,3.27311 -0.885235,4.73622 -0.163622,1.58496 -0.152959,3.37407 -0.06396,4.82437 0.09878,1.61022 0.370397,3.39728 0.668662,4.79151 0.345384,1.6145 0.915663,3.38395 1.408842,4.67115 0.624976,1.63111 1.703077,3.48105 2.43613,4.5144 1.686299,2.37708 4.772915,3.71904 4.772915,3.71904 0,0 -3.219018,-1.22861 -5.146316,-3.39952 -0.837822,-0.94371 -2.146511,-2.85304 -2.940415,-4.40083 -0.626512,-1.22142 -1.414716,-3.10716 -1.929205,-4.66903 -0.444308,-1.3488 -0.92757,-3.35265 -1.19672,-4.9373 -0.242424,-1.42728 -0.433291,-3.57431 -0.439154,-5.16272 -0.0054,-1.46634 0.173391,-3.78628 0.475279,-5.33387 0.283237,-1.452 0.997556,-3.9172 1.656559,-5.33865 0.625518,-1.34921 3.936328,-4.64471 5.347983,-5.26507 1.351716,-0.59402 4.59936,-1.05109 6.125174,-1.07689 1.471029,-0.0249 3.550758,0.18622 5.060235,0.35818 1.463386,0.16671 3.409327,0.62698 4.887411,0.9575 1.439586,0.32193 3.252552,0.8787 4.695329,1.32809 1.410725,0.43943 3.154381,1.04821 4.560245,1.59504 1.379374,0.53654 2.91673,1.16922 4.302337,1.75982 1.363619,0.58121 3.02031,1.36615 4.365145,2.04056 1.327109,0.66555 2.804868,1.44327 4.126624,2.15836 1.307625,0.70746 2.923112,1.65824 4.194876,2.45687 1.26114,0.79196 2.68847,1.72524 3.930695,2.567 1.23455,0.83654 2.83051,2.00618 4.003888,2.94105 1.16858,0.93106 2.53335,2.07201 3.66413,3.05699 1.12844,0.98292 2.68242,2.51143 3.70705,3.60747 1.0246,1.09599 2.34825,2.63433 3.28573,3.80663 0.93936,1.17463 2.3342,3.35492 3.08396,4.65867 0.75281,1.30902 1.94372,4.03387 2.4226,5.46428 0.48183,1.43922 1.00723,4.22121 1.23346,5.71596 0.22815,1.50721 0.3685,4.40412 0.331,5.91759 -0.0379,1.52969 -1.09736,6.20226 -1.72269,7.58162 -0.63359,1.39763 -4.10101,5.57326 -5.27831,6.5088 -1.19618,0.95054 -4.54435,2.70306 -5.92105,3.28172 -1.40298,0.58971 -3.51034,1.28503 -4.92677,1.74256 -1.448468,0.46785 -3.370218,0.97185 -4.806188,1.3471 -1.474155,0.38523 -2.928755,0.76524 -4.361668,1.13954 -1.477818,0.38598 -2.939805,0.76512 -4.369395,1.13711 -1.48251,0.38576 -2.815165,0.7618 -4.235635,1.15137 -1.483119,0.40673 -2.728268,0.75613 -4.134681,1.17613 -1.481178,0.44235 -2.923162,0.87281 -4.322498,1.29034 -1.49076,0.44482 -2.647735,0.85987 -4.025634,1.31456 -1.491665,0.49223 -2.701595,0.86609 -4.055197,1.34887 -1.501288,0.53542 -2.761272,0.97201 -4.085544,1.46938 -1.530483,0.57483 -2.776645,1.03086 -4.053951,1.53526 -1.610869,0.63613 -2.84765,1.10959 -4.024412,1.5961 -2.291501,0.94737 -3.740295,1.53798 -4.186748,1.70438 -0.425651,-1.21616 -0.817857,-2.32701 -1.1812,-3.34879 -0.439018,-1.23452 -0.835916,-2.33899 -1.198838,-3.34208 -0.452692,-1.25118 -0.85254,-2.3446 -1.215286,-3.33586 -0.451945,-1.23493 -0.846311,-2.31128 -1.213621,-3.33647 -0.405936,-1.13299 -0.778826,-2.20352 -1.159831,-3.35665 -0.34017,-1.02949 -0.686818,-2.12481 -1.06923,-3.38916 0,0 0,0 0,0"
       id="path6837"
       style="fill:#000000;fill-opacity:1;fill-rule:evenodd;stroke:#000000;stroke-width:0.22548652px;stroke-linecap:butt;stroke-linejoin:miter;stroke-opacity:1" />
    <path
       d="m 51.574442,1056.1501 c -1.804909,-1.1262 -4.054098,-2.6183 -5.694594,-3.8767 -1.692178,-1.298 -3.904628,-3.1642 -5.361635,-4.6237 -1.511224,-1.5139 -3.317672,-3.4146 -4.635014,-4.9928 -1.375808,-1.6481 -3.0635,-4.1206 -4.110072,-5.8803 -1.102585,-1.854 -2.72884,-6.0773 -2.902058,-8.1067 -0.184594,-2.163 1.327631,-7.5796 2.460922,-9.2551 1.227591,-1.815 3.92775,-4.5557 5.559407,-5.7159 1.811566,-1.2882 4.223868,-2.8104 5.990172,-3.682 2.045221,-1.0091 4.32356,-2.0147 6.103499,-2.7072 2.255553,-0.8775 4.508322,-1.6561 6.192565,-2.1827 3.874325,-1.2113 6.340297,-1.6958 6.340297,-1.6958 0,0 -2.376754,0.7038 -6.116797,2.3001 -1.625792,0.6938 -3.777242,1.6318 -5.937194,2.733 -1.704502,0.8691 -3.755825,2.0291 -5.692837,3.2407 -1.672803,1.0463 -3.6638,2.5278 -5.339723,3.994 -1.509485,1.3206 -3.389769,3.4707 -4.430552,5.4034 -0.960731,1.7839 -1.745381,4.9832 -1.343442,7.1204 0.377154,2.0051 1.555848,4.4465 2.84176,6.183 1.220531,1.6483 2.630502,3.3579 4.167972,4.8617 1.472164,1.4398 3.099918,2.8748 4.75894,4.2308 1.599394,1.3074 3.334104,2.5057 5.151733,3.6282 1.762087,1.0883 3.578055,2.0541 5.490732,2.9937 1.862853,0.9152 3.728285,1.6202 5.769945,2.2148 1.996293,0.5814 3.83863,1.0495 5.946398,1.3026 2.067976,0.2483 3.858203,0.2707 5.965322,0.043 2.073725,-0.2241 3.61586,-0.669 5.580788,-1.4552 1.938946,-0.7759 3.121214,-1.5946 4.773066,-2.9134 1.634097,-1.3044 2.640441,-2.4727 3.961587,-4.1194 1.310026,-1.6328 1.993819,-2.9814 2.976245,-4.8475 0.976283,-1.8544 1.554124,-3.4583 2.302653,-5.4275 0.745492,-1.9611 1.163169,-3.6346 1.717011,-5.6649 0.552642,-2.0261 1.040081,-3.8221 1.47986,-5.8779 0.439749,-2.0557 0.79551,-3.9295 1.152178,-5.9991 0.357312,-2.0736 0.454954,-3.3608 0.469555,-5.4588 0.01464,-2.1064 -0.01977,-3.0118 -0.455133,-5.0618 -0.438002,-2.0626 -0.679774,-2.7458 -1.577903,-4.6369 -0.905714,-1.9066 -1.595328,-2.70456 -2.798514,-4.41462 -1.216085,-1.72826 -2.235875,-2.76553 -3.602015,-4.34531 -1.384274,-1.6006 -2.632053,-2.76959 -4.083828,-4.26734 -1.475018,-1.5216 -2.893766,-2.8641 -4.373655,-4.32979 -1.508199,-1.49348 -2.998769,-2.93528 -4.481243,-4.39343 -1.515867,-1.49104 -3.011988,-2.98132 -4.492256,-4.4362 -0.929611,-0.91376 -1.851962,-1.79104 -2.766229,-2.68921 l 10.993513,-18.58572 c 0.855813,1.07761 1.696841,2.12498 2.641289,3.26873 1.316519,1.59469 2.64733,3.19523 4.001688,4.83588 1.319209,1.59825 2.661268,3.24128 4.012631,4.87876 1.321474,1.60134 2.66889,3.23986 4.012681,4.87868 1.318619,1.60813 2.83388,3.36499 4.14219,5.02802 1.28761,1.63684 2.972023,3.71926 4.182393,5.45111 1.19458,1.70915 2.97905,4.27031 4.00969,6.11137 1.01961,1.82164 2.73863,5.20581 3.44298,7.19221 0.69853,1.96993 1.68212,6.22346 1.90652,8.31656 0.22284,2.0806 0.13163,6.2386 -0.0979,8.3292 -0.2285,2.0821 -0.89733,5.6073 -1.46352,7.6303 -0.56505,2.0191 -1.27565,4.3823 -1.92157,6.3791 -0.64599,1.997 -1.558,4.4093 -2.31285,6.3654 -0.75646,1.9603 -1.82231,4.7 -2.76177,6.5719 -0.94334,1.8797 -2.38781,4.6197 -3.545593,6.3625 -1.16493,1.7536 -3.312832,4.6883 -4.779397,6.1773 -1.478955,1.5015 -4.338472,4.0155 -6.093541,5.1457 -1.774038,1.1424 -5.647864,3.0322 -7.652095,3.6066 -2.031032,0.5822 -6.07758,1.2601 -8.159797,1.2732 -2.115869,0.013 -5.801092,-0.3637 -7.829935,-0.8191 -2.067803,-0.4642 -5.132339,-1.4708 -7.056432,-2.2496 -1.967741,-0.7965 -4.871142,-2.2435 -6.629128,-3.3402 z"
       id="path6143"
       style="fill:#000000;fill-opacity:1;fill-rule:evenodd;stroke:#000000;stroke-width:0.29124096px;stroke-linecap:butt;stroke-linejoin:miter;stroke-opacity:1;display:inline" />
  </g>
</svg>
