<?xml version="1.0" encoding="UTF-8" standalone="no"?>
<svg
   xmlns="http://www.w3.org/2000/svg"
   width="210mm"
   height="297mm"
   viewBox="0 0 210 297"
   version="1.1"
   id="svg8">
    <g>
      <path
         d="m 66.813786,48.587821 c -0.06772,1.308555 -0.236307,2.589347 -0.616106,3.844187 -0.36414,1.364009 -0.889899,2.674461 -1.468887,3.95919 -0.598006,1.161246 -1.153536,2.335234 -1.607434,3.560421 -0.446061,1.194467 -0.789887,2.422202 -1.229717,3.619159 -0.619831,1.573805 -1.244854,3.138842 -1.973188,4.666144 -0.728411,1.722239 -1.26446,3.520882 -1.825218,5.303485 -0.638995,1.941121 -1.191485,3.849653 -1.524778,5.868183 -0.273825,2.055376 -0.354893,4.134374 -0.317886,6.206144 0.0209,1.924783 0.412806,3.817493 0.882224,5.675889 0.415507,1.50205 0.849492,3.003 1.331735,4.485457 0.596985,1.548951 1.573702,2.876976 2.743785,4.036095 1.134951,1.114775 2.58957,1.780025 3.916566,2.621775 0.992841,0.53029 1.994784,1.03829 3.035163,1.46782 0,0 -3.231119,2.15441 -3.231119,2.15441 v 0 c -1.045437,-0.45832 -2.07151,-0.9591 -3.067354,-1.5182 -1.366107,-0.83265 -2.819088,-1.55172 -3.964403,-2.69634 -1.203105,-1.21002 -2.200597,-2.597248 -2.839987,-4.190743 -0.495033,-1.488771 -0.918427,-3.003923 -1.336048,-4.515726 -0.463439,-1.887942 -0.880306,-3.806055 -0.911844,-5.758159 -0.04799,-2.093095 0.04505,-4.191468 0.29174,-6.271077 0.117097,-0.740825 0.204118,-1.371351 0.371422,-2.104221 0.294722,-1.291034 0.766049,-2.538584 1.125175,-3.811592 0.55757,-1.795945 1.100045,-3.601294 1.792166,-5.349751 0.100492,-0.208272 0.683726,-1.412431 0.776719,-1.623565 0.434202,-0.985835 0.737137,-2.023468 1.191707,-3.000778 0.445019,-1.192289 0.790334,-2.413621 1.221893,-3.609795 0.425196,-1.247997 0.990455,-2.433256 1.608672,-3.597076 0.578816,-1.270881 1.13157,-2.559942 1.483255,-3.915495 0.407175,-1.217136 0.607078,-2.465789 0.625877,-3.751082 0,0 3.51587,-1.754759 3.51587,-1.754759 z"
         id="path4518"
         style="fill:#000000;fill-opacity:1;stroke-width:0.26458332" />
      <path
         d="m 44.517902,46.102341 c 0.611881,0.914207 1.219547,1.855422 1.961909,2.672559 0.485638,0.534553 0.998982,0.975503 1.533131,1.458899 0.283324,0.218853 0.56646,0.437946 0.849969,0.656558 0.636286,0.490641 1.01614,0.811125 1.700096,1.224746 0.846452,0.511889 1.748001,0.944859 2.647114,1.353272 1.640004,0.831821 3.417937,1.306044 5.15825,1.870768 1.360331,0.480105 2.508343,1.304806 3.421039,2.413934 0.675182,0.886675 0.751731,1.964965 0.812027,3.036152 0.07934,0.954302 -0.117419,1.839167 -0.577387,2.669786 -0.808834,1.125823 -1.864849,2.045296 -2.979565,2.856233 -1.274345,0.86061 -2.50543,1.783818 -3.733671,2.708537 -1.86532,1.452747 -10.21244,6.02235 -3.109793,1.998871 -2.020538,1.272725 -4.069194,2.517307 -6.239237,3.517633 -1.386266,0.841298 -0.574136,0.343636 2.48449,-1.411491 0,0 -3.652716,1.411986 -3.652716,1.411986 v 0 c 3.930735,-2.287455 2.49454,-1.520383 4.232093,-2.439027 0.385169,-0.184373 0.546261,-0.256551 0.924681,-0.457669 0.165148,-0.08777 0.652868,-0.365127 0.491488,-0.270607 -5.364845,3.142212 -3.046794,1.781942 -1.879116,1.069969 7.257312,-4.285348 3.340394,-1.961332 1.060569,-0.650338 -0.172826,0.09938 0.340296,-0.207793 0.510087,-0.312269 0.75896,-0.467003 0.243616,-0.143774 1.020295,-0.662382 0.177538,-0.118546 0.356751,-0.234563 0.535125,-0.351845 1.225454,-0.93758 2.468591,-1.855314 3.740644,-2.728204 1.127289,-0.752197 2.139162,-1.654492 3.011078,-2.695225 0.50396,-0.739593 0.74476,-1.558288 0.683569,-2.460451 -0.04188,-0.986377 -0.07746,-1.993228 -0.687797,-2.818902 -0.870844,-1.05468 -1.978655,-1.800998 -3.276034,-2.244148 -1.750295,-0.566971 -3.5267,-1.073304 -5.172083,-1.916515 -1.938427,-0.90446 -3.632226,-1.930281 -5.256273,-3.337653 -0.503428,-0.461541 -1.109869,-0.997809 -1.571281,-1.501505 -0.761185,-0.830939 -1.377402,-1.791007 -2.039591,-2.698451 0,0 3.39689,-1.963221 3.39689,-1.963221 z"
         id="path4520"
         style="fill:#000000;fill-opacity:1;stroke-width:0.26458332" />
      <path
         d="m 55.798034,80.61612 c 0.361712,1.313831 0.569878,2.653289 0.673928,4.009826 0.03246,1.126427 -0.0287,1.927477 -0.686874,2.8701 -0.322837,0.428257 -0.692682,0.821655 -1.162159,1.090654 -3.690238,2.114418 -2.371497,1.657377 -4.058443,2.209774 -0.8513,0.429051 -1.735495,0.778002 -2.600373,1.183907 -1.10481,0.375936 -2.238576,0.679408 -3.382269,0.917678 -0.981059,0.197962 -1.916173,0.55593 -2.891443,0.776275 -1.073873,0.218725 -2.144589,0.445659 -3.209944,0.704477 -1.131739,0.229261 -2.290646,0.265056 -3.441515,0.294097 -0.785444,0.04186 -1.57853,-0.03888 -2.361239,0.05799 -0.113491,0.01405 -0.882237,0.160467 -1.000392,0.182698 -0.663996,0.214915 -1.38031,0.245221 -2.045735,0.448757 -0.13939,0.04264 -0.752136,0.313666 -0.897604,0.376999 -0.375658,0.191916 -0.788731,0.301072 -1.174028,0.466022 -0.13049,0.05587 -0.500851,0.267239 -0.377812,0.196463 3.236881,-1.861963 3.930777,-2.429015 2.741494,-1.496208 -0.633185,0.545018 -0.894387,1.248431 -1.006893,2.052 -0.184372,1.221565 -0.101489,2.431108 0.07869,3.645541 0.333597,1.11418 0.752586,2.26309 1.457232,3.2004 0.582591,0.85708 1.371523,1.45907 2.293821,1.90378 0.824301,0.44151 1.734026,0.6804 2.634202,0.91266 0,0 -3.223165,2.21511 -3.223165,2.21511 v 0 c -0.918728,-0.25564 -1.841357,-0.5195 -2.684573,-0.97647 -0.951923,-0.50511 -1.775098,-1.16236 -2.389791,-2.06108 -0.717938,-1.00755 -1.177976,-2.19415 -1.530755,-3.37289 -0.199526,-1.23636 -0.319364,-2.469587 -0.150141,-3.718978 0.05029,-0.8509 0.263421,-1.684017 0.888393,-2.302126 1.38399,-1.622679 3.605109,-2.267212 5.523076,-3.09018 0.965843,-0.371417 1.982644,-0.54051 2.991681,-0.757058 1.123637,-0.185325 2.250601,-0.183642 3.387404,-0.189709 1.140011,-0.04148 2.287445,-0.09323 3.400793,-0.363733 1.067075,-0.253304 2.144578,-0.455901 3.211954,-0.707149 0.965738,-0.250828 1.91093,-0.578424 2.893135,-0.765122 1.126947,-0.252286 2.255863,-0.544074 3.32564,-0.982388 0.876107,-0.397269 1.754777,-0.790352 2.63561,-1.175856 1.410941,-0.606406 0.303263,-0.146023 -2.702515,1.627939 -0.110646,0.0653 0.229134,-0.116623 0.340018,-0.18152 0.224298,-0.131278 0.430737,-0.269674 0.613397,-0.457433 0.09757,-0.100295 0.17694,-0.216818 0.265412,-0.325228 0.792805,-0.846317 0.806627,-1.489742 0.825201,-2.611737 -0.08145,-1.339593 -0.243671,-2.671492 -0.659596,-3.954356 0,0 3.456178,-1.853922 3.456178,-1.853922 z"
         id="path4522"
         style="fill:#000000;fill-opacity:1;stroke-width:0.26458332" />
      <path
         d="m 62.161843,88.931347 c 2.04883,0.926965 4.244194,1.499071 6.419947,2.045573 1.998052,0.477623 4.01651,0.872 6.008944,1.372896 0.877748,0.277022 1.793926,0.400119 2.682135,0.631375 0.282188,0.07347 1.002612,0.316768 1.294677,0.413531 1.356239,0.464629 2.728333,0.881353 4.09429,1.317974 1.59966,0.513803 3.181085,1.070113 4.71271,1.761464 0.701972,0.438703 1.459582,0.818941 2.118733,1.324358 0.311584,0.238914 0.592828,0.515327 0.899523,0.76049 1.217303,0.970576 2.012484,2.273842 2.707087,3.640962 0.714777,1.58691 1.026911,3.30364 1.17389,5.02641 0.109831,1.53599 0.07772,3.07697 0.07598,4.61553 -0.02935,1.84753 -0.560885,3.52787 -1.301893,5.19861 -0.719642,1.51015 -1.726115,2.76678 -2.828909,4.00569 -1.034573,1.24533 -2.281443,2.27909 -3.466398,3.37329 -1.301941,1.04597 -2.471092,2.2382 -3.719214,3.34488 -0.911497,0.90397 -1.915803,1.70212 -2.748669,2.68137 -0.68784,0.80189 -1.464527,1.53001 -2.233133,2.25534 -0.794618,0.64784 -1.194726,1.47643 -1.506948,2.42979 -0.385344,1.27803 -0.705138,2.57541 -0.818848,3.90713 0.01754,1.25324 -0.16205,2.49324 -0.280837,3.73739 -0.106381,0.75242 -0.09631,1.48355 0.03834,2.22812 0,0 -3.452079,1.84265 -3.452079,1.84265 v 0 c -0.159004,-0.77851 -0.199792,-1.53871 -0.08466,-2.33029 0.12024,-1.2419 0.319259,-2.47988 0.28952,-3.73093 0.07848,-1.35784 0.410909,-2.67728 0.775869,-3.98416 0.186156,-0.65355 0.371669,-1.40217 0.788723,-1.95822 0.181602,-0.24212 0.463251,-0.39783 0.623552,-0.66001 0.399044,-0.34651 0.74204,-0.73023 1.121513,-1.09539 0.33052,-0.31806 0.50143,-0.40124 0.817875,-0.73121 0.114511,-0.1194 0.211918,-0.25411 0.317875,-0.38116 0.23557,-0.28334 0.447294,-0.58782 0.703213,-0.85292 0.644911,-0.66807 1.450879,-1.17738 2.050473,-1.89427 1.257768,-1.09434 2.408539,-2.3027 3.71983,-3.33488 0.38436,-0.35428 0.755787,-0.72268 1.146654,-1.06977 0.812022,-0.72107 1.656606,-1.40916 2.334966,-2.26765 0.34748,-0.39335 0.717701,-0.76645 1.059611,-1.16464 0.713179,-0.83058 1.279388,-1.79661 1.825459,-2.73927 0.7757,-1.66029 1.306168,-3.1917 1.367033,-5.04721 0.0069,-1.52802 0.01318,-3.05766 -0.06494,-4.58412 -0.132583,-1.67661 -0.386763,-3.3549 -1.090997,-4.89915 -0.676698,-1.31877 -1.459261,-2.56456 -2.650982,-3.48399 -0.294867,-0.23989 -0.572264,-0.50174 -0.877308,-0.728542 -0.650147,-0.483397 -1.374923,-0.873109 -2.071708,-1.28188 -1.520423,-0.679225 -3.0904,-1.229863 -4.678365,-1.730298 -1.374101,-0.429633 -2.755575,-0.837332 -4.116002,-1.309013 -1.296381,-0.425445 -2.635792,-0.661466 -3.948485,-1.030092 -1.980689,-0.497046 -3.977637,-0.928806 -5.963359,-1.405003 -2.206353,-0.560914 -4.414766,-1.158957 -6.51809,-2.041165 0,0 3.253394,-2.17959 3.253394,-2.17959 z"
         id="path4524"
         style="fill:#000000;fill-opacity:1;stroke-width:0.26458332" />
      <path
         d="m 60.153404,120.06877 c -1.356109,0.8124 -2.675837,1.66487 -3.846338,2.73056 -1.379815,1.38313 -2.485671,3.00929 -3.62286,4.59034 -1.149088,1.45369 -2.124094,3.03365 -3.117398,4.595 -0.970613,1.41977 -1.760394,2.9419 -2.506448,4.48718 -0.662773,1.50616 -1.385358,2.98409 -1.995141,4.513 -0.646181,1.53448 -0.544941,3.13813 -0.345228,4.74955 0.314912,1.97605 1.135909,3.69516 2.307188,5.29547 1.662197,2.07549 3.684751,3.80339 5.702554,5.51741 2.302655,1.89039 4.678587,3.69139 6.918362,5.65701 0.858086,0.78465 1.690343,1.61949 2.252191,2.64895 0.283842,0.52008 0.347565,0.75094 0.557123,1.30904 0.447354,1.48195 0.501067,3.03596 0.505478,4.57223 0.06966,1.69382 -0.234066,3.32928 -0.720436,4.94083 -0.518541,1.54669 -1.300774,2.98694 -2.079139,4.41471 -0.164549,0.28923 -0.328935,0.57856 -0.493649,0.86769 -0.530034,0.93042 -0.598479,0.99854 -1.053547,2.01502 -0.577754,1.29052 -1.014608,2.631 -1.468673,3.968 -0.586242,2.09628 -1.199605,4.25371 -1.226539,6.44896 -0.0039,0.31374 0.02344,0.62708 0.03518,0.94062 0.149786,1.41798 0.536067,2.78719 1.20392,4.04484 0.252653,0.48754 0.15121,0.26241 0.317696,0.66919 0,0 -3.448611,1.90824 -3.448611,1.90824 v 0 c -0.110585,-0.376 -0.03296,-0.16055 -0.264882,-0.63388 -0.690737,-1.31449 -1.065713,-2.74486 -1.249019,-4.2179 -0.01373,-0.32636 -0.04428,-0.65245 -0.04116,-0.97909 0.0213,-2.23094 0.651827,-4.42092 1.216318,-6.55918 0.798127,-2.372 1.56155,-4.77058 2.935174,-6.88781 0.775031,-1.40865 1.543354,-2.83212 2.105708,-4.34144 0.501732,-1.57309 0.842819,-3.17397 0.776202,-4.83786 0.0021,-1.49182 -0.05928,-2.99392 -0.45512,-4.44157 -0.195403,-0.52318 -0.262456,-0.75675 -0.522467,-1.24606 -0.53113,-0.99952 -1.332693,-1.80395 -2.146554,-2.57561 -2.216058,-1.98188 -4.578162,-3.7895 -6.877267,-5.67269 -2.04928,-1.73215 -4.120441,-3.45884 -5.812052,-5.55833 -1.205698,-1.6703 -2.037008,-3.42032 -2.399088,-5.46483 -0.229643,-1.65366 -0.386485,-3.32064 0.235982,-4.91503 0.60298,-1.54193 1.349071,-3.0174 1.991307,-4.54272 0.750901,-1.55628 1.514059,-3.10896 2.502209,-4.53342 0.984957,-1.57361 1.958671,-3.16704 3.116392,-4.62045 1.142098,-1.58272 2.239013,-3.21359 3.56733,-4.6487 0.368051,-0.35364 0.743804,-0.73284 1.147736,-1.04688 0.83394,-0.64834 1.770592,-1.15389 2.642888,-1.74572 0,0 3.654677,-1.41467 3.654677,-1.41467 z"
         id="path4526"
         style="fill:#000000;fill-opacity:1;stroke-width:0.26458332" />
      <path
         d="m 100.0363,70.547936 c 3.43437,0.878559 6.96112,1.273339 10.48317,1.594828 4.83541,0.332994 9.68388,0.450033 14.52845,0.576803 2.79842,0.0264 5.599,0.03858 8.39002,-0.194559 1.79646,-0.150064 2.06817,-0.210248 3.85091,-0.452125 3.69883,-0.452522 7.34822,-1.208191 11.02142,-1.821035 2.37629,-0.405095 4.77614,-0.676545 7.13845,-1.162743 0.83224,-0.171289 2.5666,-0.591661 3.40082,-0.790649 1.89069,-0.58094 3.84085,-1.074124 5.61746,-1.966873 0.35137,-0.176564 1.37316,-0.767167 1.02795,-0.578847 -0.80027,0.436562 -1.59544,0.882398 -2.39317,1.323599 1.3602,-0.801039 2.4914,-1.881238 3.56066,-3.026788 0.78852,-0.854843 1.45603,-1.78629 2.08478,-2.760991 0.35102,-0.526793 0.18023,-0.268155 0.51263,-0.77574 0,0 3.59112,-1.577729 3.59112,-1.577729 v 0 c -0.32874,0.517422 -0.15688,0.258541 -0.51647,0.776058 -0.18575,0.292065 -0.38752,0.573738 -0.57299,0.865978 -0.11003,0.173374 -0.19618,0.36177 -0.31364,0.530202 -0.33771,0.484282 -0.43814,0.495948 -0.81092,0.940054 -0.13236,0.157678 -0.25046,0.326792 -0.37569,0.490188 -1.04725,1.195625 -2.20154,2.304634 -3.56482,3.13804 -1.73562,1.029827 -3.41079,2.179558 -5.23808,3.03625 -1.79241,0.840332 -3.73017,1.336389 -5.6234,1.885622 -1.08386,0.254069 -2.31302,0.551622 -3.40375,0.768813 -2.36682,0.471289 -4.76633,0.750385 -7.1438,1.159354 -3.6703,0.616603 -7.32072,1.358095 -11.01834,1.802577 -4.0922,0.528711 -8.11664,0.723159 -12.24414,0.57514 -4.84751,-0.136702 -9.69879,-0.261336 -14.53706,-0.599731 -3.57575,-0.323765 -7.1434,-0.751895 -10.656451,-1.511678 0,0 3.204881,-2.244018 3.204881,-2.244018 z"
         id="path4528"
         style="fill:#000000;fill-opacity:1;stroke-width:0.26458332" />
      <path
         d="m 125.45069,86.51637 c 1.10819,1.689145 2.35808,3.28776 3.61067,4.872398 1.44189,2.089229 2.90596,4.176717 4.15453,6.390753 0.28263,0.501177 0.53727,1.017627 0.80591,1.52644 1.71191,2.967789 2.68029,6.252999 3.81563,9.461379 0.55002,1.71684 1.35997,3.33114 2.02383,5.00171 0.36303,0.91352 0.49701,1.41063 0.78924,2.35235 0.49482,1.64201 0.69519,3.3669 0.65673,5.08055 -0.0284,1.2637 -0.14716,1.87949 -0.31526,3.15313 -0.64969,3.86184 -1.99922,7.55517 -3.46675,11.17043 -1.09597,2.57195 -2.23577,5.13397 -3.5427,7.60725 -0.83296,1.57633 -1.41715,2.56761 -2.3039,4.11832 -2.31527,3.73487 -4.42943,7.58456 -6.56026,11.42525 -1.16011,1.99331 -2.20991,4.04312 -3.13117,6.15657 -0.17323,0.5417 -0.40584,1.04941 -0.6825,1.54383 0,0 -3.58476,1.58149 -3.58476,1.58149 v 0 c 0.32426,-0.46655 0.58351,-0.94548 0.72949,-1.50234 0.93754,-2.14883 2.03063,-4.22136 3.2238,-6.23985 2.16045,-3.84011 4.27498,-7.70658 6.60426,-11.44923 2.16557,-3.77557 4.19789,-7.62657 5.83377,-11.66608 1.48285,-3.57399 2.80973,-7.24129 3.47451,-11.06584 0.15229,-1.16167 0.28635,-1.92786 0.31482,-3.08701 0.0412,-1.67799 -0.14394,-3.36988 -0.61753,-4.98101 -0.31148,-1.00375 -0.396,-1.34082 -0.77644,-2.31384 -0.65861,-1.68444 -1.44634,-3.31906 -1.99555,-5.0469 -1.11225,-3.19751 -2.08283,-6.46151 -3.78003,-9.41627 -0.26642,-0.50169 -0.51839,-1.01133 -0.79926,-1.505072 -1.24896,-2.195592 -2.71784,-4.261416 -4.16064,-6.330482 -1.27753,-1.592334 -2.53903,-3.202448 -3.7212,-4.866862 0,0 3.40076,-1.971064 3.40076,-1.971064 z"
         id="path4530"
         style="fill:#000000;fill-opacity:1;stroke-width:0.26458332" />
      <path
         d="m 160.35455,90.007352 c 1.25257,2.597676 2.67697,5.114147 4.1994,7.562717 1.34061,2.323428 2.87758,4.524861 4.29097,6.803001 1.10441,1.8273 2.22027,3.64841 3.28016,5.50205 0.45493,0.9142 1.03155,1.7595 1.53661,2.64471 0.52386,0.91816 0.98705,1.85848 1.52957,2.76715 1.23255,1.93211 2.4556,3.87153 3.83075,5.70594 1.13446,1.56291 2.53159,2.90594 3.87194,4.28801 1.22417,1.2666 2.57544,2.39517 3.93327,3.51315 0.61808,0.46674 1.12416,1.05218 1.68938,1.57462 0.25001,0.23109 0.5186,0.44128 0.77427,0.6661 0.85968,0.68308 1.64176,1.45552 2.49004,2.15156 0.41664,0.40414 0.98993,0.62802 1.41898,1.01122 0.0924,0.0826 0.38165,0.45061 0.46394,0.55314 0.45736,0.74603 0.65927,1.62387 0.81204,2.47747 0.1216,0.95668 0.18474,1.92103 0.1973,2.88515 0.008,0.891 -0.0108,1.77877 -0.0966,2.66566 0,0 -3.50943,1.74285 -3.50943,1.74285 v 0 c 0.0963,-0.87429 0.13951,-1.7478 0.11998,-2.6282 -0.005,-0.94473 -0.0769,-1.88597 -0.17607,-2.82534 -0.12901,-0.78956 -0.30198,-1.6075 -0.72273,-2.29711 -0.0814,-0.0993 -0.29564,-0.37169 -0.40237,-0.46177 -0.44826,-0.37829 -0.99404,-0.64474 -1.42555,-1.04756 -0.83691,-0.71354 -1.636,-1.46992 -2.49365,-2.15952 -0.8353,-0.72722 -1.59939,-1.52253 -2.4406,-2.24382 -1.35393,-1.13994 -2.69805,-2.29246 -3.93676,-3.55928 -1.35291,-1.3917 -2.74998,-2.75704 -3.88688,-4.3375 -1.37444,-1.8504 -2.58989,-3.80823 -3.842,-5.7426 -0.2019,-0.32921 -0.41472,-0.65196 -0.60571,-0.98761 -0.33056,-0.58092 -0.60726,-1.1914 -0.93748,-1.77252 -0.33711,-0.59324 -0.70775,-1.16696 -1.04653,-1.75925 -0.16896,-0.29538 -0.32944,-0.59552 -0.49416,-0.89328 -1.05791,-1.84947 -2.15792,-3.6745 -3.25516,-5.50078 -1.41112,-2.27905 -2.9233,-4.49628 -4.25614,-6.823508 -1.5218,-2.469356 -2.92432,-5.007962 -4.33261,-7.543284 0,0 3.42178,-1.931566 3.42178,-1.931566 z"
         id="path4532"
         style="fill:#000000;fill-opacity:1;stroke-width:0.26458332" />
      <path
         d="m 154.02569,141.81429 c 0.72417,1.10113 1.2866,2.29845 1.88466,3.4703 0.46846,1.19638 1.1445,2.29657 1.66101,3.46813 0.5306,1.14553 1.03727,2.3016 1.47583,3.48594 0.52234,1.31121 1.03662,2.62946 1.46107,3.9762 0.31118,1.10327 0.68368,2.19112 0.98031,3.29832 0.29059,1.17706 0.50521,2.37138 0.75734,3.55799 0.23191,1.12561 0.30687,2.27234 0.35028,3.41804 0.0356,0.97561 0.20034,1.93328 0.40762,2.88386 0.16379,0.92585 0.31533,1.84408 0.54888,2.75536 0.22595,0.92758 0.42212,1.85894 0.54387,2.80607 0.0846,0.94815 0.10158,1.9004 0.10887,2.85173 0.0458,0.87765 -0.24083,1.71648 -0.50823,2.53932 -0.3025,0.75274 -0.81263,1.36689 -1.40874,1.90417 -3.08629,1.87976 -3.54248,2.47032 -6.47022,2.51998 -0.95777,-0.009 -1.91604,0.0248 -2.87326,-0.004 -1.09166,-0.0288 -2.18526,-0.11884 -3.2762,-0.0468 -1.00506,0.0435 -2.02862,-0.0604 -3.02495,0.0832 -1.13108,0.13023 -2.23066,0.39583 -3.32903,0.68462 -0.98792,0.2235 -1.97835,0.45539 -2.97915,0.61537 -1.24011,0.46131 -3.38426,1.67698 2.11181,-1.29868 0.16614,-0.0899 -0.31021,0.21571 -0.46435,0.32494 -0.44269,0.31368 -0.47404,0.34006 -0.89808,0.65366 -1.3894,1.06211 -2.95292,1.77552 -4.49458,2.64695 0,0 3.06558,-2.44519 3.06558,-2.44519 v 0 c -5.42753,3.19382 -3.31394,2.03496 -2.20706,1.24602 1.82556,-1.41248 3.76871,-2.90239 6.02017,-3.48761 0.9862,-0.18484 1.97184,-0.38206 2.94418,-0.63 1.11082,-0.28854 2.23316,-0.52215 3.37581,-0.64506 1.01012,-0.0652 2.02485,-0.0296 3.03655,-0.0629 1.09848,-0.0238 2.19619,0.0412 3.29443,0.0616 0.95261,-0.002 1.90469,0.0164 2.8572,-0.009 0.51556,-0.0298 1.04076,-0.0592 1.549,-0.1581 1.39205,-0.27087 3.4833,-1.75419 -1.88591,1.40608 0.64923,-0.41546 1.10996,-1.03799 1.50428,-1.6936 0.27754,-0.77604 0.57434,-1.5896 0.56584,-2.42137 -0.004,-0.93785 -0.006,-1.87724 -0.0877,-2.8123 -0.10508,-0.93357 -0.29306,-1.84906 -0.51923,-2.76058 -0.23678,-0.91583 -0.40004,-1.83432 -0.55119,-2.76804 -0.2242,-0.97196 -0.38548,-1.95102 -0.43902,-2.95034 -0.032,-1.12656 -0.0906,-2.25509 -0.30919,-3.36368 -0.24043,-1.18107 -0.47665,-2.36357 -0.75788,-3.5346 -0.28497,-1.10587 -0.65731,-2.18964 -0.95676,-3.29177 -0.40979,-1.34438 -0.9264,-2.65527 -1.45348,-3.95725 -0.43106,-1.17884 -0.94282,-2.32476 -1.47165,-3.46217 -0.50283,-1.1684 -1.17752,-2.26229 -1.63814,-3.45295 -0.59812,-1.16157 -1.14081,-2.36265 -1.90137,-3.43057 0,0 3.40076,-1.97107 3.40076,-1.97107 z"
         id="path4534"
         style="fill:#000000;fill-opacity:1;stroke-width:0.26458332" />
      <path
         d="m 180.05719,173.03611 c 1.16885,1.39584 2.42902,2.71071 3.66679,4.04609 1.01594,1.14994 2.07077,2.2655 3.15342,3.3527 1.24412,1.10026 2.40013,2.30772 3.4603,3.58631 1.01952,1.17135 1.85384,2.46872 2.48209,3.88687 0.66084,1.40185 0.94914,2.93099 1.22919,4.44469 0.12957,0.91792 0.25879,1.84858 0.1997,2.77871 -0.0292,0.46031 -0.10909,0.84733 -0.18805,1.29901 -0.30646,1.12556 -0.75258,2.2086 -1.40426,3.177 -0.82844,0.96307 -1.55628,2.03218 -2.48563,2.90566 -0.22241,0.20904 -0.46638,0.39387 -0.69957,0.59081 -2.37569,1.7077 -4.85901,3.34885 -7.57067,4.46787 -1.24402,0.55316 -2.49698,1.08165 -3.76995,1.56266 -1.26534,0.4616 -2.56442,0.8195 -3.83983,1.2493 -1.73995,0.48617 -3.48656,0.92278 -5.21672,1.44549 -1.27786,0.4746 -2.51217,1.05169 -3.75907,1.5994 -0.76475,0.29163 -1.5662,0.50466 -2.32517,0.81236 -0.3623,0.14688 -0.71169,0.32433 -1.07396,0.47128 -0.18148,0.0882 -0.35967,0.18353 -0.54446,0.26458 -0.17254,0.0757 -0.35587,0.12565 -0.52665,0.20522 -0.54819,0.25541 -1.0581,0.58373 -1.61424,0.82584 -0.59233,0.16623 -0.29802,0.0781 -0.88292,0.2643 0,0 3.09902,-2.40273 3.09902,-2.40273 v 0 c 0.57897,-0.18905 0.29367,-0.0873 0.85607,-0.30488 0.88675,-0.44026 1.76316,-0.8992 2.68203,-1.27154 1.11433,-0.4708 2.25582,-0.86352 3.38947,-1.28526 1.249,-0.54052 2.47753,-1.13625 3.77598,-1.553 1.72916,-0.51147 3.48343,-0.92105 5.20654,-1.45211 1.28585,-0.41906 2.58299,-0.80558 3.85051,-1.27919 1.26069,-0.48319 2.50117,-1.01778 3.73816,-1.55836 1.63554,-0.72949 1.24134,-0.59023 -1.82831,1.20723 -0.21658,0.12682 0.42585,-0.26573 0.63695,-0.40145 0.71602,-0.46037 1.42838,-0.92785 2.121,-1.4229 0.23745,-0.18129 0.48769,-0.34695 0.71237,-0.54385 0.94828,-0.83107 1.63075,-1.91523 2.47986,-2.83744 0.17382,-0.23527 0.45357,-0.59744 0.59693,-0.85597 0.3788,-0.6831 0.5936,-1.4522 0.88599,-2.17239 0.07,-0.35277 0.18472,-0.88297 0.2171,-1.24064 0.0821,-0.90674 -0.0325,-1.81949 -0.15553,-2.7159 -0.25934,-1.48688 -0.53843,-2.98982 -1.18205,-4.36569 -0.60527,-1.38898 -1.43758,-2.644 -2.41988,-3.79731 -1.0575,-1.26742 -2.21245,-2.45837 -3.4492,-3.55187 -1.08766,-1.08756 -2.14278,-2.21003 -3.14819,-3.3741 -1.23182,-1.34591 -2.483,-2.67299 -3.70741,-4.02442 0,0 3.35225,-2.03238 3.35225,-2.03238 z"
         id="path4536"
         style="fill:#000000;fill-opacity:1;stroke-width:0.26458332" />
    </g>
</svg>
