<?xml version="1.0" encoding="UTF-8" standalone="no"?>
<!-- Created with Inkscape (http://www.inkscape.org/) -->

<svg
   xmlns:dc="http://purl.org/dc/elements/1.1/"
   xmlns:cc="http://creativecommons.org/ns#"
   xmlns:rdf="http://www.w3.org/1999/02/22-rdf-syntax-ns#"
   xmlns:svg="http://www.w3.org/2000/svg"
   xmlns="http://www.w3.org/2000/svg"
   version="1.1"
   width="744.09448"
   height="1052.3622"
   id="svg2">
  <defs
     id="defs4" />
  <metadata
     id="metadata7">
    <rdf:RDF>
      <cc:Work
         rdf:about="">
        <dc:format>image/svg+xml</dc:format>
        <dc:type
           rdf:resource="http://purl.org/dc/dcmitype/StillImage" />
        <dc:title></dc:title>
      </cc:Work>
    </rdf:RDF>
  </metadata>
  <g
     id="layer1">
    <path
       d="m 688.57143,336.6479 c 0,134.91527 -102.97451,244.28572 -230,244.28572 -127.02549,0 -230,-109.37045 -230,-244.28572 0,-134.91528 102.97451,-244.285733 230,-244.285733 127.02549,0 230,109.370453 230,244.285733 z"
       id="path3009"
       style="fill:#ff0000;fill-rule:evenodd;stroke:#000000;stroke-width:1px;stroke-linecap:butt;stroke-linejoin:miter;stroke-opacity:1" />
    <g
       transform="translate(42.857143,285.71429)"
       id="g3012">
      <path
         d="m 387.03125,195.75 c -48.61199,0.4285 -96.50736,18.16004 -134.34375,48.375 -46.4236,36.79788 -77.94932,91.33576 -88.14969,149.71109 -11.57701,64.02361 1.77037,132.40303 38.09269,186.46694 29.04499,43.79814 72.78031,77.85263 123.27085,93.36032 51.54002,16.01149 109.14157,11.90193 157.78827,-11.56677 52.97602,-25.03421 94.8218,-71.21828 116.84531,-125.43359 C 627.7466,470.69772 625.56626,393.11888 594.59176,328.8942 571.13745,279.95079 531.30296,238.89083 481.875,216.0625 452.31799,202.22464 419.6765,195.28318 387.03125,195.75 z"
         id="path3014"
         style="opacity:0.09090899;fill:#ff0000;fill-rule:evenodd;stroke:#000000;stroke-width:1px;stroke-linecap:butt;stroke-linejoin:miter;stroke-opacity:1" />
      <path
         d="m 387.03125,195.65625 c -43.47603,0.44861 -86.48361,14.49413 -122.09868,39.31421 -43.50419,29.93429 -76.04229,75.09905 -92.16484,125.37262 -20.33146,62.83455 -15.53431,133.64463 14.04477,192.81317 23.19738,46.97097 61.92601,86.53917 109.44643,109.05115 43.15872,20.72496 93.26949,26.44035 139.99107,16.2301 45.33357,-9.7318 86.88168,-34.51842 118.03125,-68.5625 36.44062,-39.51404 58.94342,-91.25932 64.0537,-144.7316 5.50518,-54.98598 -6.86208,-111.78896 -35.96722,-158.79013 C 554.99812,261.51925 512.57594,225.7257 462.90089,208.174 438.62161,199.51163 412.83081,195.30186 387.03125,195.65625 z"
         id="path3018"
         style="opacity:0.09090899;fill:#ff0000;fill-rule:evenodd;stroke:#000000;stroke-width:1px;stroke-linecap:butt;stroke-linejoin:miter;stroke-opacity:1" />
      <path
         d="m 387.03125,195.5625 c -33.49534,0.3668 -66.81366,8.70117 -96.625,24.03125 -31.76731,16.22419 -59.60582,40.23046 -80.80666,68.89498 -28.29682,37.91897 -45.10041,84.16484 -48.54999,131.2607 -3.17962,42.14323 3.83384,85.02082 21.0721,123.66398 15.7597,35.59035 39.99389,67.45688 70.4408,91.58659 30.2977,24.16425 66.91671,40.49822 105.3125,46.125 36.27267,5.35568 73.9605,1.54915 108.33937,-11.38879 33.58546,-12.54212 63.8507,-33.31522 88.02569,-59.68666 29.27926,-31.69087 49.74349,-71.50183 59.18965,-113.65548 11.78647,-52.65935 6.94248,-109.09584 -14.61627,-158.67821 C 583.07144,301.27041 558.48119,268.62239 527.4375,244 498.44812,220.91428 463.81465,204.98343 427.22176,198.70748 c -13.20746,-2.271 -26.73431,-3.33139 -40.19051,-3.14498 z"
         id="path3022"
         style="opacity:0.09090899;fill:#ff0000;fill-rule:evenodd;stroke:#000000;stroke-width:1px;stroke-linecap:butt;stroke-linejoin:miter;stroke-opacity:1" />
      <path
         d="m 387.03125,195.4375 c -34.78504,0.39894 -69.39932,9.396 -100.04165,25.83983 -28.39906,15.08787 -53.52142,36.48841 -73.41162,61.82776 -8.48792,10.78511 -16.06637,22.28013 -22.58389,34.28681 -18.69648,34.20184 -29.10338,72.81385 -30.60395,111.74286 -1.22076,30.73922 2.9854,61.70689 12.61984,90.93318 10.33002,31.32995 26.74494,60.53241 48.4711,85.36811 16.18407,18.60361 35.3506,34.65488 56.55017,47.2827 17.33783,10.21939 36.16924,18.34899 55.72022,23.50324 34.1208,9.15029 70.47517,9.80442 104.90388,1.88238 22.27572,-5.05492 43.6841,-13.75458 63.3134,-25.41687 10.33001,-6.06675 20.27319,-13.18832 29.5668,-20.87499 21.36068,-17.72882 39.4467,-39.31902 53.5582,-63.21876 8.29287,-14.26399 15.38566,-29.46646 20.75,-45.15625 11.21499,-32.38678 15.65597,-67.0402 13.40222,-101.22201 -2.53706,-38.86895 -13.98801,-77.18259 -33.63485,-110.8432 -16.20313,-27.93673 -38.15589,-52.83118 -64.18776,-72.12419 -16.09018,-11.95945 -33.7134,-21.67958 -52.39211,-29.02935 -26.06198,-10.11317 -54.03972,-15.20893 -82,-14.78125 z"
         id="path3026"
         style="opacity:0.09090899;fill:#ff0000;fill-rule:evenodd;stroke:#000000;stroke-width:1px;stroke-linecap:butt;stroke-linejoin:miter;stroke-opacity:1" />
      <path
         d="m 387.03125,195.34375 c -10.53425,0.13539 -21.05785,1.02677 -31.46075,2.69348 -10.06236,1.6152 -20.01235,3.93061 -29.75357,6.92876 -5.24888,1.58677 -10.41254,3.45081 -15.52829,5.42164 -8.51355,3.35419 -16.81763,7.23422 -24.86016,11.59857 -7.78671,4.281 -15.37373,8.96565 -22.62906,14.10998 -3.53924,2.46669 -6.97159,5.08112 -10.36192,7.74757 -1.06842,0.79708 -2.2418,1.81498 -3.35065,2.69714 -8.20998,6.75872 -15.94429,14.09132 -23.15564,21.90633 -4.03457,4.34498 -7.88402,8.86037 -11.58746,13.49028 -0.79943,1.12163 -1.81753,2.35021 -2.70105,3.51296 -6.01002,7.82066 -11.50232,16.03184 -16.54517,24.50687 -4.38308,7.50667 -8.49831,15.16591 -12.05668,23.10188 -3.89271,8.44143 -7.22788,17.13263 -10.15965,25.95149 -2.41498,7.40003 -4.5147,14.9036 -6.24751,22.49297 -1.41971,6.01574 -2.51745,12.10515 -3.50391,18.20464 -1.46202,9.51436 -2.40731,19.10879 -2.79844,28.72732 -0.30128,6.51982 -0.27392,13.05251 -0.10912,19.57588 0.25655,6.89628 0.70425,13.78694 1.49423,20.64413 0.97199,8.86664 2.47967,17.66926 4.34345,26.39009 1.83101,8.12421 3.95685,16.18556 6.55269,24.10067 3.30157,10.1667 7.23734,20.1284 11.81321,29.78967 4.80242,10.20482 10.36359,20.04481 16.5117,29.50143 4.18558,6.424 8.70125,12.62818 13.4375,18.65625 0.80858,1.07791 1.83374,2.26446 2.73828,3.37378 4.38125,5.30973 8.98471,10.43586 13.80525,15.35012 6.77286,6.88281 13.95948,13.36107 21.51897,19.36985 1.12171,0.79934 2.34951,1.81843 3.51488,2.69859 9.18184,7.00758 18.88473,13.33268 29.01934,18.87546 8.43473,4.62139 17.17991,8.70517 26.15296,12.18392 7.79196,3.03059 15.76215,5.59498 23.84973,7.71232 9.28431,2.37838 18.70748,4.22674 28.22334,5.38431 7.05501,0.89116 14.15721,1.39395 21.26466,1.59132 7.17541,0.16654 14.35838,0.0171 21.51635,-0.52318 7.793,-0.55714 15.55283,-1.57933 23.24118,-2.96108 12.2216,-2.26528 24.27411,-5.48652 35.93387,-9.80265 9.26354,-3.38521 18.27932,-7.43463 27.00244,-12.03401 9.75603,-5.17479 19.16275,-11.04328 28.07435,-17.57753 2.4956,-1.79107 4.90774,-3.69316 7.3319,-5.57872 1.09621,-0.80524 2.30558,-1.82146 3.41953,-2.73958 7.64726,-6.33696 14.93297,-13.11972 21.71631,-20.37596 4.53305,-4.79249 8.80331,-9.82487 12.95791,-14.94696 0.77843,-1.09576 1.77987,-2.29499 2.63174,-3.44015 8.25849,-10.77278 15.60915,-22.23437 22.00871,-34.20405 4.60608,-8.62286 8.66958,-17.5505 12.23181,-26.65937 4.55184,-11.73277 8.25454,-23.79475 11.02034,-36.07275 1.34114,-5.72606 2.35752,-11.52529 3.30739,-17.32672 1.47945,-9.57936 2.42628,-19.24096 2.81741,-28.92621 0.29602,-6.52002 0.26935,-13.05264 0.10113,-19.57597 -0.2683,-7.25249 -0.76836,-14.49737 -1.62508,-21.70543 -0.96763,-8.46465 -2.42679,-16.86811 -4.20869,-25.19779 -1.304,-5.76621 -2.73021,-11.50494 -4.40667,-17.17501 -2.31738,-7.95802 -5.06913,-15.78793 -8.14941,-23.48162 -4.16432,-10.27021 -8.94912,-20.2944 -14.48948,-29.89117 -3.82072,-6.77639 -8.0209,-13.33479 -12.46341,-19.71953 -2.82507,-4.00833 -5.7663,-7.93326 -8.80704,-11.78048 -0.80685,-1.0897 -1.825,-2.29244 -2.73828,-3.40503 -7.25152,-8.7688 -15.11039,-17.04034 -23.53454,-24.69035 -3.81599,-3.47483 -7.7673,-6.79691 -11.78968,-10.02962 -1.12171,-0.79934 -2.34951,-1.81843 -3.51488,-2.69859 -8.3865,-6.3928 -17.21087,-12.21107 -26.39073,-17.4008 -6.27137,-3.57239 -12.75032,-6.79651 -19.34954,-9.7304 -6.28344,-2.7974 -12.71378,-5.25061 -19.22767,-7.45564 -6.78241,-2.24719 -13.67157,-4.18306 -20.63801,-5.77267 -11.58961,-2.63576 -23.39124,-4.3401 -35.25717,-5.04382 -5.37646,-0.3079 -10.76823,-0.44092 -16.15325,-0.36683 z"
         id="path3030"
         style="opacity:0.09090899;fill:#ff0000;fill-rule:evenodd;stroke:#000000;stroke-width:1px;stroke-linecap:butt;stroke-linejoin:miter;stroke-opacity:1" />
      <path
         d="m 620,439.50504 c 0,134.91527 -102.97451,244.28572 -230,244.28572 -127.02549,0 -230,-109.37045 -230,-244.28572 0,-134.91528 102.97451,-244.28573 230,-244.28573 127.02549,0 230,109.37045 230,244.28573 z"
         id="path3034"
         style="opacity:0.09090899;fill:#ff0000;fill-rule:evenodd;stroke:#000000;stroke-width:1px;stroke-linecap:butt;stroke-linejoin:miter;stroke-opacity:1" />
      <path
         d="m 387.03125,195.15625 c -10.36757,0.13362 -20.72484,0.99844 -30.96701,2.61455 -10.42042,1.62089 -20.71235,4.04175 -30.78887,7.15086 -5.11312,1.57387 -10.15384,3.38407 -15.14193,5.31599 -8.23445,3.24457 -16.26801,6.99084 -24.0657,11.17678 -4.77337,2.53958 -9.43706,5.31578 -14.01379,8.20457 -6.81669,4.33441 -13.41079,9.01923 -19.74145,14.03725 -2.56455,2.14567 -5.22225,4.25516 -7.7473,6.47731 -9.1632,7.92333 -17.67509,16.59247 -25.52217,25.81857 -5.70435,6.70704 -11.05443,13.71 -15.97777,21.02461 -5.12771,7.53539 -9.77833,15.38815 -14.06526,23.42951 -3.77187,7.25541 -7.25493,14.68071 -10.32684,22.26642 -2.2691,5.56885 -4.31908,11.22853 -6.192,16.94248 -2.3868,7.33927 -4.43704,14.7874 -6.14778,22.31313 -1.35437,5.80176 -2.4113,11.67149 -3.36195,17.55092 -1.45665,9.52536 -2.42667,19.12741 -2.8176,28.75668 -0.31246,6.55276 -0.28384,13.11895 -0.12211,19.67568 0.25523,6.96302 0.70882,13.92029 1.50838,20.84345 0.97783,8.85296 2.46474,17.64585 4.3323,26.35322 1.83101,8.12421 3.95685,16.18556 6.55269,24.10067 3.30157,10.1667 7.23734,20.1284 11.81321,29.78967 7.14406,15.19639 15.88814,29.63948 25.98315,43.06188 4.18696,5.61442 8.72506,10.94339 13.35189,16.21134 4.60033,5.04973 9.33569,9.98146 14.35349,14.6197 6.3808,5.96873 13.07203,11.58899 20.06034,16.81306 9.29518,6.92464 19.11111,13.14627 29.34556,18.58796 6.21778,3.22685 12.54474,6.28501 19.03073,8.95268 9.15628,3.80238 18.57206,6.97976 28.16254,9.49486 8.87812,2.29781 17.88693,4.1106 26.98603,5.26967 7.60883,1.02909 15.27658,1.59785 22.95038,1.8112 7.17541,0.16654 14.35838,0.0171 21.51635,-0.52318 7.71432,-0.54815 15.39359,-1.56786 23.00878,-2.90599 11.52243,-2.11862 22.88944,-5.09573 33.93144,-9.01756 7.05186,-2.52026 13.98766,-5.36603 20.74845,-8.58897 6.74961,-3.20867 13.35069,-6.71281 19.74528,-10.58575 8.44976,-5.07841 16.54215,-10.74294 24.27479,-16.85572 3.90287,-3.16613 7.80328,-6.417 11.52563,-9.824 5.80868,-5.21989 11.3177,-10.76728 16.56649,-16.54874 3.89408,-4.32085 7.65021,-8.79383 11.26076,-13.33096 10.08943,-12.93881 18.92666,-26.86735 26.25154,-41.54506 5.10089,-10.22239 9.52636,-20.78233 13.19131,-31.60377 3.00494,-8.77661 5.46791,-17.73304 7.50379,-26.78235 1.21867,-5.45614 2.20962,-10.96447 3.08513,-16.48489 1.45315,-9.49252 2.3965,-19.06383 2.78401,-28.65961 0.30128,-6.51982 0.27392,-13.05251 0.10912,-19.57588 -0.26655,-7.31928 -0.77349,-14.63068 -1.63924,-21.90476 -0.96289,-8.38535 -2.39376,-16.71215 -4.15241,-24.96607 -1.30674,-5.76973 -2.72266,-11.51535 -4.39981,-17.18961 -2.32718,-8.02032 -5.09825,-15.91002 -8.20139,-23.66187 -3.69663,-9.11277 -7.88724,-18.03474 -12.62733,-26.64625 -4.24618,-7.72031 -8.89142,-15.22075 -13.93028,-22.44923 -6.02432,-8.66024 -12.63449,-16.86493 -19.73245,-24.66847 -6.95681,-7.61729 -14.3815,-14.80988 -22.27967,-21.44829 -4.77596,-4.01846 -9.64856,-7.89301 -14.75555,-11.49766 -6.72296,-4.79649 -13.70619,-9.22222 -20.89835,-13.28053 -5.9731,-3.32353 -12.09765,-6.39591 -18.33675,-9.202 -6.31339,-2.81077 -12.75571,-5.32545 -19.30335,-7.53656 -6.02099,-2.04887 -12.15222,-3.76822 -18.32391,-5.29998 -11.94629,-2.87306 -24.12951,-4.76731 -36.38967,-5.59611 -5.9761,-0.40706 -11.97465,-0.55982 -17.96387,-0.48485 z"
         id="path3036"
         style="opacity:0.09090899;fill:#ff0000;fill-rule:evenodd;stroke:#000000;stroke-width:1px;stroke-linecap:butt;stroke-linejoin:miter;stroke-opacity:1" />
      <path
         d="m 387.03125,195.0625 c -35.11287,0.3988 -70.04904,9.53595 -100.93747,26.2117 -19.29057,10.43703 -37.11531,23.63646 -52.74201,39.06658 -14.87782,14.70756 -27.86759,31.41987 -38.50424,49.4603 -14.29581,24.04606 -24.31964,50.64708 -29.89673,78.06968 -6.36668,31.58072 -6.83071,64.34788 -1.33531,96.09211 5.13463,29.81846 15.61395,58.72525 30.94701,84.81838 7.92689,13.32572 16.99333,26.06724 27.29996,37.70276 18.53265,21.13577 40.96318,38.91415 65.79135,52.09163 23.54866,12.44193 49.36172,20.58751 75.81017,23.78651 38.2709,4.72639 77.76603,-0.93653 113.15369,-16.26343 26.11475,-11.27107 49.95982,-27.60754 70.19483,-47.59872 14.94178,-14.76743 27.93711,-31.59137 38.59375,-49.71875 14.24674,-24.10421 24.24537,-50.74591 29.75464,-78.21027 6.39817,-32.07654 6.69991,-65.365 0.86438,-97.54873 -5.23752,-29.00171 -15.52348,-57.10288 -30.43421,-82.53311 -7.2402,-12.18161 -15.40365,-23.90109 -24.63,-34.7059 -16.69376,-19.67098 -36.59018,-36.65057 -58.80481,-49.81449 -31.28613,-18.71446 -67.3798,-29.46782 -103.8497,-30.76894 -3.75683,-0.12442 -7.5165,-0.20452 -11.2753,-0.13731 z"
         id="path3040"
         style="opacity:0.09090899;fill:#ff0000;fill-rule:evenodd;stroke:#000000;stroke-width:1px;stroke-linecap:butt;stroke-linejoin:miter;stroke-opacity:1" />
      <path
         d="m 387.03125,194.9375 c -39.73408,0.45358 -79.23989,12.15816 -112.93658,33.18775 -35.93694,22.18426 -65.28805,54.45424 -85.01068,91.73953 -22.67883,42.74362 -32.43678,92.0635 -28.59526,140.27312 3.4566,43.82916 18.23126,86.8971 43.20985,123.16215 23.9684,35.12108 57.42058,63.87231 96.26022,81.39656 39.35257,17.83739 84.06196,23.6604 126.61498,16.30943 41.98817,-6.99743 81.53472,-26.83299 112.91323,-55.4636 31.64985,-28.62644 55.25705,-65.87941 68.34078,-106.47621 16.58644,-51.12264 16.64767,-107.41761 0.17753,-158.5754 -14.57908,-45.68875 -42.57543,-87.11997 -80.19282,-116.95958 -29.10584,-23.17459 -63.99297,-39.22675 -100.7614,-45.4371 -13.1563,-2.34012 -26.62109,-3.32688 -40.01985,-3.15665 z"
         id="path3044"
         style="opacity:0.09090899;fill:#ff0000;fill-rule:evenodd;stroke:#000000;stroke-width:1px;stroke-linecap:butt;stroke-linejoin:miter;stroke-opacity:1" />
      <path
         d="m 387.03125,194.84375 c -45.78198,0.43547 -91.05754,16.06352 -127.81712,43.19128 -47.25386,34.55483 -80.48556,86.99113 -93.20712,144.02559 -14.16212,61.86802 -4.79815,129.11567 26.90695,184.2179 24.59523,43.30867 62.84485,79.01545 108.49457,99.17882 45.89021,20.4682 98.96134,24.36429 147.31169,10.69567 50.92921,-14.02658 95.75165,-47.1906 125.93603,-90.27801 31.07009,-43.99739 46.96441,-98.14358 45.69499,-151.93113 -1.01163,-54.45053 -19.72398,-108.58109 -53.5523,-151.33183 -32.15879,-41.09348 -78.319,-71.45695 -129.50131,-82.6084 -16.41466,-3.72037 -33.40309,-5.37912 -50.26638,-5.15989 z"
         id="path3048"
         style="opacity:0.09090899;fill:#ff0000;fill-rule:evenodd;stroke:#000000;stroke-width:1px;stroke-linecap:butt;stroke-linejoin:miter;stroke-opacity:1" />
      <path
         d="m 387.03125,194.75 c -52.34413,0.43781 -103.80422,20.89649 -143.02007,55.33102 -45.18147,39.12582 -74.4481,95.48556 -82.21205,154.64334 -8.20805,60.49883 5.39177,123.96289 39.19057,174.8906 30.92458,47.34693 79.14124,83.62223 134.16655,97.69754 52.28255,13.74021 109.64734,6.97703 157.3125,-18.46875 55.65546,-29.26172 97.65049,-81.93316 116.20989,-141.79654 22.02932,-69.52162 13.10854,-148.55976 -25.27003,-210.73538 -30.18344,-49.7428 -79.0353,-88.47689 -135.4697,-103.77627 -19.75085,-5.48759 -40.37668,-8.06996 -60.90766,-7.78556 z"
         id="path3052"
         style="opacity:0.09090899;fill:#ff0000;fill-rule:evenodd;stroke:#000000;stroke-width:1px;stroke-linecap:butt;stroke-linejoin:miter;stroke-opacity:1" />
    </g>
    <g
       transform="translate(-148.57143,14.285714)"
       id="g3056">
      <path
         d="m 387.03125,195.75 c -48.61199,0.4285 -96.50736,18.16004 -134.34375,48.375 -46.4236,36.79788 -77.94932,91.33576 -88.14969,149.71109 -11.57701,64.02361 1.77037,132.40303 38.09269,186.46694 29.04499,43.79814 72.78031,77.85263 123.27085,93.36032 51.54002,16.01149 109.14157,11.90193 157.78827,-11.56677 52.97602,-25.03421 94.8218,-71.21828 116.84531,-125.43359 C 627.7466,470.69772 625.56626,393.11888 594.59176,328.8942 571.13745,279.95079 531.30296,238.89083 481.875,216.0625 452.31799,202.22464 419.6765,195.28318 387.03125,195.75 z"
         id="path3058"
         style="opacity:0.09090899;fill:#ff0000;fill-rule:evenodd;stroke:#000000;stroke-width:1px;stroke-linecap:butt;stroke-linejoin:miter;stroke-opacity:1" />
      <path
         d="m 387.03125,195.65625 c -43.47603,0.44861 -86.48361,14.49413 -122.09868,39.31421 -43.50419,29.93429 -76.04229,75.09905 -92.16484,125.37262 -20.33146,62.83455 -15.53431,133.64463 14.04477,192.81317 23.19738,46.97097 61.92601,86.53917 109.44643,109.05115 43.15872,20.72496 93.26949,26.44035 139.99107,16.2301 45.33357,-9.7318 86.88168,-34.51842 118.03125,-68.5625 36.44062,-39.51404 58.94342,-91.25932 64.0537,-144.7316 5.50518,-54.98598 -6.86208,-111.78896 -35.96722,-158.79013 C 554.99812,261.51925 512.57594,225.7257 462.90089,208.174 438.62161,199.51163 412.83081,195.30186 387.03125,195.65625 z"
         id="path3062"
         style="opacity:0.09090899;fill:#ff0000;fill-rule:evenodd;stroke:#000000;stroke-width:1px;stroke-linecap:butt;stroke-linejoin:miter;stroke-opacity:1" />
      <path
         d="m 387.03125,195.5625 c -33.49534,0.3668 -66.81366,8.70117 -96.625,24.03125 -31.76731,16.22419 -59.60582,40.23046 -80.80666,68.89498 -28.29682,37.91897 -45.10041,84.16484 -48.54999,131.2607 -3.17962,42.14323 3.83384,85.02082 21.0721,123.66398 15.7597,35.59035 39.99389,67.45688 70.4408,91.58659 30.2977,24.16425 66.91671,40.49822 105.3125,46.125 36.27267,5.35568 73.9605,1.54915 108.33937,-11.38879 33.58546,-12.54212 63.8507,-33.31522 88.02569,-59.68666 29.27926,-31.69087 49.74349,-71.50183 59.18965,-113.65548 11.78647,-52.65935 6.94248,-109.09584 -14.61627,-158.67821 C 583.07144,301.27041 558.48119,268.62239 527.4375,244 498.44812,220.91428 463.81465,204.98343 427.22176,198.70748 c -13.20746,-2.271 -26.73431,-3.33139 -40.19051,-3.14498 z"
         id="path3066"
         style="opacity:0.09090899;fill:#ff0000;fill-rule:evenodd;stroke:#000000;stroke-width:1px;stroke-linecap:butt;stroke-linejoin:miter;stroke-opacity:1" />
      <path
         d="m 387.03125,195.4375 c -34.78504,0.39894 -69.39932,9.396 -100.04165,25.83983 -28.39906,15.08787 -53.52142,36.48841 -73.41162,61.82776 -8.48792,10.78511 -16.06637,22.28013 -22.58389,34.28681 -18.69648,34.20184 -29.10338,72.81385 -30.60395,111.74286 -1.22076,30.73922 2.9854,61.70689 12.61984,90.93318 10.33002,31.32995 26.74494,60.53241 48.4711,85.36811 16.18407,18.60361 35.3506,34.65488 56.55017,47.2827 17.33783,10.21939 36.16924,18.34899 55.72022,23.50324 34.1208,9.15029 70.47517,9.80442 104.90388,1.88238 22.27572,-5.05492 43.6841,-13.75458 63.3134,-25.41687 10.33001,-6.06675 20.27319,-13.18832 29.5668,-20.87499 21.36068,-17.72882 39.4467,-39.31902 53.5582,-63.21876 8.29287,-14.26399 15.38566,-29.46646 20.75,-45.15625 11.21499,-32.38678 15.65597,-67.0402 13.40222,-101.22201 -2.53706,-38.86895 -13.98801,-77.18259 -33.63485,-110.8432 -16.20313,-27.93673 -38.15589,-52.83118 -64.18776,-72.12419 -16.09018,-11.95945 -33.7134,-21.67958 -52.39211,-29.02935 -26.06198,-10.11317 -54.03972,-15.20893 -82,-14.78125 z"
         id="path3070"
         style="opacity:0.09090899;fill:#ff0000;fill-rule:evenodd;stroke:#000000;stroke-width:1px;stroke-linecap:butt;stroke-linejoin:miter;stroke-opacity:1" />
      <path
         d="m 387.03125,195.34375 c -10.53425,0.13539 -21.05785,1.02677 -31.46075,2.69348 -10.06236,1.6152 -20.01235,3.93061 -29.75357,6.92876 -5.24888,1.58677 -10.41254,3.45081 -15.52829,5.42164 -8.51355,3.35419 -16.81763,7.23422 -24.86016,11.59857 -7.78671,4.281 -15.37373,8.96565 -22.62906,14.10998 -3.53924,2.46669 -6.97159,5.08112 -10.36192,7.74757 -1.06842,0.79708 -2.2418,1.81498 -3.35065,2.69714 -8.20998,6.75872 -15.94429,14.09132 -23.15564,21.90633 -4.03457,4.34498 -7.88402,8.86037 -11.58746,13.49028 -0.79943,1.12163 -1.81753,2.35021 -2.70105,3.51296 -6.01002,7.82066 -11.50232,16.03184 -16.54517,24.50687 -4.38308,7.50667 -8.49831,15.16591 -12.05668,23.10188 -3.89271,8.44143 -7.22788,17.13263 -10.15965,25.95149 -2.41498,7.40003 -4.5147,14.9036 -6.24751,22.49297 -1.41971,6.01574 -2.51745,12.10515 -3.50391,18.20464 -1.46202,9.51436 -2.40731,19.10879 -2.79844,28.72732 -0.30128,6.51982 -0.27392,13.05251 -0.10912,19.57588 0.25655,6.89628 0.70425,13.78694 1.49423,20.64413 0.97199,8.86664 2.47967,17.66926 4.34345,26.39009 1.83101,8.12421 3.95685,16.18556 6.55269,24.10067 3.30157,10.1667 7.23734,20.1284 11.81321,29.78967 4.80242,10.20482 10.36359,20.04481 16.5117,29.50143 4.18558,6.424 8.70125,12.62818 13.4375,18.65625 0.80858,1.07791 1.83374,2.26446 2.73828,3.37378 4.38125,5.30973 8.98471,10.43586 13.80525,15.35012 6.77286,6.88281 13.95948,13.36107 21.51897,19.36985 1.12171,0.79934 2.34951,1.81843 3.51488,2.69859 9.18184,7.00758 18.88473,13.33268 29.01934,18.87546 8.43473,4.62139 17.17991,8.70517 26.15296,12.18392 7.79196,3.03059 15.76215,5.59498 23.84973,7.71232 9.28431,2.37838 18.70748,4.22674 28.22334,5.38431 7.05501,0.89116 14.15721,1.39395 21.26466,1.59132 7.17541,0.16654 14.35838,0.0171 21.51635,-0.52318 7.793,-0.55714 15.55283,-1.57933 23.24118,-2.96108 12.2216,-2.26528 24.27411,-5.48652 35.93387,-9.80265 9.26354,-3.38521 18.27932,-7.43463 27.00244,-12.03401 9.75603,-5.17479 19.16275,-11.04328 28.07435,-17.57753 2.4956,-1.79107 4.90774,-3.69316 7.3319,-5.57872 1.09621,-0.80524 2.30558,-1.82146 3.41953,-2.73958 7.64726,-6.33696 14.93297,-13.11972 21.71631,-20.37596 4.53305,-4.79249 8.80331,-9.82487 12.95791,-14.94696 0.77843,-1.09576 1.77987,-2.29499 2.63174,-3.44015 8.25849,-10.77278 15.60915,-22.23437 22.00871,-34.20405 4.60608,-8.62286 8.66958,-17.5505 12.23181,-26.65937 4.55184,-11.73277 8.25454,-23.79475 11.02034,-36.07275 1.34114,-5.72606 2.35752,-11.52529 3.30739,-17.32672 1.47945,-9.57936 2.42628,-19.24096 2.81741,-28.92621 0.29602,-6.52002 0.26935,-13.05264 0.10113,-19.57597 -0.2683,-7.25249 -0.76836,-14.49737 -1.62508,-21.70543 -0.96763,-8.46465 -2.42679,-16.86811 -4.20869,-25.19779 -1.304,-5.76621 -2.73021,-11.50494 -4.40667,-17.17501 -2.31738,-7.95802 -5.06913,-15.78793 -8.14941,-23.48162 -4.16432,-10.27021 -8.94912,-20.2944 -14.48948,-29.89117 -3.82072,-6.77639 -8.0209,-13.33479 -12.46341,-19.71953 -2.82507,-4.00833 -5.7663,-7.93326 -8.80704,-11.78048 -0.80685,-1.0897 -1.825,-2.29244 -2.73828,-3.40503 -7.25152,-8.7688 -15.11039,-17.04034 -23.53454,-24.69035 -3.81599,-3.47483 -7.7673,-6.79691 -11.78968,-10.02962 -1.12171,-0.79934 -2.34951,-1.81843 -3.51488,-2.69859 -8.3865,-6.3928 -17.21087,-12.21107 -26.39073,-17.4008 -6.27137,-3.57239 -12.75032,-6.79651 -19.34954,-9.7304 -6.28344,-2.7974 -12.71378,-5.25061 -19.22767,-7.45564 -6.78241,-2.24719 -13.67157,-4.18306 -20.63801,-5.77267 -11.58961,-2.63576 -23.39124,-4.3401 -35.25717,-5.04382 -5.37646,-0.3079 -10.76823,-0.44092 -16.15325,-0.36683 z"
         id="path3074"
         style="opacity:0.09090899;fill:#ff0000;fill-rule:evenodd;stroke:#000000;stroke-width:1px;stroke-linecap:butt;stroke-linejoin:miter;stroke-opacity:1" />
      <path
         d="m 620,439.50504 c 0,134.91527 -102.97451,244.28572 -230,244.28572 -127.02549,0 -230,-109.37045 -230,-244.28572 0,-134.91528 102.97451,-244.28573 230,-244.28573 127.02549,0 230,109.37045 230,244.28573 z"
         id="path3078"
         style="opacity:0.09090899;fill:#ff0000;fill-rule:evenodd;stroke:#000000;stroke-width:1px;stroke-linecap:butt;stroke-linejoin:miter;stroke-opacity:1" />
      <path
         d="m 387.03125,195.15625 c -10.36757,0.13362 -20.72484,0.99844 -30.96701,2.61455 -10.42042,1.62089 -20.71235,4.04175 -30.78887,7.15086 -5.11312,1.57387 -10.15384,3.38407 -15.14193,5.31599 -8.23445,3.24457 -16.26801,6.99084 -24.0657,11.17678 -4.77337,2.53958 -9.43706,5.31578 -14.01379,8.20457 -6.81669,4.33441 -13.41079,9.01923 -19.74145,14.03725 -2.56455,2.14567 -5.22225,4.25516 -7.7473,6.47731 -9.1632,7.92333 -17.67509,16.59247 -25.52217,25.81857 -5.70435,6.70704 -11.05443,13.71 -15.97777,21.02461 -5.12771,7.53539 -9.77833,15.38815 -14.06526,23.42951 -3.77187,7.25541 -7.25493,14.68071 -10.32684,22.26642 -2.2691,5.56885 -4.31908,11.22853 -6.192,16.94248 -2.3868,7.33927 -4.43704,14.7874 -6.14778,22.31313 -1.35437,5.80176 -2.4113,11.67149 -3.36195,17.55092 -1.45665,9.52536 -2.42667,19.12741 -2.8176,28.75668 -0.31246,6.55276 -0.28384,13.11895 -0.12211,19.67568 0.25523,6.96302 0.70882,13.92029 1.50838,20.84345 0.97783,8.85296 2.46474,17.64585 4.3323,26.35322 1.83101,8.12421 3.95685,16.18556 6.55269,24.10067 3.30157,10.1667 7.23734,20.1284 11.81321,29.78967 7.14406,15.19639 15.88814,29.63948 25.98315,43.06188 4.18696,5.61442 8.72506,10.94339 13.35189,16.21134 4.60033,5.04973 9.33569,9.98146 14.35349,14.6197 6.3808,5.96873 13.07203,11.58899 20.06034,16.81306 9.29518,6.92464 19.11111,13.14627 29.34556,18.58796 6.21778,3.22685 12.54474,6.28501 19.03073,8.95268 9.15628,3.80238 18.57206,6.97976 28.16254,9.49486 8.87812,2.29781 17.88693,4.1106 26.98603,5.26967 7.60883,1.02909 15.27658,1.59785 22.95038,1.8112 7.17541,0.16654 14.35838,0.0171 21.51635,-0.52318 7.71432,-0.54815 15.39359,-1.56786 23.00878,-2.90599 11.52243,-2.11862 22.88944,-5.09573 33.93144,-9.01756 7.05186,-2.52026 13.98766,-5.36603 20.74845,-8.58897 6.74961,-3.20867 13.35069,-6.71281 19.74528,-10.58575 8.44976,-5.07841 16.54215,-10.74294 24.27479,-16.85572 3.90287,-3.16613 7.80328,-6.417 11.52563,-9.824 5.80868,-5.21989 11.3177,-10.76728 16.56649,-16.54874 3.89408,-4.32085 7.65021,-8.79383 11.26076,-13.33096 10.08943,-12.93881 18.92666,-26.86735 26.25154,-41.54506 5.10089,-10.22239 9.52636,-20.78233 13.19131,-31.60377 3.00494,-8.77661 5.46791,-17.73304 7.50379,-26.78235 1.21867,-5.45614 2.20962,-10.96447 3.08513,-16.48489 1.45315,-9.49252 2.3965,-19.06383 2.78401,-28.65961 0.30128,-6.51982 0.27392,-13.05251 0.10912,-19.57588 -0.26655,-7.31928 -0.77349,-14.63068 -1.63924,-21.90476 -0.96289,-8.38535 -2.39376,-16.71215 -4.15241,-24.96607 -1.30674,-5.76973 -2.72266,-11.51535 -4.39981,-17.18961 -2.32718,-8.02032 -5.09825,-15.91002 -8.20139,-23.66187 -3.69663,-9.11277 -7.88724,-18.03474 -12.62733,-26.64625 -4.24618,-7.72031 -8.89142,-15.22075 -13.93028,-22.44923 -6.02432,-8.66024 -12.63449,-16.86493 -19.73245,-24.66847 -6.95681,-7.61729 -14.3815,-14.80988 -22.27967,-21.44829 -4.77596,-4.01846 -9.64856,-7.89301 -14.75555,-11.49766 -6.72296,-4.79649 -13.70619,-9.22222 -20.89835,-13.28053 -5.9731,-3.32353 -12.09765,-6.39591 -18.33675,-9.202 -6.31339,-2.81077 -12.75571,-5.32545 -19.30335,-7.53656 -6.02099,-2.04887 -12.15222,-3.76822 -18.32391,-5.29998 -11.94629,-2.87306 -24.12951,-4.76731 -36.38967,-5.59611 -5.9761,-0.40706 -11.97465,-0.55982 -17.96387,-0.48485 z"
         id="path3080"
         style="opacity:0.09090899;fill:#ff0000;fill-rule:evenodd;stroke:#000000;stroke-width:1px;stroke-linecap:butt;stroke-linejoin:miter;stroke-opacity:1" />
      <path
         d="m 387.03125,195.0625 c -35.11287,0.3988 -70.04904,9.53595 -100.93747,26.2117 -19.29057,10.43703 -37.11531,23.63646 -52.74201,39.06658 -14.87782,14.70756 -27.86759,31.41987 -38.50424,49.4603 -14.29581,24.04606 -24.31964,50.64708 -29.89673,78.06968 -6.36668,31.58072 -6.83071,64.34788 -1.33531,96.09211 5.13463,29.81846 15.61395,58.72525 30.94701,84.81838 7.92689,13.32572 16.99333,26.06724 27.29996,37.70276 18.53265,21.13577 40.96318,38.91415 65.79135,52.09163 23.54866,12.44193 49.36172,20.58751 75.81017,23.78651 38.2709,4.72639 77.76603,-0.93653 113.15369,-16.26343 26.11475,-11.27107 49.95982,-27.60754 70.19483,-47.59872 14.94178,-14.76743 27.93711,-31.59137 38.59375,-49.71875 14.24674,-24.10421 24.24537,-50.74591 29.75464,-78.21027 6.39817,-32.07654 6.69991,-65.365 0.86438,-97.54873 -5.23752,-29.00171 -15.52348,-57.10288 -30.43421,-82.53311 -7.2402,-12.18161 -15.40365,-23.90109 -24.63,-34.7059 -16.69376,-19.67098 -36.59018,-36.65057 -58.80481,-49.81449 -31.28613,-18.71446 -67.3798,-29.46782 -103.8497,-30.76894 -3.75683,-0.12442 -7.5165,-0.20452 -11.2753,-0.13731 z"
         id="path3084"
         style="opacity:0.09090899;fill:#ff0000;fill-rule:evenodd;stroke:#000000;stroke-width:1px;stroke-linecap:butt;stroke-linejoin:miter;stroke-opacity:1" />
      <path
         d="m 387.03125,194.9375 c -39.73408,0.45358 -79.23989,12.15816 -112.93658,33.18775 -35.93694,22.18426 -65.28805,54.45424 -85.01068,91.73953 -22.67883,42.74362 -32.43678,92.0635 -28.59526,140.27312 3.4566,43.82916 18.23126,86.8971 43.20985,123.16215 23.9684,35.12108 57.42058,63.87231 96.26022,81.39656 39.35257,17.83739 84.06196,23.6604 126.61498,16.30943 41.98817,-6.99743 81.53472,-26.83299 112.91323,-55.4636 31.64985,-28.62644 55.25705,-65.87941 68.34078,-106.47621 16.58644,-51.12264 16.64767,-107.41761 0.17753,-158.5754 -14.57908,-45.68875 -42.57543,-87.11997 -80.19282,-116.95958 -29.10584,-23.17459 -63.99297,-39.22675 -100.7614,-45.4371 -13.1563,-2.34012 -26.62109,-3.32688 -40.01985,-3.15665 z"
         id="path3088"
         style="opacity:0.09090899;fill:#ff0000;fill-rule:evenodd;stroke:#000000;stroke-width:1px;stroke-linecap:butt;stroke-linejoin:miter;stroke-opacity:1" />
      <path
         d="m 387.03125,194.84375 c -45.78198,0.43547 -91.05754,16.06352 -127.81712,43.19128 -47.25386,34.55483 -80.48556,86.99113 -93.20712,144.02559 -14.16212,61.86802 -4.79815,129.11567 26.90695,184.2179 24.59523,43.30867 62.84485,79.01545 108.49457,99.17882 45.89021,20.4682 98.96134,24.36429 147.31169,10.69567 50.92921,-14.02658 95.75165,-47.1906 125.93603,-90.27801 31.07009,-43.99739 46.96441,-98.14358 45.69499,-151.93113 -1.01163,-54.45053 -19.72398,-108.58109 -53.5523,-151.33183 -32.15879,-41.09348 -78.319,-71.45695 -129.50131,-82.6084 -16.41466,-3.72037 -33.40309,-5.37912 -50.26638,-5.15989 z"
         id="path3092"
         style="opacity:0.09090899;fill:#ff0000;fill-rule:evenodd;stroke:#000000;stroke-width:1px;stroke-linecap:butt;stroke-linejoin:miter;stroke-opacity:1" />
      <path
         d="m 387.03125,194.75 c -52.34413,0.43781 -103.80422,20.89649 -143.02007,55.33102 -45.18147,39.12582 -74.4481,95.48556 -82.21205,154.64334 -8.20805,60.49883 5.39177,123.96289 39.19057,174.8906 30.92458,47.34693 79.14124,83.62223 134.16655,97.69754 52.28255,13.74021 109.64734,6.97703 157.3125,-18.46875 55.65546,-29.26172 97.65049,-81.93316 116.20989,-141.79654 22.02932,-69.52162 13.10854,-148.55976 -25.27003,-210.73538 -30.18344,-49.7428 -79.0353,-88.47689 -135.4697,-103.77627 -19.75085,-5.48759 -40.37668,-8.06996 -60.90766,-7.78556 z"
         id="path3096"
         style="opacity:0.09090899;fill:#ff0000;fill-rule:evenodd;stroke:#000000;stroke-width:1px;stroke-linecap:butt;stroke-linejoin:miter;stroke-opacity:1" />
    </g>
  </g>
</svg>
