<?xml version="1.0" encoding="UTF-8" standalone="no"?>
<svg xmlns:svg="http://www.w3.org/2000/svg" xmlns="http://www.w3.org/2000/svg" version="1.2" width="100%" height="100%" id="svg2">
    <g transform="matrix(1.0154743,0,0,0.98476148,17.142857,97.142856)" id="text2985">
      <path
         d="m 344.99627,19.407318 c 14.27798,6.22e-4 26.51655,5.245725 36.71575,15.735324 10.48982,10.199417 15.73492,22.43799 15.73533,36.715756 -4.1e-4,14.5703 -5.24551,26.95457 -15.73533,37.152852 -10.1992,10.19934 -22.43777,15.29875 -36.71575,15.29823 -14.57009,5.2e-4 -26.95436,-5.09889 -37.15285,-15.29823 -10.19913,-10.198282 -15.29854,-22.582552 -15.29823,-37.152852 -3.1e-4,-14.277766 5.0991,-26.516339 15.29823,-36.715756 10.19849,-10.489599 22.58276,-15.734702 37.15285,-15.735324 m -143.80338,46.76888 c 9.32442,5.75e-4 17.33777,3.351613 24.04008,10.053124 6.70184,6.411246 10.05288,14.2789 10.05312,23.602986 -2.4e-4,9.325172 -3.35128,17.338522 -10.05312,24.040082 -6.41092,6.70259 -14.42427,10.05363 -24.04008,10.05312 -9.32484,5.1e-4 -17.33819,-3.35053 -24.04008,-10.05312 -6.70226,-6.70156 -10.0533,-14.71491 -10.05312,-24.040082 -1.8e-4,-9.324086 3.35086,-17.19174 10.05312,-23.602986 6.70189,-6.701511 14.71524,-10.052549 24.04008,-10.053124 m 287.60675,0 c 9.32413,5.75e-4 17.19179,3.351613 23.60299,10.053124 6.70155,6.411246 10.05259,14.2789 10.05312,23.602986 -5.3e-4,9.325172 -3.35157,17.338522 -10.05312,24.040082 -6.4112,6.70259 -14.27886,10.05363 -23.60299,10.05312 -9.61652,5.1e-4 -17.77556,-3.35053 -24.47717,-10.05312 -6.41115,-6.70156 -9.61649,-14.71491 -9.61603,-24.040082 -4.6e-4,-9.324086 3.35058,-17.19174 10.05313,-23.602986 6.7016,-6.701511 14.71495,-10.052549 24.04007,-10.053124 M 570.973,153.15757 c 9.32405,4.9e-4 17.1917,3.35153 23.60299,10.05313 6.70147,6.41116 10.05251,14.42451 10.05312,24.04007 -6.1e-4,9.32509 -3.35165,17.33844 -10.05312,24.04008 -6.41129,6.41111 -14.27894,9.61645 -23.60299,9.61603 -9.6166,4.2e-4 -17.77565,-3.20492 -24.47717,-9.61603 -6.41123,-6.70164 -9.61657,-14.71499 -9.61603,-24.04008 -5.4e-4,-9.61556 3.35049,-17.62891 10.05312,-24.04007 6.70152,-6.7016 14.71488,-10.05264 24.04008,-10.05313 m -451.95347,0 c 9.61589,4.9e-4 17.62924,3.35153 24.04008,10.05313 6.70192,6.41116 10.05296,14.42451 10.05312,24.04007 -1.6e-4,9.32509 -3.3512,17.33844 -10.05312,24.04008 -6.41084,6.41111 -14.42419,9.61645 -24.04008,9.61603 -9.32476,4.2e-4 -17.33811,-3.20492 -24.040079,-9.61603 -6.410785,-6.70164 -9.616125,-14.71499 -9.616032,-24.04008 -9.3e-5,-9.61556 3.205247,-17.62891 9.616032,-24.04007 6.701969,-6.7016 14.715319,-10.05264 24.040079,-10.05313 m 225.97674,51.5769 c 36.13257,4.3e-4 67.0204,12.96749 92.66357,38.90122 25.93367,25.64312 38.90073,56.53095 38.90122,92.66357 -4.9e-4,36.13324 -12.96755,67.16676 -38.90122,93.10067 -25.64317,25.64293 -56.531,38.4643 -92.66357,38.46412 -36.13329,1.8e-4 -67.16681,-12.82119 -93.10067,-38.46412 -25.64299,-25.93391 -38.46435,-56.96743 -38.46413,-93.10067 -2.2e-4,-36.13262 12.82114,-67.02045 38.46413,-92.66357 25.93386,-25.93373 56.96738,-38.90079 93.10067,-38.90122 M 83.61505,283.84818 c 14.569638,3.6e-4 26.95391,5.24546 37.15285,15.73532 10.49007,10.19916 15.73518,22.43773 15.73532,36.71576 -1.4e-4,14.57004 -5.24525,26.95431 -15.73532,37.15285 -10.19894,10.19908 -22.583212,15.29848 -37.15285,15.29823 -14.278427,2.5e-4 -26.662698,-5.09915 -37.152848,-15.29823 C 36.263336,363.25357 31.16393,350.8693 31.16397,336.29926 c -4e-5,-14.27803 5.099366,-26.5166 15.298232,-36.71576 10.49015,-10.48986 22.874421,-15.73496 37.152848,-15.73532 m 522.32534,0 c 14.56911,3.6e-4 26.95339,5.24546 37.15285,15.73532 10.48955,10.19916 15.73465,22.43773 15.73532,36.71576 -6.7e-4,14.57004 -5.24577,26.95431 -15.73532,37.15285 -10.19946,10.19908 -22.58374,15.29848 -37.15285,15.29823 -14.27895,2.5e-4 -26.66322,-5.09915 -37.15285,-15.29823 -10.19939,-10.19854 -15.29879,-22.58281 -15.29823,-37.15285 -5.6e-4,-14.27803 5.09884,-26.5166 15.29823,-36.71576 10.48963,-10.48986 22.8739,-15.73496 37.15285,-15.73532 M 570.973,451.69164 c 9.32405,1.9e-4 17.1917,3.35122 23.60299,10.05312 6.70147,6.41086 10.05251,14.27852 10.05312,23.60299 -6.1e-4,9.32478 -3.35165,17.33813 -10.05312,24.04007 -6.41129,6.70221 -14.27894,10.05325 -23.60299,10.05313 -9.6166,1.2e-4 -17.77565,-3.20522 -24.47717,-9.61603 -6.41123,-6.70195 -9.61657,-14.861 -9.61603,-24.47717 -5.4e-4,-9.32447 3.35049,-17.19213 10.05312,-23.60299 6.70152,-6.7019 14.71488,-10.05293 24.04008,-10.05312 m -451.95347,0 c 9.61589,1.9e-4 17.62924,3.35122 24.04008,10.05312 6.70192,6.41086 10.05296,14.27852 10.05312,23.60299 -1.6e-4,9.32478 -3.3512,17.33813 -10.05312,24.04007 -6.41084,6.70221 -14.42419,10.05325 -24.04008,10.05313 -9.32476,1.2e-4 -17.33811,-3.20522 -24.040079,-9.61603 -6.410785,-6.70195 -9.616125,-14.861 -9.616032,-24.47717 -9.3e-5,-9.32447 3.205247,-17.19213 9.616032,-23.60299 6.701969,-6.7019 14.715319,-10.05293 24.040079,-10.05312 m 369.78011,86.98137 c 9.32413,10e-5 17.19179,3.35114 23.60299,10.05312 6.70155,6.70217 10.05259,14.71552 10.05312,24.04008 -5.3e-4,9.3247 -3.35157,17.33805 -10.05312,24.04008 -6.4112,6.70212 -14.27886,10.05316 -23.60299,10.05313 -9.61652,3e-5 -17.77556,-3.35101 -24.47717,-10.05313 -6.41115,-6.70203 -9.61649,-14.71538 -9.61603,-24.04008 -4.6e-4,-9.61595 3.35058,-17.6293 10.05313,-24.04008 6.7016,-6.70198 14.71495,-10.05302 24.04007,-10.05312 m -287.60675,0 c 9.32442,10e-5 17.33777,3.35114 24.04008,10.05312 6.70184,6.70217 10.05288,14.71552 10.05312,24.04008 -2.4e-4,9.3247 -3.35128,17.33805 -10.05312,24.04008 -6.41092,6.70212 -14.42427,10.05316 -24.04008,10.05313 -9.32484,3e-5 -17.33819,-3.35101 -24.04008,-10.05313 -6.70226,-6.70203 -10.0533,-14.71538 -10.05312,-24.04008 -1.8e-4,-9.61595 3.35086,-17.6293 10.05312,-24.04008 6.70189,-6.70198 14.71524,-10.05302 24.04008,-10.05312 m 143.80338,9.61603 c 14.27798,10e-5 26.51655,5.2452 36.71575,15.73533 10.48982,10.19888 15.73492,22.43746 15.73533,36.71575 -4.1e-4,14.56977 -5.24551,27.09974 -15.73533,37.58994 -10.1992,10.19882 -22.43777,15.29822 -36.71575,15.29823 -14.57009,-10e-6 -26.95436,-5.09941 -37.15285,-15.29823 -10.19913,-10.4902 -15.29854,-23.02017 -15.29823,-37.58994 -3.1e-4,-14.27829 5.0991,-26.51687 15.29823,-36.71575 10.19849,-10.49013 22.58276,-15.73523 37.15285,-15.73533"
         id="path2998"/>
    </g>
</svg>
