<?xml version="1.0" encoding="UTF-8"?>

<svg version="1.2" baseProfile="tiny" viewBox="0 0 7620 5080" preserveAspectRatio="xMidYMid" fill-rule="evenodd" clip-path="url(#presentation_clip_path)" stroke-width="28.222" stroke-linejoin="round" xmlns="http://www.w3.org/2000/svg" xmlns:xlink="http://www.w3.org/1999/xlink" xmlns:draw="urn:oasis:names:tc:opendocument:xmlns:drawing:1.0" xmlns:presentation="urn:oasis:names:tc:opendocument:xmlns:presentation:1.0" xmlns:smil="urn:oasis:names:tc:opendocument:xmlns:smil-compatible:1.0" xmlns:anim="urn:oasis:names:tc:opendocument:xmlns:animation:1.0" xml:space="preserve">
 <defs>
  <clipPath id="presentation_clip_path" clipPathUnits="userSpaceOnUse">
   <rect x="0" y="0" width="7620" height="5080"/>
  </clipPath>
 </defs>
 <g id="id2" class="Master_Slide" clip-path="url(#presentation_clip_path)">
  <g id="bg-id2" visibility="visible" class="Background">
   <rect fill="none" stroke="none" x="0" y="0" width="7620" height="5080"/>
  </g>
  <g id="bo-id2" visibility="visible" class="BackgroundObjects"/>
 </g>
 <g id="id1" class="Slide" visibility="visible" clip-path="url(#presentation_clip_path)">
  <g class="Group">
   <g class="com.sun.star.drawing.CustomShape">
    <g>
     <path fill="rgb(207,231,245)" stroke="none" d="M 776,735 C 628,735 480,883 480,1031 L 480,2217 C 480,2365 628,2514 776,2514 L 4375,2514 C 4523,2514 4672,2365 4672,2217 L 4672,1031 C 4672,883 4523,735 4375,735 L 776,735 Z M 480,735 L 480,735 Z M 4672,2514 L 4672,2514 Z"/>
     <path fill="none" stroke="rgb(128,128,128)" d="M 776,735 C 628,735 480,883 480,1031 L 480,2217 C 480,2365 628,2514 776,2514 L 4375,2514 C 4523,2514 4672,2365 4672,2217 L 4672,1031 C 4672,883 4523,735 4375,735 L 776,735"/>
     <path fill="none" stroke="rgb(128,128,128)" d="M 480,735 L 480,735"/>
     <path fill="none" stroke="rgb(128,128,128)" d="M 4672,2514 L 4672,2514"/>
     <rect fill="none" stroke="none" x="481" y="735" width="4192" height="1779"/>
    </g>
   </g>
   <g class="Group">
    <g class="com.sun.star.drawing.PolyPolygonShape">
     <g>
      <path fill="rgb(0,0,0)" stroke="none" d="M 1045,2398 L 890,2398 890,880 1045,880 1045,1499 1620,1499 1620,880 1774,880 1774,2398 1620,2398 1620,1676 1045,1676 1045,2398 Z"/>
      <rect fill="none" stroke="none" x="889" y="880" width="887" height="1520"/>
     </g>
    </g>
    <g class="com.sun.star.drawing.ClosedBezierShape">
     <g>
      <path fill="rgb(0,0,0)" stroke="none" d="M 2581,2044 L 2722,2074 C 2699,2181 2656,2265 2595,2324 2533,2383 2454,2413 2358,2413 2237,2413 2141,2364 2070,2266 1999,2168 1963,2031 1963,1855 1963,1672 1999,1530 2071,1429 2143,1329 2236,1278 2350,1278 2460,1278 2551,1328 2621,1428 2691,1527 2726,1667 2726,1848 2726,1859 2726,1875 2725,1897 L 2107,1897 C 2112,2007 2138,2091 2185,2149 2232,2207 2290,2236 2360,2236 2412,2236 2457,2221 2493,2190 2530,2160 2559,2111 2581,2044 Z M 2107,1720 L 2583,1720 C 2576,1643 2558,1584 2528,1546 2482,1485 2422,1455 2349,1455 2283,1455 2227,1479 2182,1527 2137,1575 2112,1640 2107,1720 Z"/>
      <rect fill="none" stroke="none" x="1963" y="1278" width="765" height="1136"/>
     </g>
    </g>
    <g class="com.sun.star.drawing.PolyPolygonShape">
     <g>
      <path fill="rgb(0,0,0)" stroke="none" d="M 3047,2398 L 2904,2398 2904,880 3047,880 3047,2398 Z"/>
      <rect fill="none" stroke="none" x="2903" y="880" width="146" height="1520"/>
     </g>
    </g>
    <g class="com.sun.star.drawing.PolyPolygonShape">
     <g>
      <path fill="rgb(0,0,0)" stroke="none" d="M 3401,2398 L 3257,2398 3257,880 3401,880 3401,2398 Z"/>
      <rect fill="none" stroke="none" x="3257" y="880" width="146" height="1520"/>
     </g>
    </g>
    <g class="com.sun.star.drawing.ClosedBezierShape">
     <g>
      <path fill="rgb(0,0,0)" stroke="none" d="M 3567,1846 C 3567,1644 3608,1496 3690,1399 3760,1318 3844,1278 3943,1278 4053,1278 4143,1327 4213,1425 4283,1523 4318,1658 4318,1830 4318,1970 4303,2080 4272,2160 4241,2240 4196,2302 4137,2346 4078,2391 4013,2413 3943,2413 3831,2413 3740,2364 3671,2267 3601,2169 3567,2029 3567,1846 Z M 3710,1845 C 3710,1976 3732,2074 3777,2139 3821,2204 3876,2236 3943,2236 4009,2236 4064,2203 4109,2138 4153,2073 4175,1973 4175,1839 4175,1713 4153,1618 4108,1553 4064,1488 4009,1455 3943,1455 3876,1455 3821,1487 3777,1552 3732,1617 3710,1714 3710,1845 Z"/>
      <rect fill="none" stroke="none" x="3566" y="1278" width="754" height="1136"/>
     </g>
    </g>
   </g>
  </g>
 </g>
</svg>