<?xml version="1.0" encoding="UTF-8"?>

<svg version="1.2" baseProfile="tiny" viewBox="0 0 27940 21590" preserveAspectRatio="xMidYMid" fill-rule="evenodd" clip-path="url(#presentation_clip_path)" stroke-width="28.222" stroke-linejoin="round" xmlns="http://www.w3.org/2000/svg" xmlns:xlink="http://www.w3.org/1999/xlink" xmlns:draw="urn:oasis:names:tc:opendocument:xmlns:drawing:1.0" xmlns:presentation="urn:oasis:names:tc:opendocument:xmlns:presentation:1.0" xmlns:smil="urn:oasis:names:tc:opendocument:xmlns:smil-compatible:1.0" xmlns:anim="urn:oasis:names:tc:opendocument:xmlns:animation:1.0" xml:space="preserve">
 <defs>
  <clipPath id="presentation_clip_path" clipPathUnits="userSpaceOnUse">
   <rect x="0" y="0" width="27940" height="21590"/>
  </clipPath>
 </defs>
 <g id="id2" class="Master_Slide" clip-path="url(#presentation_clip_path)">
  <g id="bg-id2" visibility="visible" class="Background">
   <rect fill="none" stroke="none" x="0" y="0" width="27940" height="21590"/>
  </g>
  <g id="bo-id2" visibility="visible" class="BackgroundObjects"/>
 </g>
 <g id="id1" class="Slide" visibility="visible" clip-path="url(#presentation_clip_path)">
  <g class="com.sun.star.drawing.CustomShape">
   <g>
    <path fill="rgb(207,231,245)" stroke="none" d="M 1111,635 C 936,635 761,810 761,985 L 761,7397 C 761,7572 936,7748 1111,7748 L 12730,7748 C 12905,7748 13081,7572 13081,7397 L 13081,985 C 13081,810 12905,635 12730,635 L 1111,635 Z M 761,635 L 761,635 Z M 13081,7748 L 13081,7748 Z"/>
    <path fill="none" stroke="rgb(128,128,128)" d="M 1111,635 C 936,635 761,810 761,985 L 761,7397 C 761,7572 936,7748 1111,7748 L 12730,7748 C 12905,7748 13081,7572 13081,7397 L 13081,985 C 13081,810 12905,635 12730,635 L 1111,635"/>
    <path fill="none" stroke="rgb(128,128,128)" d="M 761,635 L 761,635"/>
    <path fill="none" stroke="rgb(128,128,128)" d="M 13081,7748 L 13081,7748"/>
    <rect fill="none" stroke="none" x="762" y="635" width="12320" height="7113"/>
   </g>
  </g>
  <g class="Group">
   <g class="com.sun.star.drawing.ClosedBezierShape">
    <g>
     <path fill="rgb(0,0,0)" stroke="none" d="M 13980,4519 C 13980,3964 13980,3408 13980,2853 14092,2853 14204,2853 14316,2853 14316,3071 14316,3290 14316,3508 14536,3508 14756,3508 14975,3508 14975,3290 14975,3071 14975,2853 15087,2853 15200,2853 15312,2853 15312,3408 15312,3964 15312,4519 15200,4519 15087,4519 14975,4519 14975,4276 14975,4033 14975,3790 14756,3790 14536,3790 14316,3790 14316,4033 14316,4276 14316,4519 14204,4519 14092,4519 13980,4519 Z"/>
     <rect fill="none" stroke="none" x="13979" y="2852" width="1334" height="1668"/>
    </g>
   </g>
   <g class="com.sun.star.drawing.ClosedBezierShape">
    <g>
     <path fill="rgb(0,0,0)" stroke="none" d="M 16356,4135 L 16674,4188 C 16634,4305 16569,4394 16481,4455 16392,4516 16282,4546 16149,4546 15939,4546 15784,4478 15683,4341 15604,4231 15564,4092 15564,3924 15564,3724 15616,3568 15721,3454 15825,3341 15958,3285 16117,3285 16297,3285 16439,3344 16543,3462 16646,3581 16696,3763 16692,4007 L 15891,4007 C 15894,4102 15919,4176 15969,4229 16018,4281 16079,4308 16153,4308 16203,4308 16245,4294 16279,4267 16313,4239 16339,4195 16356,4135 Z M 16374,3812 C 16372,3720 16348,3649 16303,3601 16257,3553 16202,3529 16137,3529 16067,3529 16009,3554 15964,3605 15919,3656 15896,3725 15897,3812 L 16374,3812 Z"/>
     <rect fill="none" stroke="none" x="15563" y="3284" width="1130" height="1264"/>
    </g>
   </g>
   <g class="com.sun.star.drawing.ClosedBezierShape">
    <g>
     <path fill="rgb(0,0,0)" stroke="none" d="M 16952,4519 C 16952,3964 16952,3408 16952,2853 17059,2853 17165,2853 17272,2853 17272,3408 17272,3964 17272,4519 17165,4519 17059,4519 16952,4519 Z"/>
     <rect fill="none" stroke="none" x="16952" y="2852" width="321" height="1668"/>
    </g>
   </g>
   <g class="com.sun.star.drawing.ClosedBezierShape">
    <g>
     <path fill="rgb(0,0,0)" stroke="none" d="M 17600,4519 C 17600,3964 17600,3408 17600,2853 17707,2853 17813,2853 17920,2853 17920,3408 17920,3964 17920,4519 17813,4519 17707,4519 17600,4519 Z"/>
     <rect fill="none" stroke="none" x="17600" y="2852" width="321" height="1668"/>
    </g>
   </g>
   <g class="com.sun.star.drawing.ClosedBezierShape">
    <g>
     <path fill="rgb(0,0,0)" stroke="none" d="M 18173,3898 C 18173,3792 18199,3690 18252,3590 18304,3491 18378,3415 18474,3363 18570,3311 18677,3285 18795,3285 18978,3285 19127,3344 19244,3462 19361,3581 19419,3731 19419,3912 19419,4095 19360,4246 19242,4366 19124,4486 18976,4546 18797,4546 18687,4546 18581,4521 18481,4471 18380,4421 18304,4348 18252,4251 18199,4155 18173,4037 18173,3898 Z M 18501,3915 C 18501,4035 18529,4127 18586,4190 18643,4254 18713,4286 18796,4286 18879,4286 18949,4254 19006,4190 19062,4127 19091,4034 19091,3913 19091,3795 19062,3704 19006,3640 18949,3577 18879,3545 18796,3545 18713,3545 18643,3577 18586,3640 18529,3704 18501,3796 18501,3915 Z"/>
     <rect fill="none" stroke="none" x="18173" y="3284" width="1248" height="1264"/>
    </g>
   </g>
   <g class="com.sun.star.drawing.ClosedBezierShape">
    <g>
     <path fill="rgb(0,0,0)" stroke="none" d="M 20557,4519 C 20424,3964 20292,3408 20159,2853 20274,2853 20389,2853 20503,2853 20587,3234 20671,3616 20755,3997 20856,3616 20958,3234 21059,2853 21193,2853 21326,2853 21459,2853 21557,3241 21654,3629 21752,4017 21837,3629 21922,3241 22007,2853 22120,2853 22233,2853 22346,2853 22211,3408 22076,3964 21941,4519 21822,4519 21703,4519 21584,4519 21474,4104 21363,3688 21252,3273 21142,3688 21032,4104 20922,4519 20800,4519 20678,4519 20557,4519 Z"/>
     <rect fill="none" stroke="none" x="20158" y="2852" width="2190" height="1668"/>
    </g>
   </g>
   <g class="com.sun.star.drawing.ClosedBezierShape">
    <g>
     <path fill="rgb(0,0,0)" stroke="none" d="M 22398,3898 C 22398,3792 22424,3690 22477,3590 22529,3491 22603,3415 22699,3363 22795,3311 22902,3285 23020,3285 23203,3285 23352,3344 23469,3462 23586,3581 23644,3731 23644,3912 23644,4095 23585,4246 23467,4366 23349,4486 23201,4546 23022,4546 22912,4546 22806,4521 22706,4471 22605,4421 22529,4348 22477,4251 22424,4155 22398,4037 22398,3898 Z M 22726,3915 C 22726,4035 22754,4127 22811,4190 22868,4254 22938,4286 23021,4286 23104,4286 23174,4254 23231,4190 23287,4127 23316,4034 23316,3913 23316,3795 23287,3704 23231,3640 23174,3577 23104,3545 23021,3545 22938,3545 22868,3577 22811,3640 22754,3704 22726,3796 22726,3915 Z"/>
     <rect fill="none" stroke="none" x="22398" y="3284" width="1248" height="1264"/>
    </g>
   </g>
   <g class="com.sun.star.drawing.ClosedBezierShape">
    <g>
     <path fill="rgb(0,0,0)" stroke="none" d="M 24201,4519 L 23881,4519 23881,3312 24178,3312 24178,3483 C 24229,3402 24275,3349 24315,3323 24356,3297 24402,3285 24453,3285 24526,3285 24596,3305 24664,3345 L 24565,3623 C 24511,3588 24461,3571 24415,3571 24370,3571 24332,3583 24301,3608 24270,3633 24245,3677 24228,3741 24210,3806 24201,3941 24201,4146 L 24201,4519 Z"/>
     <rect fill="none" stroke="none" x="23881" y="3284" width="784" height="1236"/>
    </g>
   </g>
   <g class="com.sun.star.drawing.ClosedBezierShape">
    <g>
     <path fill="rgb(0,0,0)" stroke="none" d="M 24801,4519 C 24801,3964 24801,3408 24801,2853 24908,2853 25014,2853 25121,2853 25121,3408 25121,3964 25121,4519 25014,4519 24908,4519 24801,4519 Z"/>
     <rect fill="none" stroke="none" x="24801" y="2852" width="321" height="1668"/>
    </g>
   </g>
   <g class="com.sun.star.drawing.ClosedBezierShape">
    <g>
     <path fill="rgb(0,0,0)" stroke="none" d="M 26555,4519 L 26259,4519 26259,4342 C 26209,4411 26151,4462 26084,4496 26017,4529 25949,4546 25881,4546 25743,4546 25624,4490 25525,4379 25426,4267 25376,4111 25376,3911 25376,3706 25425,3551 25521,3444 25617,3338 25739,3285 25886,3285 26021,3285 26137,3341 26236,3453 L 26236,2853 26555,2853 26555,4519 Z M 25703,3889 C 25703,4018 25721,4111 25756,4169 25808,4252 25880,4294 25972,4294 26046,4294 26108,4263 26160,4200 26211,4138 26237,4044 26237,3920 26237,3781 26212,3681 26162,3620 26112,3559 26048,3529 25970,3529 25894,3529 25831,3559 25779,3619 25728,3680 25703,3770 25703,3889 Z"/>
     <rect fill="none" stroke="none" x="25376" y="2852" width="1181" height="1696"/>
    </g>
   </g>
  </g>
 </g>
</svg>