<?xml version="1.0" encoding="UTF-8"?>
<svg xmlns="http://www.w3.org/2000/svg">
 <g>
  <title>helmet</title>
  <path stroke="#000000" id="svg_5" d="m71.06603,204.22881c54.05791,55.69881 10.19961,54.25832 105.05593,50.41702c94.85634,-3.84129 49.97807,84.50853 87.7166,9.60326c37.73856,-74.9053 92.81641,4.80161 32.63873,-77.78629c-60.17766,-82.58788 44.87827,-149.81059 -110.15572,-145.96929c-155.03401,3.8413 -117.29546,35.532 -113.21562,75.86562c4.07984,40.33362 -53.54793,59.5401 -20.90919,73.46481" stroke-linecap="square" stroke-linejoin="round" stroke-width="3" fill="#dddddd"/>
 </g> 
 <!-- <g>
  <title>helmet</title>
  <path stroke="#000000" id="svg_5" d="m71.06603,204.22881c54.05791,55.69881 10.19961,54.25832 105.05593,50.41702c94.85634,-3.84129 49.97807,84.50853 87.7166,9.60326c37.73856,-74 92,4 23,-77.78629c-60.17766,-82.58788 44.87827,-149.81059 -110.15572,-145.96929c-155.03401,3.8413 -117.29546,35.532 -113.21562,75.86562c4.07984,40.33362 -66,59 -20,73.46481" stroke-linecap="square" stroke-linejoin="round" stroke-width="3" fill="#dddddd"/>
 </g> -->
</svg>