<?xml version="1.0" encoding="UTF-8" standalone="no"?>
<!DOCTYPE svg PUBLIC "-//W3C//DTD SVG 1.0//EN" "http://www.w3.org/TR/2001/REC-SVG-20010904/DTD/svg10.dtd">
<!-- Generated by Microsoft Visio 11.0, SVG Export, v1.0 monitor.svg Page-1 -->
<svg xmlns="http://www.w3.org/2000/svg" xmlns:v="http://schemas.microsoft.com/visio/2003/SVGExtensions/" width="3.96917in"
		height="3.80694in" viewBox="0 0 285.78 274.1" xml:space="preserve" color-interpolation-filters="sRGB" class="st9">
	<v:documentProperties v:langID="1033" v:viewMarkup="false"/>

	<style type="text/css">
	<![CDATA[
		.st1 {fill:#ffffff}
		.st2 {fill:url(#grad31-8);stroke:#000000;stroke-linecap:round;stroke-linejoin:round;stroke-width:0.72}
		.st3 {fill:url(#grad30-17);stroke:#000000;stroke-linecap:round;stroke-linejoin:round;stroke-width:0.72}
		.st4 {fill:url(#grad32-24)}
		.st5 {stroke:#000000;stroke-linecap:round;stroke-linejoin:round;stroke-width:0.72}
		.st6 {fill:none;stroke:#000000;stroke-linecap:round;stroke-linejoin:round;stroke-width:1.5}
		.st7 {fill:url(#grad40-44);stroke:#000000;stroke-linecap:round;stroke-linejoin:round;stroke-width:0.12}
		.st8 {fill:url(#grad35-48);stroke:#000000;stroke-linecap:round;stroke-linejoin:round;stroke-width:0.72}
		.st9 {fill:none;fill-rule:evenodd;font-size:12;overflow:visible;stroke-linecap:square;stroke-miterlimit:3}
	]]>
	</style>

	<defs id="Patterns_And_Gradients">
		<pattern id="grad31-8" v:fillPattern="31" v:foreground="#b0c5e3" v:background="#edf1f8" x="0" y="0" width="1" height="1"
				patternContentUnits="objectBoundingBox">
			<path d="M 0 0 L 0 1 L 1 1 z" style="fill:url(#grad28-9)"/>
			<path d="M 0 0 L 1 0 L 1 1 z" style="fill:url(#grad25-10)"/>
		</pattern>
		<linearGradient id="grad28-9" v:fillPattern="31" v:foreground="#b0c5e3" v:background="#edf1f8" x1="0" y1="0" x2="0" y2="1">
			<stop offset="0" style="stop-color:#b0c5e3;stop-opacity:1"/>
			<stop offset="1" style="stop-color:#edf1f8;stop-opacity:1"/>
		</linearGradient>
		<linearGradient id="grad25-10" v:fillPattern="31" v:foreground="#b0c5e3" v:background="#edf1f8" x1="0" y1="0" x2="1" y2="0">
			<stop offset="0" style="stop-color:#b0c5e3;stop-opacity:1"/>
			<stop offset="1" style="stop-color:#edf1f8;stop-opacity:1"/>
		</linearGradient>
		<linearGradient id="grad30-17" v:fillPattern="30" v:foreground="#f2f4ec" v:background="#d0dcee" x1="0" y1="1" x2="0" y2="0">
			<stop offset="0" style="stop-color:#f2f4ec;stop-opacity:1"/>
			<stop offset="1" style="stop-color:#d0dcee;stop-opacity:1"/>
		</linearGradient>
		<pattern id="grad32-24" v:fillPattern="32" v:foreground="#ffffff" v:background="#c0c0c0" x="0" y="0" width="1" height="1"
				patternContentUnits="objectBoundingBox">
			<path d="M 0 1 L 0 0 L 1 0 z" style="fill:url(#grad27-25)"/>
			<path d="M 0 1 L 1 1 L 1 0 z" style="fill:url(#grad28-26)"/>
		</pattern>
		<linearGradient id="grad27-25" v:fillPattern="32" v:foreground="#ffffff" v:background="#c0c0c0" x1="1" y1="0" x2="0" y2="0">
			<stop offset="0" style="stop-color:#ffffff;stop-opacity:1"/>
			<stop offset="1" style="stop-color:#c0c0c0;stop-opacity:1"/>
		</linearGradient>
		<linearGradient id="grad28-26" v:fillPattern="32" v:foreground="#ffffff" v:background="#c0c0c0" x1="0" y1="0" x2="0" y2="1">
			<stop offset="0" style="stop-color:#ffffff;stop-opacity:1"/>
			<stop offset="1" style="stop-color:#c0c0c0;stop-opacity:1"/>
		</linearGradient>
		<pattern id="grad31-35" v:fillPattern="31" v:foreground="#ffffff" v:background="#a7a7a7" x="0" y="0" width="1" height="1"
				patternContentUnits="objectBoundingBox">
			<path d="M 0 0 L 0 1 L 1 1 z" style="fill:url(#grad28-36)"/>
			<path d="M 0 0 L 1 0 L 1 1 z" style="fill:url(#grad25-37)"/>
		</pattern>
		<linearGradient id="grad28-36" v:fillPattern="31" v:foreground="#ffffff" v:background="#a7a7a7" x1="0" y1="0" x2="0" y2="1">
			<stop offset="0" style="stop-color:#ffffff;stop-opacity:1"/>
			<stop offset="1" style="stop-color:#a7a7a7;stop-opacity:1"/>
		</linearGradient>
		<linearGradient id="grad25-37" v:fillPattern="31" v:foreground="#ffffff" v:background="#a7a7a7" x1="0" y1="0" x2="1" y2="0">
			<stop offset="0" style="stop-color:#ffffff;stop-opacity:1"/>
			<stop offset="1" style="stop-color:#a7a7a7;stop-opacity:1"/>
		</linearGradient>
		<radialGradient id="grad40-44" v:fillPattern="40" v:foreground="#ffffff" v:background="#008000" cx="0.5" cy="0.5" r="0.5">
			<stop offset="0" style="stop-color:#ffffff;stop-opacity:1"/>
			<stop offset="1" style="stop-color:#008000;stop-opacity:1"/>
		</radialGradient>
		<pattern id="grad35-48" v:fillPattern="35" v:foreground="#ffffff" v:background="#c6d1e3" x="0" y="0" width="1" height="1"
				patternContentUnits="objectBoundingBox">
			<path d="M 0.5 0.5 L 0 0 L 0 1 z" style="fill:url(#grad27-49)"/>
			<path d="M 0.5 0.5 L 1 0 L 1 1 z" style="fill:url(#grad25-50)"/>
			<path d="M 0.5 0.5 L 0 0 L 1 0 z" style="fill:url(#grad30-51)"/>
			<path d="M 0.5 0.5 L 0 1 L 1 1 z" style="fill:url(#grad28-52)"/>
		</pattern>
		<linearGradient id="grad27-49" v:fillPattern="35" v:foreground="#ffffff" v:background="#c6d1e3" x1="1" y1="0" x2="0" y2="0">
			<stop offset="0" style="stop-color:#ffffff;stop-opacity:1"/>
			<stop offset="1" style="stop-color:#c6d1e3;stop-opacity:1"/>
		</linearGradient>
		<linearGradient id="grad25-50" v:fillPattern="35" v:foreground="#ffffff" v:background="#c6d1e3" x1="0" y1="0" x2="1" y2="0">
			<stop offset="0" style="stop-color:#ffffff;stop-opacity:1"/>
			<stop offset="1" style="stop-color:#c6d1e3;stop-opacity:1"/>
		</linearGradient>
		<linearGradient id="grad30-51" v:fillPattern="35" v:foreground="#ffffff" v:background="#c6d1e3" x1="0" y1="1" x2="0" y2="0">
			<stop offset="0" style="stop-color:#ffffff;stop-opacity:1"/>
			<stop offset="1" style="stop-color:#c6d1e3;stop-opacity:1"/>
		</linearGradient>
		<linearGradient id="grad28-52" v:fillPattern="35" v:foreground="#ffffff" v:background="#c6d1e3" x1="0" y1="0" x2="0" y2="1">
			<stop offset="0" style="stop-color:#ffffff;stop-opacity:1"/>
			<stop offset="1" style="stop-color:#c6d1e3;stop-opacity:1"/>
		</linearGradient>
	</defs>
	<g v:mID="0" v:index="1" v:groupContext="foregroundPage">
		<title>Page-1</title>
		<v:pageProperties v:drawingScale="1" v:pageScale="1" v:drawingUnits="0" v:shadowOffsetX="9" v:shadowOffsetY="-9"/>
		<g id="group3-1" transform="translate(1.5,-22.4)" v:mID="3" v:groupContext="group">
			<v:custProps>
				<v:cp v:nameU="ShapeClass" v:lbl="ShapeClass" v:type="0" v:invis="true" v:ask="false" v:langID="1033"
						v:val="VT4(Equipment)"/>
				<v:cp v:nameU="ShapeType" v:lbl="ShapeType" v:type="0" v:invis="true" v:ask="false" v:langID="1033"
						v:val="VT4(Peripheral)"/>
				<v:cp v:nameU="SubShapeType" v:lbl="SubShapeType" v:type="0" v:invis="true" v:ask="false" v:langID="1033"
						v:val="VT4(Monitor)"/>
				<v:cp v:nameU="Manufacturer" v:lbl="Manufacturer" v:type="0" v:sortKey="Equipment" v:invis="false" v:ask="false"
						v:langID="1033"/>
				<v:cp v:nameU="ProductNumber" v:lbl="Product Number" v:type="0" v:sortKey="Equipment" v:invis="false" v:ask="false"
						v:langID="1033"/>
				<v:cp v:nameU="PartNumber" v:lbl="Part Number" v:type="0" v:sortKey="Equipment" v:invis="false" v:ask="false"
						v:langID="1033"/>
				<v:cp v:nameU="ProductDescription" v:lbl="Product Description" v:type="0" v:sortKey="Equipment" v:invis="false"
						v:ask="false" v:langID="1033"/>
				<v:cp v:nameU="AssetNumber" v:lbl="Asset Number" v:type="0" v:sortKey="Asset" v:invis="false" v:ask="false"
						v:langID="1033"/>
				<v:cp v:nameU="SerialNumber" v:lbl="Serial Number" v:type="0" v:sortKey="Asset" v:invis="false" v:ask="false"
						v:langID="1033"/>
				<v:cp v:nameU="Location" v:lbl="Location" v:type="0" v:sortKey="Asset" v:invis="false" v:ask="false"
						v:langID="1033"/>
				<v:cp v:nameU="Building" v:lbl="Building" v:type="0" v:sortKey="Asset" v:invis="false" v:ask="false"
						v:langID="1033"/>
				<v:cp v:nameU="Room" v:lbl="Room" v:type="0" v:sortKey="Asset" v:invis="false" v:ask="false" v:langID="1033"/>
				<v:cp v:nameU="NetworkName" v:lbl="Network Name" v:type="0" v:sortKey="Network" v:invis="false" v:ask="false"
						v:langID="1033"/>
				<v:cp v:nameU="IPAddress" v:lbl="IP Address" v:type="0" v:sortKey="Network" v:invis="false" v:ask="false"
						v:langID="1033"/>
				<v:cp v:nameU="SubnetMask" v:lbl="Subnet Mask" v:type="0" v:sortKey="Network" v:invis="false" v:ask="false"
						v:langID="1033"/>
				<v:cp v:nameU="AdminInterface" v:lbl="Administrative Interface" v:type="0" v:sortKey="Network" v:invis="false"
						v:ask="false" v:langID="1033"/>
				<v:cp v:nameU="NumberofPorts" v:lbl="Number of Ports" v:type="0" v:sortKey="Network" v:invis="false" v:ask="false"
						v:langID="1033"/>
				<v:cp v:nameU="MACAddress" v:lbl="MAC Address" v:type="0" v:sortKey="Network" v:invis="false" v:ask="false"
						v:langID="1033"/>
				<v:cp v:nameU="CommunityString" v:lbl="Community String" v:type="0" v:sortKey="Network" v:invis="false"
						v:ask="false" v:langID="1033"/>
				<v:cp v:nameU="NetworkDescription" v:lbl="Network Description" v:type="0" v:sortKey="Network" v:invis="false"
						v:ask="false" v:langID="1033"/>
				<v:cp v:nameU="HardDriveSize" v:lbl="Hard Drive Capacity" v:type="0" v:sortKey="Workstation" v:invis="false"
						v:ask="false" v:langID="1033"/>
				<v:cp v:nameU="CPU" v:lbl="CPU" v:type="0" v:sortKey="Workstation" v:invis="false" v:ask="false" v:langID="1033"/>
				<v:cp v:nameU="Memory" v:lbl="Memory" v:type="0" v:sortKey="Workstation" v:invis="false" v:ask="false"
						v:langID="1033"/>
				<v:cp v:nameU="OperatingSystem" v:lbl="Operating System" v:type="0" v:sortKey="Workstation" v:invis="false"
						v:ask="false" v:langID="1033"/>
			</v:custProps>
			<v:userDefs>
				<v:ud v:nameU="HasText" v:val="VT0(0):5"/>
				<v:ud v:nameU="ShapeClass" v:val="VT0(5):26"/>
				<v:ud v:nameU="ShapeType" v:val="VT0(17):26"/>
				<v:ud v:nameU="SubShapeType" v:val="VT0(46):26"/>
				<v:ud v:nameU="SolSH" v:val="VT14({BF0433D9-CD73-4EB5-8390-8653BE590246}):41"/>
				<v:ud v:nameU="visLegendShape" v:val="VT0(2):26"/>
			</v:userDefs>
			<title>CRT monitor</title>
			<g id="shape4-2" v:mID="4" v:groupContext="shape" transform="translate(144.115,0)">
				<title>Sheet.4</title>
				<path d="M60.96 272.71 A94.6462 94.0336 -104.36 0 0 138.22 222.71 A49.2562 48.9374 -117.39 0 0 79.14 163.63 L0 274.1
							 L60.96 272.71 Z" class="st1"/>
			</g>
			<g id="shape5-5" v:mID="5" v:groupContext="shape" transform="translate(144.115,0)">
				<title>Sheet.5</title>
				<v:textBlock v:margins="rect(0,0,0,0)"/>
				<path d="M0 274.1 L0 122.68 L39.36 98.96 L39.36 247.41 L0 274.1 Z" class="st2"/>
			</g>
			<g id="shape6-11" v:mID="6" v:groupContext="shape" transform="translate(183.48,-41.7)">
				<title>Sheet.6</title>
				<path d="M0 155 L66.72 132.32 L66.72 225.73 L0 274.1 L0 155 Z" class="st2"/>
			</g>
			<g id="shape7-14" v:mID="7" v:groupContext="shape" transform="translate(86.736,-160.795)">
				<title>Sheet.7</title>
				<path d="M96.74 274.1 L96.74 259.76 L0 203.38 L53.38 188.03 L163.46 251.42 L96.74 274.1 Z" class="st3"/>
			</g>
			<g id="shape8-18" v:mID="8" v:groupContext="shape" transform="translate(3.67706E-013,-151.425)">
				<title>Sheet.8</title>
				<path d="M0 190.7 L53.71 175.32 L86.74 194.01 L185.58 250.43 L144.12 274.1 A413.599 376.629 2.57 0 1 -0 190.7 Z"
						class="st3"/>
			</g>
			<g id="shape9-21" v:mID="9" v:groupContext="shape">
				<title>Sheet.9</title>
				<path d="M144.12 274.1 A337.052 306.925 2.99 0 1 -0 190.7 L0 39.28 A406.952 370.577 -177.43 0 0 144.12 122.68 L144.12
							 274.1 Z" class="st4"/>
				<path d="M144.12 274.1 A337.052 306.925 2.99 0 1 -0 190.7 L0 39.28 A406.952 370.577 -177.43 0 0 144.12 122.68 L144.12
							 274.1" class="st5"/>
				<path d="M118.43 52.26 L190.15 93.62" class="st5"/>
				<path d="M126.77 49.59 L198.49 90.95" class="st5"/>
				<path d="M135.11 46.58 L206.83 87.95" class="st5"/>
				<path d="M143.45 43.92 L215.17 85.28" class="st5"/>
			</g>
			<g id="shape10-32" v:mID="10" v:groupContext="shape" transform="translate(16.68,-29.0232)">
				<title>Sheet.10</title>
				<path d="M0 98.96 L0 209.38 A364.448 331.872 -177.9 0 0 110.76 274.1" class="st5"/>
			</g>
			<g id="shape11-39" v:mID="11" v:groupContext="shape">
				<title>Sheet.11</title>
				<path d="M144.12 274.1 L183.48 247.41 L183.48 232.4 L250.2 184.03 L250.2 90.62 L140.11 27.24 L86.74 42.58 L53.71
							 23.9 L0 39.28 L0 190.7 A345.993 315.065 -176.97 0 0 144.12 274.1 Z" class="st6"/>
			</g>
			<g id="shape12-41" v:mID="12" v:groupContext="shape" transform="translate(-25.8198,20.8285) rotate(-30)">
				<title>Sheet.12</title>
				<ellipse cx="5.02495" cy="267.706" rx="5.02495" ry="6.39369" class="st7"/>
			</g>
			<g id="shape13-45" v:mID="13" v:groupContext="shape" transform="translate(16.68,-29.0232)">
				<title>Sheet.13</title>
				<path d="M3.34 207.71 L3.34 102.3 L0 98.96 A273.91 249.427 -178.24 0 0 110.76 163.01 L110.76 274.1 L110.76 269.76
							 A350.61 319.268 1.68 0 1 3.34 207.71 Z" class="st8"/>
			</g>
		</g>
	</g>
</svg>
