<?xml version="1.0" encoding="UTF-8"?>

<svg version="1.2" baseProfile="tiny" viewBox="0 0 12700 7620" preserveAspectRatio="xMidYMid" fill-rule="evenodd" clip-path="url(#presentation_clip_path)" stroke-width="28.222" stroke-linejoin="round" xmlns="http://www.w3.org/2000/svg" xmlns:xlink="http://www.w3.org/1999/xlink" xmlns:draw="urn:oasis:names:tc:opendocument:xmlns:drawing:1.0" xmlns:presentation="urn:oasis:names:tc:opendocument:xmlns:presentation:1.0" xmlns:smil="urn:oasis:names:tc:opendocument:xmlns:smil-compatible:1.0" xmlns:anim="urn:oasis:names:tc:opendocument:xmlns:animation:1.0" xml:space="preserve">
 <defs>
  <clipPath id="presentation_clip_path" clipPathUnits="userSpaceOnUse">
   <rect x="0" y="0" width="12700" height="7620"/>
  </clipPath>
 </defs>
 <g id="id2" class="Master_Slide" clip-path="url(#presentation_clip_path)">
  <g id="bg-id2" visibility="visible" class="Background">
   <rect fill="none" stroke="none" x="0" y="0" width="12700" height="7620"/>
  </g>
  <g id="bo-id2" visibility="visible" class="BackgroundObjects"/>
 </g>
 <g id="id1" class="Slide" visibility="visible" clip-path="url(#presentation_clip_path)">
  <g class="com.sun.star.drawing.ClosedBezierShape">
   <g>
    <path fill="rgb(0,128,0)" stroke="none" d="M 10063,1941 L 9685,1946 9318,1959 8963,1981 8623,2011 8298,2048 7992,2093 7705,2143 7441,2200 7200,2263 6985,2330 6798,2401 6641,2477 6515,2557 6423,2639 6390,2682 6366,2725 C 6366,2725 6858,2641 6731,2797 6729,2983 6477,3005 6477,3005 L 6350,3057 6223,3110 6096,3162 5702,3207 5503,3245 5305,3267 5128,3301 4953,3318 4826,3318 4318,3370 762,3162 1397,3266 1778,3370 2032,3422 2540,3474 2794,3526 3175,3578 3429,3630 3937,3682 4429,3683 4817,3678 5194,3665 5557,3644 5904,3615 6234,3578 6546,3535 6836,3485 7104,3429 7347,3367 7563,3301 7752,3228 7910,3152 8036,3072 8129,2988 8162,2945 8186,2901 8200,2857 8205,2812 8207,2790 8215,2768 8227,2747 8243,2726 8289,2685 8352,2646 8431,2608 8524,2573 8632,2540 8752,2509 8884,2482 9027,2457 9181,2436 9343,2417 9513,2403 9691,2392 10033,2328 10414,2328 10795,2328 12319,2432 12700,2162 11049,1964 10362,1941 10063,1941 Z M 4190,1651 L 4190,1651 Z M 12700,3683 L 12700,3683 Z"/>
    <path fill="none" stroke="rgb(0,128,0)" d="M 10063,1941 L 9685,1946 9318,1959 8963,1981 8623,2011 8298,2048 7992,2093 7705,2143 7441,2200 7200,2263 6985,2330 6798,2401 6641,2477 6515,2557 6423,2639 6390,2682 6366,2725 C 6366,2725 6858,2641 6731,2797 6729,2983 6477,3005 6477,3005 L 6350,3057 6223,3110 6096,3162 5702,3207 5503,3245 5305,3267 5128,3301 4953,3318 4826,3318 4318,3370 762,3162 1397,3266 1778,3370 2032,3422 2540,3474 2794,3526 3175,3578 3429,3630 3937,3682 4429,3683 4817,3678 5194,3665 5557,3644 5904,3615 6234,3578 6546,3535 6836,3485 7104,3429 7347,3367 7563,3301 7752,3228 7910,3152 8036,3072 8129,2988 8162,2945 8186,2901 8200,2857 8205,2812 8207,2790 8215,2768 8227,2747 8243,2726 8289,2685 8352,2646 8431,2608 8524,2573 8632,2540 8752,2509 8884,2482 9027,2457 9181,2436 9343,2417 9513,2403 9691,2392 10033,2328 10414,2328 10795,2328 12319,2432 12700,2162 11049,1964 10362,1941 10063,1941"/>
    <path fill="none" stroke="rgb(0,128,0)" d="M 4190,1651 L 4190,1651"/>
    <path fill="none" stroke="rgb(0,128,0)" d="M 12700,3683 L 12700,3683"/>
   </g>
  </g>
  <g class="com.sun.star.drawing.ClosedBezierShape">
   <g>
    <path fill="rgb(0,128,0)" stroke="none" d="M 637,4243 L 609,4109 619,3960 C 632,3928 590,3947 639,3830 689,3714 685,3610 750,3513 850,3381 996,3174 1348,3303 L 637,4243 Z M 1347,3304 C 1518,3637 1329,3808 1209,3922 1083,4042 936,4122 794,4213 L 637,4243 1347,3304 Z"/>
    <path fill="none" stroke="rgb(92,133,38)" d="M 637,4243 L 609,4109 619,3960 C 632,3928 590,3947 639,3830 689,3714 685,3610 750,3513 850,3381 996,3174 1348,3303 L 637,4243"/>
    <path fill="none" stroke="rgb(92,133,38)" d="M 1347,3304 C 1518,3637 1329,3808 1209,3922 1083,4042 936,4122 794,4213 L 637,4243 1347,3304"/>
   </g>
  </g>
  <g class="com.sun.star.drawing.ClosedBezierShape">
   <g>
    <path fill="rgb(0,128,0)" stroke="none" d="M 1556,4607 L 1478,4494 1429,4353 C 1428,4319 1397,4353 1397,4226 1397,4099 1353,4005 1375,3891 1415,3730 1469,3482 1843,3464 L 1556,4607 Z M 1843,3465 C 2130,3705 2023,3936 1957,4088 1888,4247 1784,4379 1689,4518 L 1556,4607 1843,3465 Z"/>
    <path fill="none" stroke="rgb(92,133,38)" d="M 1556,4607 L 1478,4494 1429,4353 C 1428,4319 1397,4353 1397,4226 1397,4099 1353,4005 1375,3891 1415,3730 1469,3482 1843,3464 L 1556,4607"/>
    <path fill="none" stroke="rgb(92,133,38)" d="M 1843,3465 C 2130,3705 2023,3936 1957,4088 1888,4247 1784,4379 1689,4518 L 1556,4607 1843,3465"/>
   </g>
  </g>
  <g class="com.sun.star.drawing.ClosedBezierShape">
   <g>
    <path fill="rgb(0,128,0)" stroke="none" d="M 1091,2019 L 1013,2132 964,2273 C 963,2307 932,2273 932,2400 932,2527 888,2621 910,2735 950,2896 1004,3144 1378,3162 L 1091,2019 Z M 1378,3161 C 1665,2921 1558,2690 1492,2538 1423,2379 1319,2247 1224,2108 L 1091,2019 1378,3161 Z"/>
    <path fill="none" stroke="rgb(92,133,38)" d="M 1091,2019 L 1013,2132 964,2273 C 963,2307 932,2273 932,2400 932,2527 888,2621 910,2735 950,2896 1004,3144 1378,3162 L 1091,2019"/>
    <path fill="none" stroke="rgb(92,133,38)" d="M 1378,3161 C 1665,2921 1558,2690 1492,2538 1423,2379 1319,2247 1224,2108 L 1091,2019 1378,3161"/>
   </g>
  </g>
  <g class="com.sun.star.drawing.ClosedBezierShape">
   <g>
    <path fill="rgb(0,128,0)" stroke="none" d="M 2351,4703 L 2263,4597 2202,4461 C 2198,4427 2170,4464 2159,4337 2148,4211 2096,4121 2108,4005 2134,3841 2166,3590 2537,3539 L 2351,4703 Z M 2537,3540 C 2844,3754 2758,3994 2705,4151 2650,4315 2558,4456 2476,4603 L 2351,4703 2537,3540 Z"/>
    <path fill="none" stroke="rgb(92,133,38)" d="M 2351,4703 L 2263,4597 2202,4461 C 2198,4427 2170,4464 2159,4337 2148,4211 2096,4121 2108,4005 2134,3841 2166,3590 2537,3539 L 2351,4703"/>
    <path fill="none" stroke="rgb(92,133,38)" d="M 2537,3540 C 2844,3754 2758,3994 2705,4151 2650,4315 2558,4456 2476,4603 L 2351,4703 2537,3540"/>
   </g>
  </g>
  <g class="com.sun.star.drawing.ClosedBezierShape">
   <g>
    <path fill="rgb(0,128,0)" stroke="none" d="M 3352,4839 L 3261,4737 3195,4603 C 3190,4569 3163,4607 3148,4481 3133,4355 3077,4267 3085,4151 3105,3986 3129,3733 3498,3670 L 3352,4839 Z M 3498,3671 C 3812,3874 3734,4117 3687,4275 3638,4442 3551,4585 3473,4735 L 3352,4839 3498,3671 Z"/>
    <path fill="none" stroke="rgb(92,133,38)" d="M 3352,4839 L 3261,4737 3195,4603 C 3190,4569 3163,4607 3148,4481 3133,4355 3077,4267 3085,4151 3105,3986 3129,3733 3498,3670 L 3352,4839"/>
    <path fill="none" stroke="rgb(92,133,38)" d="M 3498,3671 C 3812,3874 3734,4117 3687,4275 3638,4442 3551,4585 3473,4735 L 3352,4839 3498,3671"/>
   </g>
  </g>
  <g class="com.sun.star.drawing.ClosedBezierShape">
   <g>
    <path fill="rgb(0,128,0)" stroke="none" d="M 4953,6877 L 4846,6963 4709,7022 C 4675,7025 4712,7054 4585,7063 4458,7072 4368,7123 4252,7109 4089,7081 3838,7045 3792,6674 L 4953,6877 Z M 3793,6674 C 4012,6370 4250,6460 4406,6515 4570,6572 4709,6666 4855,6751 L 4953,6877 3793,6674 Z"/>
    <path fill="none" stroke="rgb(92,133,38)" d="M 4953,6877 L 4846,6963 4709,7022 C 4675,7025 4712,7054 4585,7063 4458,7072 4368,7123 4252,7109 4089,7081 3838,7045 3792,6674 L 4953,6877"/>
    <path fill="none" stroke="rgb(92,133,38)" d="M 3793,6674 C 4012,6370 4250,6460 4406,6515 4570,6572 4709,6666 4855,6751 L 4953,6877 3793,6674"/>
   </g>
  </g>
  <g class="com.sun.star.drawing.ClosedBezierShape">
   <g>
    <path fill="rgb(0,128,0)" stroke="none" d="M 1876,2021 L 1782,2120 1711,2252 C 1705,2285 1680,2247 1660,2372 1640,2498 1582,2584 1586,2700 1601,2865 1616,3119 1983,3194 L 1876,2021 Z M 1983,3193 C 2304,3001 2234,2756 2192,2595 2148,2428 2066,2281 1994,2129 L 1876,2021 1983,3193 Z"/>
    <path fill="none" stroke="rgb(92,133,38)" d="M 1876,2021 L 1782,2120 1711,2252 C 1705,2285 1680,2247 1660,2372 1640,2498 1582,2584 1586,2700 1601,2865 1616,3119 1983,3194 L 1876,2021"/>
    <path fill="none" stroke="rgb(92,133,38)" d="M 1983,3193 C 2304,3001 2234,2756 2192,2595 2148,2428 2066,2281 1994,2129 L 1876,2021 1983,3193"/>
   </g>
  </g>
  <g class="com.sun.star.drawing.ClosedBezierShape">
   <g>
    <path fill="rgb(0,128,0)" stroke="none" d="M 2740,2037 L 2624,2111 2524,2222 C 2510,2253 2495,2209 2446,2326 2396,2443 2319,2513 2295,2626 2270,2790 2223,3040 2561,3202 L 2740,2037 Z M 2561,3201 C 2919,3091 2910,2837 2908,2671 2906,2498 2862,2336 2828,2171 L 2740,2037 2561,3201 Z"/>
    <path fill="none" stroke="rgb(92,133,38)" d="M 2740,2037 L 2624,2111 2524,2222 C 2510,2253 2495,2209 2446,2326 2396,2443 2319,2513 2295,2626 2270,2790 2223,3040 2561,3202 L 2740,2037"/>
    <path fill="none" stroke="rgb(92,133,38)" d="M 2561,3201 C 2919,3091 2910,2837 2908,2671 2906,2498 2862,2336 2828,2171 L 2740,2037 2561,3201"/>
   </g>
  </g>
  <g class="com.sun.star.drawing.ClosedBezierShape">
   <g>
    <path fill="rgb(0,128,0)" stroke="none" d="M 3415,2143 L 3337,2256 3288,2397 C 3287,2431 3256,2397 3256,2524 3256,2651 3212,2745 3234,2859 3274,3020 3328,3268 3702,3286 L 3415,2143 Z M 3702,3285 C 3989,3045 3882,2814 3816,2662 3747,2503 3643,2371 3548,2232 L 3415,2143 3702,3285 Z"/>
    <path fill="none" stroke="rgb(92,133,38)" d="M 3415,2143 L 3337,2256 3288,2397 C 3287,2431 3256,2397 3256,2524 3256,2651 3212,2745 3234,2859 3274,3020 3328,3268 3702,3286 L 3415,2143"/>
    <path fill="none" stroke="rgb(92,133,38)" d="M 3702,3285 C 3989,3045 3882,2814 3816,2662 3747,2503 3643,2371 3548,2232 L 3415,2143 3702,3285"/>
   </g>
  </g>
 </g>
</svg>