<?xml version="1.0" encoding="UTF-8"?>

<svg version="1.2" baseProfile="tiny" viewBox="0 0 21000 29700" preserveAspectRatio="xMidYMid" fill-rule="evenodd" clip-path="url(#presentation_clip_path)" stroke-width="28.222" stroke-linejoin="round" xmlns="http://www.w3.org/2000/svg" xmlns:xlink="http://www.w3.org/1999/xlink" xmlns:draw="urn:oasis:names:tc:opendocument:xmlns:drawing:1.0" xmlns:presentation="urn:oasis:names:tc:opendocument:xmlns:presentation:1.0" xmlns:smil="urn:oasis:names:tc:opendocument:xmlns:smil-compatible:1.0" xmlns:anim="urn:oasis:names:tc:opendocument:xmlns:animation:1.0" xml:space="preserve">
 <defs>
  <clipPath id="presentation_clip_path" clipPathUnits="userSpaceOnUse">
   <rect x="0" y="0" width="21000" height="29700"/>
  </clipPath>
 </defs>
 <g id="id2" class="Master_Slide" clip-path="url(#presentation_clip_path)">
  <g id="bg-id2" visibility="visible" class="Background">
   <rect fill="none" stroke="none" x="0" y="0" width="21000" height="29700"/>
  </g>
  <g id="bo-id2" visibility="visible" class="BackgroundObjects"/>
 </g>
 <g id="id1" class="Slide" visibility="visible" clip-path="url(#presentation_clip_path)">
  <g class="com.sun.star.drawing.ClosedBezierShape">
   <g>
    <path fill="rgb(0,128,0)" stroke="none" d="M 16640,3257 L 16015,3265 15408,3286 14821,3323 14259,3372 13721,3433 13215,3508 12741,3591 12304,3685 11906,3789 11550,3900 11241,4017 10981,4143 10773,4275 10621,4411 10566,4482 10526,4553 C 10526,4553 11340,4414 11130,4672 11127,4980 10710,5016 10710,5016 L 10500,5102 10290,5190 10080,5276 9429,5350 9099,5413 8772,5449 8479,5505 8190,5533 7980,5533 7140,5619 1260,5276 2310,5447 2940,5619 3360,5705 4200,5791 4620,5877 5250,5963 5670,6049 6510,6135 7324,6137 7965,6129 8589,6107 9189,6073 9763,6025 10308,5963 10824,5892 11304,5810 11747,5717 12149,5614 12506,5505 12818,5385 13080,5259 13288,5127 13442,4988 13496,4917 13536,4844 13559,4771 13567,4697 13571,4660 13584,4624 13604,4589 13630,4555 13706,4487 13810,4422 13941,4359 14095,4302 14273,4247 14472,4196 14690,4151 14927,4110 15181,4075 15449,4044 15730,4020 16024,4002 16590,3896 17220,3896 17850,3896 20370,4068 21000,3622 18270,3295 17134,3257 16640,3257 Z M 6928,2777 L 6928,2777 Z M 21000,6137 L 21000,6137 Z"/>
    <rect fill="none" stroke="none" x="1260" y="2777" width="19741" height="3361"/>
   </g>
  </g>
  <g class="com.sun.star.drawing.ClosedBezierShape">
   <g>
    <path fill="rgb(0,128,0)" stroke="none" d="M 1053,7017 L 1007,6795 1024,6549 C 1045,6496 976,6527 1057,6334 1139,6142 1133,5970 1240,5810 1406,5591 1647,5249 2229,5462 L 1053,7017 Z M 2227,5464 C 2510,6015 2198,6297 1999,6486 1791,6684 1548,6817 1313,6967 L 1053,7017 2227,5464 Z"/>
    <rect fill="none" stroke="none" x="1007" y="5395" width="1335" height="1624"/>
   </g>
  </g>
  <g class="com.sun.star.drawing.OpenBezierShape">
   <g>
    <path fill="none" stroke="rgb(92,133,38)" d="M 1053,7017 L 1007,6795 1024,6549 C 1045,6496 976,6527 1057,6334 1139,6142 1133,5970 1240,5810 1406,5591 1647,5249 2229,5462 L 1053,7017"/>
   </g>
  </g>
  <g class="com.sun.star.drawing.OpenBezierShape">
   <g>
    <path fill="none" stroke="rgb(92,133,38)" d="M 2227,5463 C 2510,6014 2197,6296 1999,6485 1790,6683 1547,6816 1313,6966 L 1053,7016 2227,5463"/>
   </g>
  </g>
  <g class="com.sun.star.drawing.ClosedBezierShape">
   <g>
    <path fill="rgb(0,128,0)" stroke="none" d="M 2572,7618 L 2443,7431 2362,7198 C 2361,7142 2310,7198 2310,6988 2310,6778 2237,6623 2273,6434 2339,6168 2429,5758 3047,5728 L 2572,7618 Z M 3047,5730 C 3522,6127 3345,6508 3236,6760 3121,7023 2949,7241 2792,7471 L 2572,7618 3047,5730 Z"/>
    <rect fill="none" stroke="none" x="2262" y="5728" width="1100" height="1891"/>
   </g>
  </g>
  <g class="com.sun.star.drawing.OpenBezierShape">
   <g>
    <path fill="none" stroke="rgb(92,133,38)" d="M 2572,7618 L 2443,7431 2362,7198 C 2361,7142 2310,7198 2310,6988 2310,6778 2237,6623 2273,6434 2339,6168 2429,5758 3047,5728 L 2572,7618"/>
   </g>
  </g>
  <g class="com.sun.star.drawing.OpenBezierShape">
   <g>
    <path fill="none" stroke="rgb(92,133,38)" d="M 3048,5730 C 3522,6127 3345,6509 3236,6760 3122,7023 2950,7241 2793,7471 L 2573,7618 3048,5730"/>
   </g>
  </g>
  <g class="com.sun.star.drawing.ClosedBezierShape">
   <g>
    <path fill="rgb(0,128,0)" stroke="none" d="M 1804,3339 L 1675,3526 1594,3759 C 1593,3815 1542,3759 1542,3969 1542,4179 1469,4334 1505,4523 1571,4789 1661,5199 2279,5229 L 1804,3339 Z M 2279,5227 C 2754,4830 2577,4449 2468,4197 2353,3934 2181,3716 2024,3486 L 1804,3339 2279,5227 Z"/>
    <rect fill="none" stroke="none" x="1495" y="3339" width="1099" height="1892"/>
   </g>
  </g>
  <g class="com.sun.star.drawing.OpenBezierShape">
   <g>
    <path fill="none" stroke="rgb(92,133,38)" d="M 1804,3339 L 1675,3526 1594,3759 C 1593,3815 1542,3759 1542,3969 1542,4179 1469,4334 1505,4523 1571,4789 1661,5199 2279,5229 L 1804,3339"/>
   </g>
  </g>
  <g class="com.sun.star.drawing.OpenBezierShape">
   <g>
    <path fill="none" stroke="rgb(92,133,38)" d="M 2279,5227 C 2753,4830 2576,4449 2467,4197 2353,3934 2181,3716 2024,3486 L 1804,3339 2279,5227"/>
   </g>
  </g>
  <g class="com.sun.star.drawing.ClosedBezierShape">
   <g>
    <path fill="rgb(0,128,0)" stroke="none" d="M 3888,7777 L 3742,7601 3641,7377 C 3635,7320 3588,7382 3570,7172 3552,6963 3466,6814 3486,6623 3529,6351 3582,5936 4195,5852 L 3888,7777 Z M 4195,5854 C 4703,6208 4561,6604 4473,6864 4382,7135 4230,7368 4094,7611 L 3888,7777 4195,5854 Z"/>
    <rect fill="none" stroke="none" x="3483" y="5852" width="1079" height="1926"/>
   </g>
  </g>
  <g class="com.sun.star.drawing.OpenBezierShape">
   <g>
    <path fill="none" stroke="rgb(92,133,38)" d="M 3888,7777 L 3742,7601 3641,7377 C 3635,7320 3588,7382 3570,7172 3552,6963 3466,6814 3486,6623 3529,6351 3582,5936 4195,5852 L 3888,7777"/>
   </g>
  </g>
  <g class="com.sun.star.drawing.OpenBezierShape">
   <g>
    <path fill="none" stroke="rgb(92,133,38)" d="M 4195,5854 C 4702,6208 4560,6605 4472,6864 4381,7135 4229,7369 4094,7612 L 3887,7777 4195,5854"/>
   </g>
  </g>
  <g class="com.sun.star.drawing.ClosedBezierShape">
   <g>
    <path fill="rgb(0,128,0)" stroke="none" d="M 5543,8002 L 5392,7833 5283,7612 C 5275,7556 5230,7618 5205,7410 5181,7202 5088,7056 5101,6864 5134,6592 5174,6173 5784,6069 L 5543,8002 Z M 5784,6071 C 6303,6406 6174,6808 6097,7069 6016,7346 5872,7582 5743,7830 L 5543,8002 5784,6071 Z"/>
    <rect fill="none" stroke="none" x="5100" y="6069" width="1071" height="1934"/>
   </g>
  </g>
  <g class="com.sun.star.drawing.OpenBezierShape">
   <g>
    <path fill="none" stroke="rgb(92,133,38)" d="M 5543,8002 L 5392,7833 5283,7612 C 5275,7556 5230,7618 5205,7410 5181,7202 5088,7056 5101,6864 5134,6592 5174,6173 5784,6069 L 5543,8002"/>
   </g>
  </g>
  <g class="com.sun.star.drawing.OpenBezierShape">
   <g>
    <path fill="none" stroke="rgb(92,133,38)" d="M 5784,6070 C 6304,6406 6175,6807 6097,7069 6016,7345 5872,7581 5743,7829 L 5543,8001 5784,6070"/>
   </g>
  </g>
  <g class="com.sun.star.drawing.ClosedBezierShape">
   <g>
    <path fill="rgb(0,128,0)" stroke="none" d="M 8190,11372 L 8013,11514 7786,11612 C 7730,11617 7791,11664 7581,11679 7371,11694 7222,11779 7031,11755 6761,11709 6346,11650 6270,11036 L 8190,11372 Z M 6272,11036 C 6634,10533 7027,10682 7285,10773 7556,10867 7786,11023 8028,11163 L 8190,11372 6272,11036 Z"/>
    <rect fill="none" stroke="none" x="6270" y="10680" width="1921" height="1081"/>
   </g>
  </g>
  <g class="com.sun.star.drawing.OpenBezierShape">
   <g>
    <path fill="none" stroke="rgb(92,133,38)" d="M 8190,11372 L 8013,11514 7786,11611 C 7730,11616 7791,11664 7581,11679 7371,11694 7222,11778 7031,11755 6761,11709 6346,11649 6270,11036 L 8190,11372"/>
   </g>
  </g>
  <g class="com.sun.star.drawing.OpenBezierShape">
   <g>
    <path fill="none" stroke="rgb(92,133,38)" d="M 6272,11036 C 6634,10533 7028,10682 7286,10773 7557,10867 7787,11023 8028,11163 L 8190,11372 6272,11036"/>
   </g>
  </g>
  <g class="com.sun.star.drawing.ClosedBezierShape">
   <g>
    <path fill="rgb(0,128,0)" stroke="none" d="M 3102,3342 L 2946,3506 2829,3724 C 2819,3779 2778,3716 2744,3922 2711,4131 2615,4273 2622,4465 2647,4738 2672,5158 3279,5282 L 3102,3342 Z M 3279,5280 C 3809,4962 3694,4557 3624,4291 3551,4015 3416,3772 3297,3521 L 3102,3342 3279,5280 Z"/>
    <rect fill="none" stroke="none" x="2621" y="3342" width="1066" height="1941"/>
   </g>
  </g>
  <g class="com.sun.star.drawing.OpenBezierShape">
   <g>
    <path fill="none" stroke="rgb(92,133,38)" d="M 3102,3342 L 2946,3506 2829,3724 C 2819,3779 2778,3716 2744,3922 2711,4131 2615,4273 2622,4465 2647,4738 2672,5158 3279,5282 L 3102,3342"/>
   </g>
  </g>
  <g class="com.sun.star.drawing.OpenBezierShape">
   <g>
    <path fill="none" stroke="rgb(92,133,38)" d="M 3279,5280 C 3810,4962 3694,4557 3625,4291 3552,4015 3416,3772 3297,3521 L 3102,3342 3279,5280"/>
   </g>
  </g>
  <g class="com.sun.star.drawing.ClosedBezierShape">
   <g>
    <path fill="rgb(0,128,0)" stroke="none" d="M 4531,3368 L 4339,3490 4174,3674 C 4150,3725 4126,3652 4045,3846 3962,4039 3835,4155 3795,4342 3754,4613 3676,5027 4235,5294 L 4531,3368 Z M 4235,5293 C 4827,5111 4812,4691 4808,4416 4805,4130 4732,3862 4676,3590 L 4531,3368 4235,5293 Z"/>
    <rect fill="none" stroke="none" x="3766" y="3368" width="1044" height="1927"/>
   </g>
  </g>
  <g class="com.sun.star.drawing.OpenBezierShape">
   <g>
    <path fill="none" stroke="rgb(92,133,38)" d="M 4531,3368 L 4339,3490 4174,3674 C 4150,3725 4126,3652 4045,3846 3962,4039 3835,4155 3795,4342 3754,4613 3676,5027 4235,5294 L 4531,3368"/>
   </g>
  </g>
  <g class="com.sun.star.drawing.OpenBezierShape">
   <g>
    <path fill="none" stroke="rgb(92,133,38)" d="M 4235,5293 C 4827,5111 4812,4691 4809,4416 4805,4130 4733,3862 4676,3590 L 4531,3368 4235,5293"/>
   </g>
  </g>
  <g class="com.sun.star.drawing.ClosedBezierShape">
   <g>
    <path fill="rgb(0,128,0)" stroke="none" d="M 5646,3544 L 5517,3731 5436,3964 C 5435,4020 5384,3964 5384,4174 5384,4384 5311,4539 5347,4728 5413,4994 5503,5404 6121,5434 L 5646,3544 Z M 6121,5432 C 6596,5035 6419,4654 6310,4402 6195,4139 6023,3921 5866,3691 L 5646,3544 6121,5432 Z"/>
    <rect fill="none" stroke="none" x="5337" y="3544" width="1099" height="1891"/>
   </g>
  </g>
  <g class="com.sun.star.drawing.OpenBezierShape">
   <g>
    <path fill="none" stroke="rgb(92,133,38)" d="M 5646,3544 L 5517,3731 5436,3964 C 5435,4020 5384,3964 5384,4174 5384,4384 5311,4539 5347,4728 5413,4994 5503,5404 6121,5434 L 5646,3544"/>
   </g>
  </g>
  <g class="com.sun.star.drawing.OpenBezierShape">
   <g>
    <path fill="none" stroke="rgb(92,133,38)" d="M 6122,5432 C 6596,5035 6419,4654 6310,4402 6196,4139 6024,3921 5867,3691 L 5647,3544 6122,5432"/>
   </g>
  </g>
 </g>
</svg>