<?xml version="1.0" encoding="UTF-8"?>

<svg version="1.2" baseProfile="tiny" viewBox="0 0 12700 7620" preserveAspectRatio="xMidYMid" fill-rule="evenodd" clip-path="url(#presentation_clip_path)" stroke-width="28.222" stroke-linejoin="round" xmlns="http://www.w3.org/2000/svg" xmlns:xlink="http://www.w3.org/1999/xlink" xmlns:draw="urn:oasis:names:tc:opendocument:xmlns:drawing:1.0" xmlns:presentation="urn:oasis:names:tc:opendocument:xmlns:presentation:1.0" xmlns:smil="urn:oasis:names:tc:opendocument:xmlns:smil-compatible:1.0" xmlns:anim="urn:oasis:names:tc:opendocument:xmlns:animation:1.0" xml:space="preserve">
 <defs>
  <clipPath id="presentation_clip_path" clipPathUnits="userSpaceOnUse">
   <rect x="0" y="0" width="12700" height="7620"/>
  </clipPath>
 </defs>
 <g id="id2" class="Master_Slide" clip-path="url(#presentation_clip_path)">
  <g id="bg-id2" visibility="visible" class="Background">
   <rect fill="none" stroke="none" x="0" y="0" width="12700" height="7620"/>
  </g>
  <g id="bo-id2" visibility="visible" class="BackgroundObjects"/>
 </g>
 <g id="id1" class="Slide" visibility="visible" clip-path="url(#presentation_clip_path)">
  <g class="com.sun.star.drawing.CustomShape">
   <g>
    <path fill="rgb(184,71,71)" stroke="none" d="M 1529,1862 C 1409,1862 1334,2008 1229,1985 1088,1954 1048,1857 1029,1746 997,1553 1029,1159 1029,1159 1029,1094 1094,1029 1159,1029 1159,1029 1553,997 1746,1029 1857,1048 1954,1088 1985,1229 2008,1334 1862,1409 1862,1529 1862,1765 2043,1945 2279,1945 2515,1945 2695,1765 2695,1529 2695,1409 2549,1334 2572,1229 2603,1088 2700,1048 2811,1029 3004,997 3398,1029 3398,1029 3463,1029 3528,1094 3528,1159 3528,1159 3495,1553 3528,1746 3547,1857 3587,1954 3728,1985 3832,2008 3908,1862 4028,1862 4264,1862 4444,2043 4444,2279 4444,2515 4264,2695 4028,2695 3908,2695 3832,2549 3728,2572 3587,2603 3547,2700 3528,2811 3495,3004 3528,3398 3528,3398 3528,3463 3463,3528 3398,3528 3398,3528 3004,3495 2811,3528 2700,3547 2603,3587 2572,3728 2549,3832 2695,3908 2695,4028 2695,4264 2515,4444 2279,4444 2043,4444 1862,4264 1862,4028 1862,3908 2008,3832 1985,3728 1954,3587 1857,3547 1746,3528 1553,3495 1159,3528 1159,3528 1094,3528 1029,3463 1029,3398 1029,3398 997,3004 1029,2811 1048,2700 1088,2603 1229,2572 1334,2549 1409,2695 1529,2695 1765,2695 1945,2515 1945,2279 1945,2043 1765,1862 1529,1862 L 1529,1862 Z M 1015,1015 L 1015,1015 Z M 4445,4445 L 4445,4445 Z"/>
    <rect fill="none" stroke="none" x="1014" y="1014" width="3432" height="3432"/>
    <path fill="none" stroke="rgb(128,128,128)" d="M 1529,1862 C 1409,1862 1334,2008 1229,1985 1088,1954 1048,1857 1029,1746 997,1553 1029,1159 1029,1159 1029,1094 1094,1029 1159,1029 1159,1029 1553,997 1746,1029 1857,1048 1954,1088 1985,1229 2008,1334 1862,1409 1862,1529 1862,1765 2043,1945 2279,1945 2515,1945 2695,1765 2695,1529 2695,1409 2549,1334 2572,1229 2603,1088 2700,1048 2811,1029 3004,997 3398,1029 3398,1029 3463,1029 3528,1094 3528,1159 3528,1159 3495,1553 3528,1746 3547,1857 3587,1954 3728,1985 3832,2008 3908,1862 4028,1862 4264,1862 4444,2043 4444,2279 4444,2515 4264,2695 4028,2695 3908,2695 3832,2549 3728,2572 3587,2603 3547,2700 3528,2811 3495,3004 3528,3398 3528,3398 3528,3463 3463,3528 3398,3528 3398,3528 3004,3495 2811,3528 2700,3547 2603,3587 2572,3728 2549,3832 2695,3908 2695,4028 2695,4264 2515,4444 2279,4444 2043,4444 1862,4264 1862,4028 1862,3908 2008,3832 1985,3728 1954,3587 1857,3547 1746,3528 1553,3495 1159,3528 1159,3528 1094,3528 1029,3463 1029,3398 1029,3398 997,3004 1029,2811 1048,2700 1088,2603 1229,2572 1334,2549 1409,2695 1529,2695 1765,2695 1945,2515 1945,2279 1945,2043 1765,1862 1529,1862"/>
    <path fill="none" stroke="rgb(128,128,128)" d="M 1015,1015 L 1015,1015"/>
    <path fill="none" stroke="rgb(128,128,128)" d="M 4445,4445 L 4445,4445"/>
    <rect fill="none" stroke="none" x="1016" y="1016" width="3430" height="3430"/>
   </g>
  </g>
  <g class="com.sun.star.drawing.CustomShape">
   <g>
    <path fill="rgb(0,174,0)" stroke="none" d="M 4701,4174 C 4605,4260 4649,4430 4550,4487 4415,4564 4314,4515 4218,4440 4054,4309 3796,3972 3796,3972 3750,3920 3755,3821 3807,3774 3807,3774 4098,3466 4275,3353 4378,3288 4484,3250 4610,3340 4703,3408 4641,3572 4727,3668 4897,3857 5170,3870 5358,3701 5547,3531 5562,3259 5392,3070 5305,2974 5135,3018 5078,2919 5002,2784 5050,2683 5125,2587 5257,2423 5594,2165 5594,2165 5645,2119 5744,2124 5791,2176 5791,2176 6048,2514 6213,2644 6308,2720 6409,2768 6544,2691 6644,2634 6599,2464 6695,2378 6883,2208 7157,2223 7327,2411 7497,2599 7482,2873 7294,3042 7198,3128 7033,3067 6966,3159 6876,3286 6913,3392 6978,3494 7091,3672 7400,3963 7400,3963 7446,4014 7441,4113 7390,4159 7390,4159 7052,4416 6921,4582 6845,4677 6798,4778 6874,4913 6931,5013 7101,4969 7188,5064 7357,5252 7343,5526 7154,5696 6966,5865 6692,5851 6523,5663 6437,5567 6499,5402 6406,5335 6280,5244 6174,5282 6071,5347 5894,5460 5603,5769 5603,5769 5551,5816 5452,5810 5406,5759 5406,5759 5097,5467 4983,5290 4919,5187 4882,5082 4971,4955 5038,4863 5203,4924 5299,4838 5488,4668 5502,4395 5332,4207 5163,4019 4889,4004 4701,4174 L 4701,4174 Z M 3682,3867 L 3682,3867 Z M 8884,4139 L 8884,4139 Z"/>
    <rect fill="none" stroke="none" x="3681" y="2133" width="5205" height="3682"/>
    <path fill="none" stroke="rgb(128,128,128)" d="M 4701,4174 C 4605,4260 4649,4430 4550,4487 4415,4564 4314,4515 4218,4440 4054,4309 3796,3972 3796,3972 3750,3920 3755,3821 3807,3774 3807,3774 4098,3466 4275,3353 4378,3288 4484,3250 4610,3340 4703,3408 4641,3572 4727,3668 4897,3857 5170,3870 5358,3701 5547,3531 5562,3259 5392,3070 5305,2974 5135,3018 5078,2919 5002,2784 5050,2683 5125,2587 5257,2423 5594,2165 5594,2165 5645,2119 5744,2124 5791,2176 5791,2176 6048,2514 6213,2644 6308,2720 6409,2768 6544,2691 6644,2634 6599,2464 6695,2378 6883,2208 7157,2223 7327,2411 7497,2599 7482,2873 7294,3042 7198,3128 7033,3067 6966,3159 6876,3286 6913,3392 6978,3494 7091,3672 7400,3963 7400,3963 7446,4014 7441,4113 7390,4159 7390,4159 7052,4416 6921,4582 6845,4677 6798,4778 6874,4913 6931,5013 7101,4969 7188,5064 7357,5252 7343,5526 7154,5696 6966,5865 6692,5851 6523,5663 6437,5567 6499,5402 6406,5335 6280,5244 6174,5282 6071,5347 5894,5460 5603,5769 5603,5769 5551,5816 5452,5810 5406,5759 5406,5759 5097,5467 4983,5290 4919,5187 4882,5082 4971,4955 5038,4863 5203,4924 5299,4838 5488,4668 5502,4395 5332,4207 5163,4019 4889,4004 4701,4174"/>
    <path fill="none" stroke="rgb(128,128,128)" d="M 3682,3867 L 3682,3867"/>
    <path fill="none" stroke="rgb(128,128,128)" d="M 8884,4139 L 8884,4139"/>
    <rect fill="none" stroke="none" x="3683" y="3867" width="3684" height="3684"/>
   </g>
  </g>
 </g>
</svg>