<?xml version="1.0" standalone="yes"?>

<svg version="1.1" viewBox="0.0 0.0 960.0 720.0" fill="none" stroke="none" stroke-linecap="square" stroke-miterlimit="10" xmlns="http://www.w3.org/2000/svg" xmlns:xlink="http://www.w3.org/1999/xlink"><clipPath id="p.0"><path d="m0 0l960.0 0l0 720.0l-960.0 0l0 -720.0z" clip-rule="nonzero"></path></clipPath><g clip-path="url(#p.0)"><path fill="#000000" fill-opacity="0.0" d="m0 0l960.0 0l0 720.0l-960.0 0z" fill-rule="nonzero"></path><path fill="#cfe2f3" d="m86.59843 145.97762l0 0c0 -17.763672 14.400299 -32.163963 32.16397 -32.163963l400.8374 0c8.530457 0 16.711487 3.3886871 22.743347 9.4206085c6.0319214 6.0319138 9.420654 14.212944 9.420654 22.743355l0 274.6327c0 17.763672 -14.40033 32.164 -32.164 32.164l-400.8374 0c-17.763672 0 -32.16397 -14.40033 -32.16397 -32.164z" fill-rule="nonzero"></path><path stroke="#000000" stroke-width="2.0" stroke-linejoin="round" stroke-linecap="butt" d="m86.59843 145.97762l0 0c0 -17.763672 14.400299 -32.163963 32.16397 -32.163963l400.8374 0c8.530457 0 16.711487 3.3886871 22.743347 9.4206085c6.0319214 6.0319138 9.420654 14.212944 9.420654 22.743355l0 274.6327c0 17.763672 -14.40033 32.164 -32.164 32.164l-400.8374 0c-17.763672 0 -32.16397 -14.40033 -32.16397 -32.164z" fill-rule="nonzero"></path></g></svg>

