
<svg
   xmlns:dc="http://purl.org/dc/elements/1.1/"
   xmlns:cc="http://creativecommons.org/ns#"
   xmlns:rdf="http://www.w3.org/1999/02/22-rdf-syntax-ns#"
   xmlns:svg="http://www.w3.org/2000/svg"
   xmlns="http://www.w3.org/2000/svg"
   xmlns:sodipodi="http://sodipodi.sourceforge.net/DTD/sodipodi-0.dtd"
   xmlns:inkscape="http://www.inkscape.org/namespaces/inkscape"
   width="203.11256"
   height="428.94531"
   id="svg2"
   version="1.1"
   inkscape:version="0.48.3.1 r9886"
   sodipodi:docname="vine-opp-leaf.svg">
  <title
     id="title3296">Vine Opposite-Leaf</title>
  <defs
     id="defs4">
    <inkscape:path-effect
       is_visible="true"
       id="path-effect3073"
       effect="spiro" />
    <inkscape:path-effect
       effect="spiro"
       id="path-effect3069"
       is_visible="true" />
    <inkscape:path-effect
       effect="skeletal"
       id="path-effect2987"
       is_visible="true"
       pattern="M 0,0 0,10 10,5 z"
       copytype="single_stretched"
       prop_scale="1"
       scale_y_rel="false"
       spacing="0"
       normal_offset="0"
       tang_offset="0"
       prop_units="false"
       vertical_pattern="false"
       fuse_tolerance="0" />
    <inkscape:path-effect
       effect="spiro"
       id="path-effect3069-0"
       is_visible="true" />
    <inkscape:path-effect
       is_visible="true"
       id="path-effect3073-7"
       effect="spiro" />
    <inkscape:path-effect
       effect="spiro"
       id="path-effect3069-03"
       is_visible="true" />
    <inkscape:path-effect
       is_visible="true"
       id="path-effect3073-74"
       effect="spiro" />
    <inkscape:path-effect
       effect="spiro"
       id="path-effect3069-5"
       is_visible="true" />
    <inkscape:path-effect
       is_visible="true"
       id="path-effect3073-9"
       effect="spiro" />
    <inkscape:path-effect
       effect="spiro"
       id="path-effect3069-2"
       is_visible="true" />
    <inkscape:path-effect
       is_visible="true"
       id="path-effect3073-5"
       effect="spiro" />
  </defs>
  <sodipodi:namedview
     id="base"
     pagecolor="#ffffff"
     bordercolor="#666666"
     borderopacity="1.0"
     inkscape:pageopacity="0.0"
     inkscape:pageshadow="2"
     inkscape:zoom="1"
     inkscape:cx="-201.78555"
     inkscape:cy="175.34306"
     inkscape:document-units="px"
     inkscape:current-layer="layer1"
     showgrid="false"
     inkscape:window-width="1366"
     inkscape:window-height="719"
     inkscape:window-x="-3"
     inkscape:window-y="-3"
     inkscape:window-maximized="1"
     fit-margin-top="0"
     fit-margin-left="0"
     fit-margin-right="0"
     fit-margin-bottom="0" />
  <metadata
     id="metadata7">
    <rdf:RDF>
      <cc:Work
         rdf:about="">
        <dc:format>image/svg+xml</dc:format>
        <dc:type
           rdf:resource="http://purl.org/dc/dcmitype/StillImage" />
        <dc:title>Vine Opposite-Leaf</dc:title>
        <dc:date>2012-12-22</dc:date>
        <dc:creator>
          <cc:Agent>
            <dc:title>Algot Runeman</dc:title>
          </cc:Agent>
        </dc:creator>
        <dc:publisher>
          <cc:Agent>
            <dc:title>runeman.org</dc:title>
          </cc:Agent>
        </dc:publisher>
        <dc:identifier>vine-opp-leaf.svg</dc:identifier>
        <cc:license
           rdf:resource="http://creativecommons.org/licenses/publicdomain/" />
      </cc:Work>
      <cc:License
         rdf:about="http://creativecommons.org/licenses/publicdomain/">
        <cc:permits
           rdf:resource="http://creativecommons.org/ns#Reproduction" />
        <cc:permits
           rdf:resource="http://creativecommons.org/ns#Distribution" />
        <cc:permits
           rdf:resource="http://creativecommons.org/ns#DerivativeWorks" />
      </cc:License>
    </rdf:RDF>
  </metadata>
  <g
     inkscape:label="Layer 1"
     inkscape:groupmode="layer"
     id="layer1"
     transform="translate(-449.38988,-149.69928)">
    <g
       id="g2997"
       transform="translate(510,-307)">
      <path
         sodipodi:nodetypes="czzzzcczzzzc"
         inkscape:connector-curvature="0"
         id="path2993"
         d="m 113,535.36218 c 0,0 -11.17044,19.767 -15,30 -3.82956,10.233 -3.693318,25.999 -2,36 1.693318,10.001 4.26031,15.2888 10,19 5.73969,3.7112 5.99731,-4.75339 12,2 6.00269,6.75339 2,42 2,42 l 8,0 c 0,0 -7.8678,-35.55562 -3,-44 4.8678,-8.44438 4.40307,-0.13099 9,-5 4.59693,-4.86901 8.10855,-14.45909 8,-25 -0.10855,-10.54091 -6.786,-25.8383 -12,-35 -5.214,-9.1617 -17,-20 -17,-20 z"
         style="fill:#000000;stroke:#000000;stroke-width:1px;stroke-linecap:butt;stroke-linejoin:miter;stroke-opacity:1" />
      <path
         inkscape:connector-curvature="0"
         id="path2995"
         d="m 114.94069,548.4228 5.08876,69.87921 0.0299,0.99955"
         style="fill:none;stroke:#ffffff;stroke-width:1px;stroke-linecap:butt;stroke-linejoin:miter;stroke-opacity:1" />
    </g>
    <g
       transform="matrix(0,-1,-1,0,955.69928,657.69928)"
       id="g3202">
      <path
         style="fill:#000000;fill-rule:evenodd;stroke:none"
         d="m 84.945302,355.32173 -5.890604,8.0809 c 60.751062,43.26246 129.747892,74.43451 201.918002,91.87421 0,0 1e-5,0 2e-5,1e-5 69.18901,16.70886 140.6508,21.37641 211.52495,19.57773 5.1688,-0.13114 10.33634,-0.29603 15.50233,-0.4924 -5.16908,0.0815 -10.3383,0.13151 -15.50725,0.14774 -70.87562,0.22198 -142.04225,-6.03686 -210.27448,-24.14872 -1e-5,0 -1e-5,0 -1e-5,-10e-6 C 211.0736,431.48682 143.66532,399.14829 84.945302,355.32173 z"
         id="path3204"
         inkscape:path-effect="#path-effect2987"
         inkscape:original-d="m 82,359.36218 c 128.15124,93.41647 267.27163,117.36174 410.49521,115.32007 5.16304,-0.0736 10.33141,-0.18097 15.50479,-0.32007"
         inkscape:connector-curvature="0"
         sodipodi:nodetypes="csc" />
      <g
         id="g3206"
         transform="matrix(0.40131439,0.91594037,-0.91594037,0.40131439,662.87313,-8.016079)"
         inkscape:transform-center-x="-56.752832"
         inkscape:transform-center-y="-29.673753">
        <path
           style="fill:#000000;stroke:#000000;stroke-width:1px;stroke-linecap:butt;stroke-linejoin:miter;stroke-opacity:1"
           d="m 113,535.36218 c 0,0 -11.17044,19.767 -15,30 -3.82956,10.233 -3.693318,25.999 -2,36 1.693318,10.001 4.26031,15.2888 10,19 5.73969,3.7112 5.99731,-4.75339 12,2 6.00269,6.75339 2,42 2,42 l 8,0 c 0,0 -7.8678,-35.55562 -3,-44 4.8678,-8.44438 4.40307,-0.13099 9,-5 4.59693,-4.86901 8.10855,-14.45909 8,-25 -0.10855,-10.54091 -6.786,-25.8383 -12,-35 -5.214,-9.1617 -17,-20 -17,-20 z"
           id="path3208"
           inkscape:connector-curvature="0"
           sodipodi:nodetypes="czzzzcczzzzc" />
        <path
           style="fill:none;stroke:#ffffff;stroke-width:1px;stroke-linecap:butt;stroke-linejoin:miter;stroke-opacity:1"
           d="m 114.94069,548.4228 5.08876,69.87921 0.0299,0.99955"
           id="path3210"
           inkscape:connector-curvature="0" />
      </g>
      <g
         inkscape:transform-center-y="-24.895223"
         inkscape:transform-center-x="-50.411578"
         transform="matrix(0.35647368,0.76844148,-0.81359812,0.33668854,671.20583,94.879271)"
         id="g3212">
        <path
           sodipodi:nodetypes="czzzzcczzzzc"
           inkscape:connector-curvature="0"
           id="path3214"
           d="m 113,535.36218 c 0,0 -11.17044,19.767 -15,30 -3.82956,10.233 -3.693318,25.999 -2,36 1.693318,10.001 4.26031,15.2888 10,19 5.73969,3.7112 5.99731,-4.75339 12,2 6.00269,6.75339 2,42 2,42 l 8,0 c 0,0 -7.8678,-35.55562 -3,-44 4.8678,-8.44438 4.40307,-0.13099 9,-5 4.59693,-4.86901 8.10855,-14.45909 8,-25 -0.10855,-10.54091 -6.786,-25.8383 -12,-35 -5.214,-9.1617 -17,-20 -17,-20 z"
           style="fill:#000000;stroke:#000000;stroke-width:1.15839541px;stroke-linecap:butt;stroke-linejoin:miter;stroke-opacity:1" />
        <path
           inkscape:connector-curvature="0"
           id="path3216"
           d="m 114.94069,548.4228 5.08876,69.87921 0.0299,0.99955"
           style="fill:none;stroke:#ffffff;stroke-width:1.15839541px;stroke-linecap:butt;stroke-linejoin:miter;stroke-opacity:1" />
      </g>
      <g
         id="g3218"
         transform="matrix(0.32543011,0.63435157,-0.74274579,0.27793776,693.82077,177.14777)"
         inkscape:transform-center-x="-46.021475"
         inkscape:transform-center-y="-20.551111">
        <path
           style="fill:#000000;stroke:#000000;stroke-width:1.3343879px;stroke-linecap:butt;stroke-linejoin:miter;stroke-opacity:1"
           d="m 113,535.36218 c 0,0 -11.17044,19.767 -15,30 -3.82956,10.233 -3.693318,25.999 -2,36 1.693318,10.001 4.26031,15.2888 10,19 5.73969,3.7112 5.99731,-4.75339 12,2 6.00269,6.75339 2,42 2,42 l 8,0 c 0,0 -7.8678,-35.55562 -3,-44 4.8678,-8.44438 4.40307,-0.13099 9,-5 4.59693,-4.86901 8.10855,-14.45909 8,-25 -0.10855,-10.54091 -6.786,-25.8383 -12,-35 -5.214,-9.1617 -17,-20 -17,-20 z"
           id="path3220"
           inkscape:connector-curvature="0"
           sodipodi:nodetypes="czzzzcczzzzc" />
        <path
           style="fill:none;stroke:#ffffff;stroke-width:1.3343879px;stroke-linecap:butt;stroke-linejoin:miter;stroke-opacity:1"
           d="m 114.94069,548.4228 5.08876,69.87921 0.0299,0.99955"
           id="path3222"
           inkscape:connector-curvature="0" />
      </g>
      <g
         inkscape:transform-center-y="-17.510227"
         inkscape:transform-center-x="-41.631382"
         transform="matrix(0.29438654,0.54048864,-0.67189346,0.23681222,725.43572,235.53572)"
         id="g3224">
        <path
           sodipodi:nodetypes="czzzzcczzzzc"
           inkscape:connector-curvature="0"
           id="path3226"
           d="m 113,535.36218 c 0,0 -11.17044,19.767 -15,30 -3.82956,10.233 -3.693318,25.999 -2,36 1.693318,10.001 4.26031,15.2888 10,19 5.73969,3.7112 5.99731,-4.75339 12,2 6.00269,6.75339 4.74393,43.20224 4.74393,43.20224 L 128,664.36218 c 0,0 -7.8678,-35.55562 -3,-44 4.8678,-8.44438 4.40307,-0.13099 9,-5 4.59693,-4.86901 8.10855,-14.45909 8,-25 -0.10855,-10.54091 -6.786,-25.8383 -12,-35 -5.214,-9.1617 -17,-20 -17,-20 z"
           style="fill:#000000;stroke:#000000;stroke-width:1.51993048px;stroke-linecap:butt;stroke-linejoin:miter;stroke-opacity:1" />
        <path
           inkscape:connector-curvature="0"
           id="path3228"
           d="m 114.94069,548.4228 5.08876,69.87921 0.0299,0.99955"
           style="fill:none;stroke:#ffffff;stroke-width:1.51993048px;stroke-linecap:butt;stroke-linejoin:miter;stroke-opacity:1" />
      </g>
      <g
         id="g3230"
         transform="matrix(0.20125583,0.50026167,-0.45933648,0.21918698,681.927,265.35561)"
         inkscape:transform-center-x="-28.461076"
         inkscape:transform-center-y="-16.206996">
        <path
           style="fill:#000000;stroke:#000000;stroke-width:1.91074669px;stroke-linecap:butt;stroke-linejoin:miter;stroke-opacity:1"
           d="m 113,535.36218 c 0,0 -11.17044,19.767 -15,30 -3.82956,10.233 -3.693318,25.999 -2,36 1.693318,10.001 4.26031,15.2888 10,19 5.73969,3.7112 5.99731,-4.75339 12,2 6.00269,6.75339 2,42 2,42 l 3.59373,0.37853 c 0,0 -3.46153,-35.93415 1.40627,-44.37853 4.8678,-8.44438 4.40307,-0.13099 9,-5 4.59693,-4.86901 8.10855,-14.45909 8,-25 -0.10855,-10.54091 -6.786,-25.8383 -12,-35 -5.214,-9.1617 -17,-20 -17,-20 z"
           id="path3232"
           inkscape:connector-curvature="0"
           sodipodi:nodetypes="czzzzcczzzzc" />
        <path
           style="fill:none;stroke:#ffffff;stroke-width:1.91074669px;stroke-linecap:butt;stroke-linejoin:miter;stroke-opacity:1"
           d="m 114.94069,548.4228 5.08876,69.87921 0.0299,0.99955"
           id="path3234"
           inkscape:connector-curvature="0" />
      </g>
      <g
         inkscape:transform-center-y="56.752836"
         inkscape:transform-center-x="-29.673753"
         transform="matrix(-0.91594037,0.40131439,-0.40131439,-0.91594037,481.56095,933.11711)"
         id="g3236">
        <path
           sodipodi:nodetypes="czzzzcczzzzc"
           inkscape:connector-curvature="0"
           id="path3238"
           d="m 113,535.36218 c 0,0 -11.17044,19.767 -15,30 -3.82956,10.233 -3.693318,25.999 -2,36 1.693318,10.001 4.26031,15.2888 10,19 5.73969,3.7112 5.99731,-4.75339 12,2 6.00269,6.75339 2,42 2,42 l 8,0 c 0,0 -7.8678,-35.55562 -3,-44 4.8678,-8.44438 4.40307,-0.13099 9,-5 4.59693,-4.86901 8.10855,-14.45909 8,-25 -0.10855,-10.54091 -6.786,-25.8383 -12,-35 -5.214,-9.1617 -17,-20 -17,-20 z"
           style="fill:#000000;stroke:#000000;stroke-width:1px;stroke-linecap:butt;stroke-linejoin:miter;stroke-opacity:1" />
        <path
           inkscape:connector-curvature="0"
           id="path3240"
           d="m 114.94069,548.4228 5.08876,69.87921 0.0299,0.99955"
           style="fill:none;stroke:#ffffff;stroke-width:1px;stroke-linecap:butt;stroke-linejoin:miter;stroke-opacity:1" />
      </g>
      <g
         id="g3242"
         transform="matrix(0.55890198,-0.63655665,-0.6854619,-0.55266903,559.5513,860.6667)"
         inkscape:transform-center-x="-40.678803"
         inkscape:transform-center-y="37.792062">
        <path
           style="fill:#000000;stroke:#000000;stroke-width:1.15839541px;stroke-linecap:butt;stroke-linejoin:miter;stroke-opacity:1"
           d="m 113,535.36218 c 0,0 -11.17044,19.767 -15,30 -3.82956,10.233 -3.693318,25.999 -2,36 1.693318,10.001 4.26031,15.2888 10,19 5.73969,3.7112 5.99731,-4.75339 12,2 6.00269,6.75339 3.96141,41.02032 3.96141,41.02032 L 128,664.36218 c 0,0 -7.8678,-35.55562 -3,-44 4.8678,-8.44438 4.40307,-0.13099 9,-5 4.59693,-4.86901 8.10855,-14.45909 8,-25 -0.10855,-10.54091 -6.786,-25.8383 -12,-35 -5.214,-9.1617 -17,-20 -17,-20 z"
           id="path3244"
           inkscape:connector-curvature="0"
           sodipodi:nodetypes="czzzzcczzzzc" />
        <path
           style="fill:none;stroke:#ffffff;stroke-width:1.15839541px;stroke-linecap:butt;stroke-linejoin:miter;stroke-opacity:1"
           d="m 114.94069,548.4228 5.08876,69.87921 0.0299,0.99955"
           id="path3246"
           inkscape:connector-curvature="0" />
      </g>
      <g
         inkscape:transform-center-y="31.199436"
         inkscape:transform-center-x="-38.883875"
         transform="matrix(0.47464166,-0.53199809,-0.6488572,-0.45596605,613.33336,810.03216)"
         id="g3248">
        <path
           sodipodi:nodetypes="czzzzcczzzzc"
           inkscape:connector-curvature="0"
           id="path3250"
           d="m 113,535.36218 c 0,0 -11.17044,19.767 -15,30 -3.82956,10.233 -3.693318,25.999 -2,36 1.693318,10.001 4.26031,15.2888 10,19 5.73969,3.7112 5.99731,-4.75339 12,2 6.00269,6.75339 4.25219,40.92305 4.25219,40.92305 L 128,664.36218 c 0,0 -7.8678,-35.55562 -3,-44 4.8678,-8.44438 4.40307,-0.13099 9,-5 4.59693,-4.86901 8.10855,-14.45909 8,-25 -0.10855,-10.54091 -6.786,-25.8383 -12,-35 -5.214,-9.1617 -17,-20 -17,-20 z"
           style="fill:#000000;stroke:#000000;stroke-width:1.3343879px;stroke-linecap:butt;stroke-linejoin:miter;stroke-opacity:1" />
        <path
           inkscape:connector-curvature="0"
           id="path3252"
           d="m 114.94069,548.4228 5.08876,69.87921 0.0299,0.99955"
           style="fill:none;stroke:#ffffff;stroke-width:1.3343879px;stroke-linecap:butt;stroke-linejoin:miter;stroke-opacity:1" />
      </g>
      <g
         id="g3254"
         transform="matrix(0.29438654,-0.52076649,-0.67189346,-0.28182508,725.43572,713.81074)"
         inkscape:transform-center-x="-41.631382"
         inkscape:transform-center-y="19.862958">
        <path
           style="fill:#000000;stroke:#000000;stroke-width:1.51993048px;stroke-linecap:butt;stroke-linejoin:miter;stroke-opacity:1"
           d="m 113,535.36218 c 0,0 -11.17044,19.767 -15,30 -3.82956,10.233 -3.693318,25.999 -2,36 1.693318,10.001 4.26031,15.2888 10,19 5.73969,3.7112 5.99731,-4.75339 12,2 6.00269,6.75339 4.74393,43.20224 4.74393,43.20224 L 128,664.36218 c 0,0 -7.8678,-35.55562 -3,-44 4.8678,-8.44438 4.40307,-0.13099 9,-5 4.59693,-4.86901 8.10855,-14.45909 8,-25 -0.10855,-10.54091 -6.786,-25.8383 -12,-35 -5.214,-9.1617 -17,-20 -17,-20 z"
           id="path3256"
           inkscape:connector-curvature="0"
           sodipodi:nodetypes="czzzzcczzzzc" />
        <path
           style="fill:none;stroke:#ffffff;stroke-width:1.51993048px;stroke-linecap:butt;stroke-linejoin:miter;stroke-opacity:1"
           d="m 114.94069,548.4228 5.08876,69.87921 0.0299,0.99955"
           id="path3258"
           inkscape:connector-curvature="0" />
      </g>
      <g
         inkscape:transform-center-y="16.206994"
         inkscape:transform-center-x="-28.461076"
         transform="matrix(0.20125583,-0.50026167,-0.45933648,-0.21918698,681.927,678.30551)"
         id="g3260">
        <path
           sodipodi:nodetypes="czzzzcczzzzc"
           inkscape:connector-curvature="0"
           id="path3262"
           d="m 113,535.36218 c 0,0 -11.17044,19.767 -15,30 -3.82956,10.233 -3.693318,25.999 -2,36 1.693318,10.001 4.26031,15.2888 10,19 5.73969,3.7112 5.99731,-4.75339 12,2 6.00269,6.75339 2,42 2,42 l 3.59373,0.37853 c 0,0 -3.46153,-35.93415 1.40627,-44.37853 4.8678,-8.44438 4.40307,-0.13099 9,-5 4.59693,-4.86901 8.10855,-14.45909 8,-25 -0.10855,-10.54091 -6.786,-25.8383 -12,-35 -5.214,-9.1617 -17,-20 -17,-20 z"
           style="fill:#000000;stroke:#000000;stroke-width:1.91074669px;stroke-linecap:butt;stroke-linejoin:miter;stroke-opacity:1" />
        <path
           inkscape:connector-curvature="0"
           id="path3264"
           d="m 114.94069,548.4228 5.08876,69.87921 0.0299,0.99955"
           style="fill:none;stroke:#ffffff;stroke-width:1.91074669px;stroke-linecap:butt;stroke-linejoin:miter;stroke-opacity:1" />
      </g>
      <g
         id="g3266">
        <path
           sodipodi:nodetypes="cssssc"
           inkscape:connector-curvature="0"
           inkscape:original-d="m 458.20519,474.30239 c 0,0 7.98368,-1.18709 10.60661,-3.88909 1.55749,-1.60444 3.02372,-4.31807 2.12132,-6.36396 -1.40525,-3.18595 -7.01163,-6.63058 -9.54594,-4.24264 -1.4657,1.38105 2.12132,5.65685 2.12132,5.65685 l 0,0"
           inkscape:path-effect="#path-effect3069"
           id="path3268"
           d="m 458.20519,474.30239 c 1.94218,0.39988 3.99497,0.2473 5.85668,-0.43533 1.86172,-0.68263 3.52659,-1.89318 4.74993,-3.45376 1.40897,-1.79738 2.22504,-4.08251 2.12132,-6.36396 -0.0532,-1.1709 -0.34754,-2.33791 -0.91759,-3.36207 -0.57004,-1.02415 -1.42178,-1.90042 -2.46245,-2.43971 -1.04067,-0.5393 -2.27071,-0.72899 -3.41223,-0.46293 -1.14151,0.26606 -2.17904,1.00049 -2.75367,2.02207 -0.5621,0.99929 -0.65823,2.24851 -0.25566,3.32204 0.40258,1.07354 1.29641,1.95151 2.37698,2.33481 l 0,0"
           style="fill:none;stroke:#000000;stroke-width:1px;stroke-linecap:butt;stroke-linejoin:miter;stroke-opacity:1" />
        <path
           style="fill:none;stroke:#000000;stroke-width:1px;stroke-linecap:butt;stroke-linejoin:miter;stroke-opacity:1"
           d="m 457.85164,474.59062 c 1.94218,-0.39988 3.99497,-0.2473 5.85668,0.43533 1.86172,0.68263 3.52659,1.89318 4.74993,3.45376 1.40897,1.79738 2.22504,4.08251 2.12132,6.36396 -0.0532,1.1709 -0.34754,2.33791 -0.91759,3.36207 -0.57004,1.02415 -1.42178,1.90042 -2.46245,2.43971 -1.04067,0.5393 -2.27071,0.72899 -3.41223,0.46293 -1.14151,-0.26606 -2.17904,-1.00049 -2.75367,-2.02207 -0.5621,-0.99929 -0.65823,-2.24851 -0.25566,-3.32204 0.40258,-1.07354 1.29641,-1.95151 2.37698,-2.33481 l 0,0"
           id="path3270"
           inkscape:path-effect="#path-effect3073"
           inkscape:original-d="m 457.85164,474.59062 c 0,0 7.98368,1.18709 10.60661,3.88909 1.55749,1.60444 3.02372,4.31807 2.12132,6.36396 -1.40525,3.18595 -7.01163,6.63058 -9.54594,4.24264 -1.4657,-1.38105 2.12132,-5.65685 2.12132,-5.65685 l 0,0"
           inkscape:connector-curvature="0"
           sodipodi:nodetypes="cssssc" />
      </g>
      <g
         transform="matrix(1,0,-0.47160451,1.0833383,132.35314,-46.02197)"
         id="g3272">
        <path
           sodipodi:nodetypes="cssssc"
           inkscape:connector-curvature="0"
           inkscape:original-d="m 458.20519,474.30239 c 0,0 7.98368,-1.18709 10.60661,-3.88909 1.55749,-1.60444 3.02372,-4.31807 2.12132,-6.36396 -1.40525,-3.18595 -7.01163,-6.63058 -9.54594,-4.24264 -1.4657,1.38105 2.12132,5.65685 2.12132,5.65685 l 0,0"
           inkscape:path-effect="#path-effect3069-0"
           id="path3274"
           d="m 458.20519,474.30239 c 1.94218,0.39988 3.99497,0.2473 5.85668,-0.43533 1.86172,-0.68263 3.52659,-1.89318 4.74993,-3.45376 1.40897,-1.79738 2.22504,-4.08251 2.12132,-6.36396 -0.0532,-1.1709 -0.34754,-2.33791 -0.91759,-3.36207 -0.57004,-1.02415 -1.42178,-1.90042 -2.46245,-2.43971 -1.04067,-0.5393 -2.27071,-0.72899 -3.41223,-0.46293 -1.14151,0.26606 -2.17904,1.00049 -2.75367,2.02207 -0.5621,0.99929 -0.65823,2.24851 -0.25566,3.32204 0.40258,1.07354 1.29641,1.95151 2.37698,2.33481 l 0,0"
           style="fill:none;stroke:#000000;stroke-width:0.96076673px;stroke-linecap:butt;stroke-linejoin:miter;stroke-opacity:1" />
        <path
           style="fill:none;stroke:#000000;stroke-width:0.96076673px;stroke-linecap:butt;stroke-linejoin:miter;stroke-opacity:1"
           d="m 457.85164,474.59062 c 1.94218,-0.39988 3.99497,-0.2473 5.85668,0.43533 1.86172,0.68263 3.52659,1.89318 4.74993,3.45376 1.40897,1.79738 2.22504,4.08251 2.12132,6.36396 -0.0532,1.1709 -0.34754,2.33791 -0.91759,3.36207 -0.57004,1.02415 -1.42178,1.90042 -2.46245,2.43971 -1.04067,0.5393 -2.27071,0.72899 -3.41223,0.46293 -1.14151,-0.26606 -2.17904,-1.00049 -2.75367,-2.02207 -0.5621,-0.99929 -0.65823,-2.24851 -0.25566,-3.32204 0.40258,-1.07354 1.29641,-1.95151 2.37698,-2.33481 l 0,0"
           id="path3276"
           inkscape:path-effect="#path-effect3073-7"
           inkscape:original-d="m 457.85164,474.59062 c 0,0 7.98368,1.18709 10.60661,3.88909 1.55749,1.60444 3.02372,4.31807 2.12132,6.36396 -1.40525,3.18595 -7.01163,6.63058 -9.54594,4.24264 -1.4657,-1.38105 2.12132,-5.65685 2.12132,-5.65685 l 0,0"
           inkscape:connector-curvature="0"
           sodipodi:nodetypes="cssssc" />
      </g>
      <g
         transform="matrix(0.90993679,0.41474694,-0.41474694,0.90993679,54.985838,-172.50724)"
         id="g3278">
        <path
           sodipodi:nodetypes="cssssc"
           inkscape:connector-curvature="0"
           inkscape:original-d="m 458.20519,474.30239 c 0,0 7.98368,-1.18709 10.60661,-3.88909 1.55749,-1.60444 3.02372,-4.31807 2.12132,-6.36396 -1.40525,-3.18595 -7.01163,-6.63058 -9.54594,-4.24264 -1.4657,1.38105 2.12132,5.65685 2.12132,5.65685 l 0,0"
           inkscape:path-effect="#path-effect3069-03"
           id="path3280"
           d="m 458.20519,474.30239 c 1.94218,0.39988 3.99497,0.2473 5.85668,-0.43533 1.86172,-0.68263 3.52659,-1.89318 4.74993,-3.45376 1.40897,-1.79738 2.22504,-4.08251 2.12132,-6.36396 -0.0532,-1.1709 -0.34754,-2.33791 -0.91759,-3.36207 -0.57004,-1.02415 -1.42178,-1.90042 -2.46245,-2.43971 -1.04067,-0.5393 -2.27071,-0.72899 -3.41223,-0.46293 -1.14151,0.26606 -2.17904,1.00049 -2.75367,2.02207 -0.5621,0.99929 -0.65823,2.24851 -0.25566,3.32204 0.40258,1.07354 1.29641,1.95151 2.37698,2.33481 l 0,0"
           style="fill:none;stroke:#000000;stroke-width:1px;stroke-linecap:butt;stroke-linejoin:miter;stroke-opacity:1" />
        <path
           style="fill:none;stroke:#000000;stroke-width:1px;stroke-linecap:butt;stroke-linejoin:miter;stroke-opacity:1"
           d="m 457.85164,474.59062 c 1.94218,-0.39988 3.99497,-0.2473 5.85668,0.43533 1.86172,0.68263 3.52659,1.89318 4.74993,3.45376 1.40897,1.79738 2.22504,4.08251 2.12132,6.36396 -0.0532,1.1709 -0.34754,2.33791 -0.91759,3.36207 -0.57004,1.02415 -1.42178,1.90042 -2.46245,2.43971 -1.04067,0.5393 -2.27071,0.72899 -3.41223,0.46293 -1.14151,-0.26606 -2.17904,-1.00049 -2.75367,-2.02207 -0.5621,-0.99929 -0.65823,-2.24851 -0.25566,-3.32204 0.40258,-1.07354 1.29641,-1.95151 2.37698,-2.33481 l 0,0"
           id="path3282"
           inkscape:path-effect="#path-effect3073-74"
           inkscape:original-d="m 457.85164,474.59062 c 0,0 7.98368,1.18709 10.60661,3.88909 1.55749,1.60444 3.02372,4.31807 2.12132,6.36396 -1.40525,3.18595 -7.01163,6.63058 -9.54594,4.24264 -1.4657,-1.38105 2.12132,-5.65685 2.12132,-5.65685 l 0,0"
           inkscape:connector-curvature="0"
           sodipodi:nodetypes="cssssc" />
      </g>
      <g
         transform="matrix(1.5976776,0.79589768,-0.99486243,1.2781545,-58.98659,-544.69201)"
         id="g3284">
        <path
           sodipodi:nodetypes="cssssc"
           inkscape:connector-curvature="0"
           inkscape:original-d="m 458.20519,474.30239 c 0,0 7.98368,-1.18709 10.60661,-3.88909 1.55749,-1.60444 3.02372,-4.31807 2.12132,-6.36396 -1.40525,-3.18595 -7.01163,-6.63058 -9.54594,-4.24264 -1.4657,1.38105 2.12132,5.65685 2.12132,5.65685 l 0,0"
           inkscape:path-effect="#path-effect3069-5"
           id="path3286"
           d="m 458.20519,474.30239 c 1.94218,0.39988 3.99497,0.2473 5.85668,-0.43533 1.86172,-0.68263 3.52659,-1.89318 4.74993,-3.45376 1.40897,-1.79738 2.22504,-4.08251 2.12132,-6.36396 -0.0532,-1.1709 -0.34754,-2.33791 -0.91759,-3.36207 -0.57004,-1.02415 -1.42178,-1.90042 -2.46245,-2.43971 -1.04067,-0.5393 -2.27071,-0.72899 -3.41223,-0.46293 -1.14151,0.26606 -2.17904,1.00049 -2.75367,2.02207 -0.5621,0.99929 -0.65823,2.24851 -0.25566,3.32204 0.40258,1.07354 1.29641,1.95151 2.37698,2.33481 l 0,0"
           style="fill:none;stroke:#000000;stroke-width:0.59403044px;stroke-linecap:butt;stroke-linejoin:miter;stroke-opacity:1" />
        <path
           style="fill:none;stroke:#000000;stroke-width:0.59403044px;stroke-linecap:butt;stroke-linejoin:miter;stroke-opacity:1"
           d="m 457.85164,474.59062 c 1.94218,-0.39988 3.99497,-0.2473 5.85668,0.43533 1.86172,0.68263 3.52659,1.89318 4.74993,3.45376 1.40897,1.79738 2.22504,4.08251 2.12132,6.36396 -0.0532,1.1709 -0.34754,2.33791 -0.91759,3.36207 -0.57004,1.02415 -1.42178,1.90042 -2.46245,2.43971 -1.04067,0.5393 -2.27071,0.72899 -3.41223,0.46293 -1.14151,-0.26606 -2.17904,-1.00049 -2.75367,-2.02207 -0.5621,-0.99929 -0.65823,-2.24851 -0.25566,-3.32204 0.40258,-1.07354 1.29641,-1.95151 2.37698,-2.33481 l 0,0"
           id="path3288"
           inkscape:path-effect="#path-effect3073-9"
           inkscape:original-d="m 457.85164,474.59062 c 0,0 7.98368,1.18709 10.60661,3.88909 1.55749,1.60444 3.02372,4.31807 2.12132,6.36396 -1.40525,3.18595 -7.01163,6.63058 -9.54594,4.24264 -1.4657,-1.38105 2.12132,-5.65685 2.12132,-5.65685 l 0,0"
           inkscape:connector-curvature="0"
           sodipodi:nodetypes="cssssc" />
      </g>
      <g
         transform="matrix(1.9728097,0.79666179,-1.2672439,1.2402207,-166.15747,-559.39249)"
         id="g3290">
        <path
           sodipodi:nodetypes="cssssc"
           inkscape:connector-curvature="0"
           inkscape:original-d="m 458.20519,474.30239 c 0,0 7.98368,-1.18709 10.60661,-3.88909 1.55749,-1.60444 3.02372,-4.31807 2.12132,-6.36396 -1.40525,-3.18595 -7.01163,-6.63058 -9.54594,-4.24264 -1.4657,1.38105 2.12132,5.65685 2.12132,5.65685 l 0,0"
           inkscape:path-effect="#path-effect3069-2"
           id="path3292"
           d="m 458.20519,474.30239 c 1.94218,0.39988 3.99497,0.2473 5.85668,-0.43533 1.86172,-0.68263 3.52659,-1.89318 4.74993,-3.45376 1.40897,-1.79738 2.22504,-4.08251 2.12132,-6.36396 -0.0532,-1.1709 -0.34754,-2.33791 -0.91759,-3.36207 -0.57004,-1.02415 -1.42178,-1.90042 -2.46245,-2.43971 -1.04067,-0.5393 -2.27071,-0.72899 -3.41223,-0.46293 -1.14151,0.26606 -2.17904,1.00049 -2.75367,2.02207 -0.5621,0.99929 -0.65823,2.24851 -0.25566,3.32204 0.40258,1.07354 1.29641,1.95151 2.37698,2.33481 l 0,0"
           style="fill:none;stroke:#000000;stroke-width:0.53789222px;stroke-linecap:butt;stroke-linejoin:miter;stroke-opacity:1" />
        <path
           style="fill:none;stroke:#000000;stroke-width:0.53789222px;stroke-linecap:butt;stroke-linejoin:miter;stroke-opacity:1"
           d="m 457.85164,474.59062 c 1.94218,-0.39988 3.99497,-0.2473 5.85668,0.43533 1.86172,0.68263 3.52659,1.89318 4.74993,3.45376 1.40897,1.79738 2.22504,4.08251 2.12132,6.36396 -0.0532,1.1709 -0.34754,2.33791 -0.91759,3.36207 -0.57004,1.02415 -1.42178,1.90042 -2.46245,2.43971 -1.04067,0.5393 -2.27071,0.72899 -3.41223,0.46293 -1.14151,-0.26606 -2.17904,-1.00049 -2.75367,-2.02207 -0.5621,-0.99929 -0.65823,-2.24851 -0.25566,-3.32204 0.40258,-1.07354 1.29641,-1.95151 2.37698,-2.33481 l 0,0"
           id="path3294"
           inkscape:path-effect="#path-effect3073-5"
           inkscape:original-d="m 457.85164,474.59062 c 0,0 7.98368,1.18709 10.60661,3.88909 1.55749,1.60444 3.02372,4.31807 2.12132,6.36396 -1.40525,3.18595 -7.01163,6.63058 -9.54594,4.24264 -1.4657,-1.38105 2.12132,-5.65685 2.12132,-5.65685 l 0,0"
           inkscape:connector-curvature="0"
           sodipodi:nodetypes="cssssc" />
      </g>
    </g>
  </g>
</svg>
