<?xml version="1.0" encoding="UTF-8"?>

<svg version="1.2" baseProfile="tiny" viewBox="0 0 20320 10160" stroke-width="28.222" stroke-linejoin="round" xmlns="http://www.w3.org/2000/svg" xmlns:xlink="http://www.w3.org/1999/xlink">
  <path fill="rgb(207,231,245)" stroke="none" d="M 634,4000 L 2870,4301 2870,3698 634,4000 Z M 634,253 L 634,253 Z M 8636,7747 L 8636,7747 Z"/>
  <path fill="none" stroke="rgb(128,128,128)" d="M 634,4000 L 2870,4301 2870,3698 634,4000"/>
  <path fill="rgb(207,231,245)" stroke="none" d="M 1805,6649 L 3615,5381 3159,4954 1805,6649 Z M 634,253 L 634,253 Z M 8636,7747 L 8636,7747 Z"/>
  <path fill="none" stroke="rgb(128,128,128)" d="M 1805,6649 L 3615,5381 3159,4954 1805,6649"/>
  <path fill="rgb(207,231,245)" stroke="none" d="M 4634,7747 L 4957,5652 4312,5652 4634,7747 Z M 634,253 L 634,253 Z M 8636,7747 L 8636,7747 Z"/>
  <path fill="none" stroke="rgb(128,128,128)" d="M 4634,7747 L 4957,5652 4312,5652 4634,7747"/>
  <path fill="rgb(207,231,245)" stroke="none" d="M 7464,6649 L 6110,4954 5654,5381 7464,6649 Z M 634,253 L 634,253 Z M 8636,7747 L 8636,7747 Z"/>
  <path fill="none" stroke="rgb(128,128,128)" d="M 7464,6649 L 6110,4954 5654,5381 7464,6649"/>
  <path fill="rgb(207,231,245)" stroke="none" d="M 8635,4000 L 6399,3698 6399,4301 8635,4000 Z M 634,253 L 634,253 Z M 8636,7747 L 8636,7747 Z"/>
  <path fill="none" stroke="rgb(128,128,128)" d="M 8635,4000 L 6399,3698 6399,4301 8635,4000"/>
  <path fill="rgb(207,231,245)" stroke="none" d="M 7464,1350 L 5654,2618 6110,3045 7464,1350 Z M 634,253 L 634,253 Z M 8636,7747 L 8636,7747 Z"/>
  <path fill="none" stroke="rgb(128,128,128)" d="M 7464,1350 L 5654,2618 6110,3045 7464,1350"/>
  <path fill="rgb(207,231,245)" stroke="none" d="M 4635,253 L 4312,2347 4957,2347 4635,253 Z M 634,253 L 634,253 Z M 8636,7747 L 8636,7747 Z"/>
  <path fill="none" stroke="rgb(128,128,128)" d="M 4635,253 L 4312,2347 4957,2347 4635,253"/>
  <path fill="rgb(207,231,245)" stroke="none" d="M 1805,1350 L 3159,3045 3615,2618 1805,1350 Z M 634,253 L 634,253 Z M 8636,7747 L 8636,7747 Z"/>
  <path fill="none" stroke="rgb(128,128,128)" d="M 1805,1350 L 3159,3045 3615,2618 1805,1350"/>
  <path fill="rgb(207,231,245)" stroke="none" d="M 4633,2963 C 5260,2963 5739,3412 5739,3999 5739,4586 5260,5035 4633,5035 4006,5035 3527,4586 3527,3999 3527,3412 4006,2963 4633,2963 Z M 634,253 L 634,253 Z M 8636,7747 L 8636,7747 Z"/>
  <path fill="none" stroke="rgb(128,128,128)" d="M 4633,2963 C 5260,2963 5739,3412 5739,3999 5739,4586 5260,5035 4633,5035 4006,5035 3527,4586 3527,3999 3527,3412 4006,2963 4633,2963"/>
</svg>