<?xml version="1.0" encoding="UTF-8"?>

<svg version="1.2" baseProfile="tiny" viewBox="0 0 299999 152400" preserveAspectRatio="xMidYMid" fill-rule="evenodd" clip-path="url(#presentation_clip_path)" stroke-width="28.222" stroke-linejoin="round" xmlns="http://www.w3.org/2000/svg" xmlns:xlink="http://www.w3.org/1999/xlink" xmlns:draw="urn:oasis:names:tc:opendocument:xmlns:drawing:1.0" xmlns:presentation="urn:oasis:names:tc:opendocument:xmlns:presentation:1.0" xmlns:smil="urn:oasis:names:tc:opendocument:xmlns:smil-compatible:1.0" xmlns:anim="urn:oasis:names:tc:opendocument:xmlns:animation:1.0" xml:space="preserve">
 <defs>
  <clipPath id="presentation_clip_path" clipPathUnits="userSpaceOnUse">
   <rect x="0" y="0" width="299999" height="152400"/>
  </clipPath>
 </defs>
 <g id="id2" class="Master_Slide" clip-path="url(#presentation_clip_path)">
  <g id="bg-id2" visibility="visible" class="Background">
   <rect fill="none" stroke="none" x="0" y="0" width="299999" height="152400"/>
  </g>
  <g id="bo-id2" visibility="visible" class="BackgroundObjects"/>
 </g>
 <g id="id1" class="Slide" visibility="visible" clip-path="url(#presentation_clip_path)">
  <g class="Group">
   <g class="com.sun.star.drawing.PolyPolygonShape">
    <g>
     <path fill="rgb(94,17,166)" fill-opacity="0.8" stroke="rgb(255,255,255)" stroke-opacity="0.8" d="M 200845,65256 L 200819,66962 200743,68668 200616,70370 200441,72070 200213,73767 199936,75457 199611,77142 199232,78819 198808,80488 198330,82146 197806,83795 197233,85434 196612,87059 195942,88671 195224,90269 194461,91851 193649,93417 192794,94966 191891,96497 190943,98009 189952,99501 188914,100972 187836,102420 186714,103846 185550,105249 184345,106626 183101,107979 181816,109305 180493,110604 179130,111876 177731,113119 176297,114332 174826,115517 173319,116668 171781,117791 170209,118879 168605,119937 166971,120959 165306,121948 163614,122902 161894,123822 160146,124704 158373,125550 156575,126361 154753,127132 152911,127867 151047,128563 149162,129220 147258,129838 145337,130417 143400,130956 141447,131453 139480,131911 137500,132329 135509,132705 133506,133039 131494,133332 129474,133585 127448,133793 125415,133961 123380,134088 121341,134171 119298,134212 117256,134212 115215,134168 113176,134083 111139,133956 109108,133786 107082,133574 105062,133322 103050,133027 101049,132690 99058,132312 97078,131893 95111,131434 93158,130933 91223,130392 89302,129813 87398,129193 85515,128535 83652,127835 81809,127101 79989,126326 78193,125515 76420,124667 74675,123783 72955,122863 71264,121906 69601,120917 67968,119891 66366,118833 64794,117744 63258,116620 61753,115466 60285,114281 58850,113066 57453,111821 56092,110550 54772,109248 53487,107920 52244,106568 51042,105189 49880,103785 48760,102358 47682,100908 46649,99437 45658,97945 44713,96432 43811,94901 42957,93350 42148,91784 41385,90200 40671,88602 40003,86990 39384,85364 38813,83725 38289,82076 37816,80416 37393,78747 37017,77069 36694,75385 36417,73693 36193,71998 36020,70297 35895,68595 35821,66889 35798,65184 35825,63476 35904,61772 36033,60068 36210,58369 36440,56672 36719,54982 37049,53298 37427,51622 37856,49953 38334,48293 38860,46646 39435,45009 40058,43383 40730,41772 41451,40174 42216,38594 43029,37027 43887,35479 44791,33950 45742,32438 46735,30948 47773,29478 48855,28031 49977,26605 51143,25205 52350,23828 53597,22477 54882,21151 56209,19853 57571,18583 58972,17340 60409,16129 61880,14946 63387,13794 64929,12675 118321,65256 200845,65256 Z M 35798,-3705 L 35798,-3705 Z M 200845,134217 L 200845,134217 Z"/>
     <rect fill="none" stroke="none" x="35798" y="-3705" width="165048" height="137923"/>
    </g>
   </g>
   <g class="com.sun.star.drawing.PolyPolygonShape">
    <g>
     <path fill="rgb(94,17,166)" fill-opacity="0.8" stroke="rgb(255,255,255)" stroke-opacity="0.8" d="M 187695,16030 L 284845,118967 90547,118967 187695,16030 Z M 90547,16030 L 90547,16030 Z M 284845,118967 L 284845,118967 Z"/>
     <rect fill="none" stroke="none" x="90546" y="16029" width="194300" height="102940"/>
    </g>
   </g>
  </g>
  <g class="Group">
   <g class="com.sun.star.drawing.PolyPolygonShape">
    <g>
     <path fill="rgb(94,17,166)" fill-opacity="0.8" stroke="rgb(255,255,255)" stroke-opacity="0.8" d="M 101256,65135 L 101282,66841 101358,68547 101485,70249 101660,71949 101888,73646 102165,75336 102490,77021 102869,78698 103293,80367 103771,82025 104295,83674 104868,85313 105489,86938 106159,88550 106877,90148 107640,91730 108452,93296 109307,94845 110210,96376 111158,97888 112149,99380 113187,100851 114265,102299 115387,103725 116551,105128 117756,106505 119000,107858 120285,109184 121608,110483 122971,111755 124370,112998 125804,114211 127275,115396 128782,116547 130320,117670 131892,118758 133496,119816 135130,120838 136795,121827 138487,122781 140207,123701 141955,124583 143728,125429 145526,126240 147348,127011 149190,127746 151054,128442 152939,129099 154843,129717 156764,130296 158701,130835 160654,131332 162621,131790 164601,132208 166592,132584 168595,132918 170607,133211 172627,133464 174653,133672 176686,133840 178721,133967 180760,134050 182803,134091 184845,134091 186886,134047 188925,133962 190962,133835 192993,133665 195019,133453 197039,133201 199051,132906 201052,132569 203043,132191 205023,131772 206990,131313 208943,130812 210878,130271 212799,129692 214703,129072 216586,128414 218449,127714 220292,126980 222112,126205 223908,125394 225681,124546 227426,123662 229146,122742 230837,121785 232500,120796 234133,119770 235735,118712 237307,117623 238843,116499 240348,115345 241816,114160 243251,112945 244648,111700 246009,110429 247329,109127 248614,107799 249857,106447 251059,105068 252221,103664 253341,102237 254419,100787 255452,99316 256443,97824 257388,96311 258290,94780 259144,93229 259953,91663 260716,90079 261430,88481 262098,86869 262717,85243 263288,83604 263812,81955 264285,80295 264708,78626 265084,76948 265407,75264 265684,73572 265908,71877 266081,70176 266206,68474 266280,66768 266303,65063 266276,63355 266197,61651 266068,59947 265891,58248 265661,56551 265382,54861 265052,53177 264674,51501 264245,49832 263767,48172 263241,46525 262666,44888 262043,43262 261371,41651 260650,40053 259885,38473 259072,36906 258214,35358 257310,33829 256359,32317 255366,30827 254328,29357 253246,27910 252124,26484 250958,25084 249751,23707 248504,22356 247219,21030 245892,19732 244530,18462 243129,17219 241692,16008 240221,14825 238714,13673 237172,12554 183780,65135 101256,65135 Z M 266303,-3826 L 266303,-3826 Z M 101256,134096 L 101256,134096 Z"/>
     <rect fill="none" stroke="none" x="101256" y="-3826" width="165048" height="137923"/>
    </g>
   </g>
   <g class="com.sun.star.drawing.PolyPolygonShape">
    <g>
     <path fill="rgb(94,17,166)" fill-opacity="0.8" stroke="rgb(255,255,255)" stroke-opacity="0.8" d="M 114406,15909 L 17256,118846 211554,118846 114406,15909 Z M 211554,15909 L 211554,15909 Z M 17256,118846 L 17256,118846 Z"/>
     <rect fill="none" stroke="none" x="17256" y="15908" width="194300" height="102940"/>
    </g>
   </g>
  </g>
 </g>
</svg>