<?xml version="1.0" encoding="UTF-8"?>
<svg version="1.2" baseProfile="tiny" viewBox="0 0 17780 7620" preserveAspectRatio="xMidYMid" fill-rule="evenodd" stroke-width="28.222" stroke-linejoin="round" xmlns="http://www.w3.org/2000/svg" xmlns:xlink="http://www.w3.org/1999/xlink" xml:space="preserve">
     <path fill="rgb(0,0,0)" stroke="none" d="M 127,4281 C 127,3531 127,2782 127,2032 279,2032 431,2032 582,2032 582,2327 582,2622 582,2917 880,2917 1177,2917 1474,2917 1474,2622 1474,2327 1474,2032 1626,2032 1778,2032 1930,2032 1930,2782 1930,3531 1930,4281 1778,4281 1626,4281 1474,4281 1474,3953 1474,3625 1474,3298 1177,3298 880,3298 582,3298 582,3625 582,3953 582,4281 431,4281 279,4281 127,4281 Z"/>
     <path fill="rgb(0,0,0)" stroke="none" d="M 3343,3762 L 3774,3835 C 3718,3992 3631,4112 3512,4194 3392,4277 3243,4318 3063,4318 2779,4318 2569,4225 2433,4040 2325,3892 2271,3705 2271,3479 2271,3209 2342,2997 2483,2844 2625,2691 2804,2615 3020,2615 3263,2615 3455,2695 3595,2855 3736,3015 3803,3260 3797,3591 L 2714,3591 C 2717,3718 2752,3818 2819,3889 2885,3960 2968,3996 3068,3996 3135,3996 3192,3977 3239,3940 3285,3904 3320,3844 3343,3762 Z M 3368,3327 C 3365,3202 3332,3107 3271,3042 3209,2977 3134,2945 3046,2945 2952,2945 2874,2979 2812,3048 2751,3116 2721,3209 2722,3327 L 3368,3327 Z"/>
     <path fill="rgb(0,0,0)" stroke="none" d="M 4150,4281 C 4150,3531 4150,2782 4150,2032 4294,2032 4438,2032 4582,2032 4582,2782 4582,3531 4582,4281 4438,4281 4294,4281 4150,4281 Z"/>
     <path fill="rgb(0,0,0)" stroke="none" d="M 5026,4281 C 5026,3531 5026,2782 5026,2032 5171,2032 5315,2032 5459,2032 5459,2782 5459,3531 5459,4281 5315,4281 5171,4281 5026,4281 Z"/>
     <path fill="rgb(0,0,0)" stroke="none" d="M 5802,3443 C 5802,3300 5837,3162 5908,3028 5979,2894 6079,2791 6209,2721 6339,2650 6483,2615 6643,2615 6891,2615 7093,2695 7251,2855 7409,3015 7488,3217 7488,3462 7488,3708 7408,3913 7249,4075 7089,4237 6888,4318 6646,4318 6497,4318 6354,4284 6218,4217 6082,4149 5979,4050 5908,3920 5837,3789 5802,3631 5802,3443 Z M 6245,3466 C 6245,3628 6283,3752 6360,3838 6437,3924 6532,3966 6645,3966 6758,3966 6852,3924 6929,3838 7005,3752 7043,3627 7043,3463 7043,3304 7005,3181 6929,3095 6852,3009 6758,2966 6645,2966 6532,2966 6437,3009 6360,3095 6283,3181 6245,3305 6245,3466 Z"/>
     <path fill="rgb(0,0,0)" stroke="none" d="M 9027,4281 C 8848,3531 8669,2782 8489,2032 8644,2032 8800,2032 8955,2032 9069,2547 9182,3062 9295,3577 9433,3062 9570,2547 9707,2032 9888,2032 10068,2032 10249,2032 10381,2556 10512,3079 10644,3603 10760,3079 10875,2556 10990,2032 11143,2032 11296,2032 11449,2032 11266,2782 11084,3531 10901,4281 10740,4281 10579,4281 10418,4281 10268,3721 10119,3160 9969,2600 9820,3160 9670,3721 9521,4281 9357,4281 9192,4281 9027,4281 Z"/>
     <path fill="rgb(0,0,0)" stroke="none" d="M 11519,3443 C 11519,3300 11555,3162 11625,3028 11696,2894 11796,2791 11926,2721 12056,2650 12201,2615 12361,2615 12608,2615 12810,2695 12968,2855 13126,3015 13205,3217 13205,3462 13205,3708 13125,3913 12966,4075 12807,4237 12606,4318 12364,4318 12214,4318 12071,4284 11935,4217 11800,4149 11696,4050 11625,3920 11555,3789 11519,3631 11519,3443 Z M 11962,3466 C 11962,3628 12001,3752 12078,3838 12155,3924 12249,3966 12362,3966 12475,3966 12570,3924 12646,3838 12722,3752 12761,3627 12761,3463 12761,3304 12722,3181 12646,3095 12570,3009 12475,2966 12362,2966 12249,2966 12155,3009 12078,3095 12001,3181 11962,3305 11962,3466 Z"/>
     <path fill="rgb(0,0,0)" stroke="none" d="M 13959,4281 L 13526,4281 13526,2652 13928,2652 13928,2883 C 13997,2774 14058,2702 14113,2667 14168,2632 14230,2615 14300,2615 14399,2615 14493,2642 14585,2696 L 14451,3072 C 14378,3025 14310,3002 14248,3002 14187,3002 14136,3018 14094,3051 14052,3085 14019,3145 13995,3232 13971,3319 13959,3501 13959,3778 L 13959,4281 Z"/>
     <path fill="rgb(0,0,0)" stroke="none" d="M 14771,4281 C 14771,3531 14771,2782 14771,2032 14915,2032 15059,2032 15203,2032 15203,2782 15203,3531 15203,4281 15059,4281 14915,4281 14771,4281 Z"/>
     <path fill="rgb(0,0,0)" stroke="none" d="M 17145,4281 L 16743,4281 16743,4042 C 16677,4135 16598,4204 16507,4250 16416,4295 16325,4318 16233,4318 16045,4318 15884,4242 15750,4092 15616,3941 15550,3730 15550,3460 15550,3184 15615,2974 15745,2830 15875,2687 16040,2615 16239,2615 16421,2615 16579,2691 16712,2842 L 16712,2032 17145,2032 17145,4281 Z M 15991,3431 C 15991,3605 16015,3731 16063,3808 16133,3921 16230,3977 16356,3977 16455,3977 16540,3935 16609,3851 16679,3766 16714,3640 16714,3473 16714,3285 16680,3151 16612,3068 16545,2986 16458,2945 16353,2945 16250,2945 16164,2985 16095,3067 16026,3148 15991,3270 15991,3431 Z"/>
</svg>