<?xml version="1.0" encoding="utf-8"?>
<!-- Generator: Adobe Illustrator 12.0.0, SVG Export Plug-In . SVG Version: 6.00 Build 51448)  -->
<!DOCTYPE svg PUBLIC "-//W3C//DTD SVG 1.1//EN" "http://www.w3.org/Graphics/SVG/1.1/DTD/svg11.dtd" [
	<!ENTITY ns_svg "http://www.w3.org/2000/svg">
	<!ENTITY ns_xlink "http://www.w3.org/1999/xlink">
]>
<svg  version="1.1" id="Layer_1" xmlns="&ns_svg;" xmlns:xlink="&ns_xlink;" width="540" height="120" viewBox="0 0 540 120"
	 overflow="visible" enable-background="new 0 0 540 120" xml:space="preserve">
<g>
	<g>
		<path fill="#CB3524" d="M294.844,20.655h-36.267l-12.775,72.452l0.674-72.452h-29.161l-14.256,30.469
			c-1.522,3.293-2.681,6.896-3.803,10.291h-0.73l-3.684-40.76h-29.477l-11.231,32.976c0.734-20.94-15.234-34.211-37.132-34.211
			c-20.737,0-40.352,11.899-48.023,30.941l4.107-27.75c-5.699-2.059-12.189-3.191-18.669-3.191c-23.099,0-44.377,18.114-48.37,40.76
			C2.146,82.313,16.675,99.501,39.148,99.501c5.12,0,15.944-0.927,20.925-3.088l5.598-27.282c0.921,19.172,16.391,30.37,37.21,30.37
			c17.1,0,33.256-7.556,42.74-20.879l-6.69,19.646h27.696l9.192-33.146c0.856-3.09,1.629-6.28,2.381-9.367h0.941
			c-0.372,3.294-0.184,6.382,0.07,9.675l4.455,32.838h16.723l17.527-34.791c1.272-2.473,2.267-5.147,3.243-7.722h0.523
			l-3.629,42.513h54.431l4.119-23.369h14.635c15.993,0,27.769-9.881,30.563-25.73C325.196,29.919,313.24,20.655,294.844,20.655z
			 M66.318,59.666c-0.495,2.813-0.717,5.491-0.689,8.042c-5.264,4.237-10.86,6.882-17.282,6.882c-8.57,0-14.83-6.587-13.324-15.13
			c1.488-8.44,9.67-15.131,18.241-15.131c6.314,0,11.33,3.421,15.149,7.501C67.506,54.328,66.799,56.944,66.318,59.666z
			 M124.571,60.077c-1.561,8.853-8.695,14.927-17.37,14.927c-8.676,0-13.668-6.074-12.106-14.927
			c1.452-8.233,8.313-15.13,17.406-15.13S126.022,51.844,124.571,60.077z M294.578,48.24c-1.105,6.279-6.686,7.104-11.701,7.104
			h-2.825l2.38-13.485h2.717C289.852,41.858,295.65,42.167,294.578,48.24z"/>
	</g>
</g>
<polygon fill="#CB3524" points="363.861,21.733 335.222,21.733 332.246,38.621 360.885,38.621 "/>
<polygon fill="#CB3524" points="408.181,21.733 379.539,21.733 376.563,38.621 405.202,38.621 "/>
<polygon fill="#CB3524" points="520.149,21.733 488.481,21.733 479.544,38.621 523.293,38.621 "/>
<path fill="#CB3524" d="M459.787,38.621l6.408-11.329c-6.918-4.632-14.796-6.794-23.785-6.794c-13.508,0-28.077,6.395-35.237,18.123
	H459.787L459.787,38.621z"/>
<path fill="#CB3524" d="M443.071,41.606c4.541,0.784,8.453,2.94,11.885,5.552l3.141-5.552H443.071L443.071,41.606z"/>
<polygon fill="#CB3524" points="360.358,41.606 331.719,41.606 329.482,54.299 358.122,54.299 "/>
<path fill="#CB3524" d="M402.856,51.924c-0.041,0.821-0.032,1.613,0.025,2.375h50.395c-2.664-1.63-5.888-2.813-9.494-3.643
	l-6.226-1.439c-2.104-0.516-5.588-0.927-5.079-3.81c0.387-2.188,2.303-3.31,4.28-3.801h-31.19c-0.674,1.443-1.242,2.956-1.69,4.535
	l0.799-4.535h-28.64L373.8,54.299h28.637L402.856,51.924L402.856,51.924z"/>
<polygon fill="#CB3524" points="526.205,54.299 523.847,41.606 477.962,41.606 471.248,54.299 499.864,54.299 502.265,49.688 
	503.069,54.299 "/>
<path fill="#CB3524" d="M400.088,67.643l1.824-10.356H373.27l-1.352,7.679c-0.313,1.77-0.631,3.482-1.119,5.018h28.817
	C399.789,69.213,399.945,68.436,400.088,67.643L400.088,67.643z"/>
<path fill="#CB3524" d="M356.239,64.964l1.354-7.679h-28.64l-1.824,10.357c-0.141,0.791-0.257,1.569-0.355,2.338h28.816
	C355.646,68.445,355.926,66.732,356.239,64.964L356.239,64.964z"/>
<path fill="#CB3524" d="M420.13,69.805l0.948,0.178h40.049c0.37-5.467-1.18-9.604-4.111-12.696h-53.623
	C405.323,64.32,412.002,68.333,420.13,69.805L420.13,69.805z"/>
<polygon fill="#CB3524" points="462.948,69.98 488.079,69.98 491.739,69.909 498.309,57.285 469.666,57.285 "/>
<path fill="#CB3524" d="M398.856,72.961h-29.41c-1.378,2.098-3.574,3.43-7.381,3.43c-3.813,0-5.534-1.332-6.173-3.43h-29.414
	c-0.313,4.918,0.284,9.139,1.688,12.698h64.525C395.354,82.1,397.439,77.879,398.856,72.961L398.856,72.961z"/>
<path fill="#CB3524" d="M357.8,100.58c13.438,0,24.719-3.824,32.382-11.936h-60.556C334.431,96.756,344.359,100.58,357.8,100.58
	L357.8,100.58z"/>
<path fill="#CB3524" d="M461.369,72.961l-1.032,1.954c0.158-0.638,0.298-1.287,0.415-1.954h-29.773
	c0.35,0.55,0.497,1.258,0.331,2.196c-0.616,3.493-5.31,4.628-8.132,4.628c-6.427,0-11.92-3.04-16.3-6.824h-2.397l-7.323,12.698h86.8
	l1.128-2.38l-16.669-10.318H461.369L461.369,72.961z"/>
<path fill="#CB3524" d="M395.436,88.645l-2.788,4.836c8.104,4.422,19.131,7.101,29.06,7.101c11.197,0,23.137-3.96,30.933-11.937
	H395.436L395.436,88.645z"/>
<polygon fill="#CB3524" points="447.41,99.348 477.449,99.348 482.537,88.645 453.073,88.645 "/>
<polygon fill="#CB3524" points="526.764,57.285 503.589,57.285 505.791,69.861 527.108,70.234 502.344,83.209 502.662,85.659 
	532.038,85.659 "/>
<polygon fill="#CB3524" points="532.592,88.645 503.049,88.645 504.439,99.348 534.585,99.348 "/>
</svg>
